<svg width="16" height="16" viewBox="0 0 16 16" fill="none" xmlns="http://www.w3.org/2000/svg">
<path fill-rule="evenodd" clip-rule="evenodd" d="M12.1684 7.75778C11.9878 8.5255 11.5731 9.19584 11.0047 9.69314L11.618 12.175C11.9266 13.4235 10.6404 14.3833 9.55965 13.8489L8.40442 13.2776C8.15001 13.1517 7.85 13.1517 7.59559 13.2776L6.44035 13.8489C5.35963 14.3833 4.07344 13.4235 4.38197 12.175L4.9953 9.69314C4.42695 9.19584 4.01216 8.5255 3.8316 7.75779C3.6117 6.82284 3.6117 5.84964 3.8316 4.9147C4.15436 3.54242 5.22548 2.48126 6.58428 2.16339C7.51551 1.94554 8.4845 1.94554 9.41573 2.16339C10.7745 2.48126 11.8457 3.54242 12.1684 4.9147C12.3883 5.84964 12.3883 6.82284 12.1684 7.75778ZM9.41573 10.5091C9.45819 10.4992 9.50037 10.4885 9.54226 10.4771C9.77506 10.4139 9.99868 10.3288 10.2107 10.2239L10.7492 12.4027C10.8523 12.8199 10.4081 13.2443 9.94779 13.0166L8.79255 12.4453C8.2928 12.1982 7.70721 12.1982 7.20746 12.4453L6.05222 13.0166C5.59187 13.2443 5.14773 12.8199 5.25083 12.4027L5.78926 10.2239C5.98882 10.3226 6.19861 10.4038 6.41665 10.4657C6.47201 10.4814 6.5279 10.4959 6.58428 10.5091C7.51551 10.7269 8.4845 10.7269 9.41573 10.5091Z" fill="#4DBA0B"/>
</svg>
