<svg width="60" height="39" viewBox="0 0 60 39" fill="none" xmlns="http://www.w3.org/2000/svg">
<path d="M59.7433 9.64568C59.7433 9.673 59.7569 9.70031 59.7569 9.71396C59.7706 9.7959 59.7842 9.87783 59.7978 9.94611L59.6479 10.6153C59.6343 10.6426 59.607 10.6699 59.5797 10.7108C59.5525 10.7518 59.5252 10.7791 59.4979 10.8201C59.4707 10.8611 59.4434 10.902 59.4161 10.9293C59.3889 10.9703 59.3616 11.0113 59.3207 11.0522C59.2389 11.1615 59.1571 11.2707 59.0753 11.38C57.0304 17.4022 52.668 22.3183 47.3104 25.6094C41.6528 29.0916 34.2776 31.5497 27.5703 30.9215C24.503 30.6347 21.4902 29.7198 18.7228 28.3542C16.0917 27.0569 13.3379 25.3772 11.7429 22.8509C10.9931 21.6765 10.5159 20.3792 10.1206 19.0546C9.95699 18.522 9.80703 17.9758 9.67071 17.4295C9.17993 15.586 8.78459 13.7015 8.25291 11.8716C8.11659 11.4073 7.98026 10.943 7.81667 10.4787C7.47586 9.46816 7.06688 8.47128 6.54884 7.54268C6.19439 6.90086 5.78541 6.1771 5.24011 5.67183C4.70843 5.16656 4.12223 4.75689 3.4815 4.41549C3.23611 4.27893 2.97709 4.15603 2.7317 4.04678C2.51358 3.95119 2.30909 3.8556 2.11824 3.78732C2.05007 3.76001 1.96828 3.7327 1.91375 3.70538C1.77742 3.65076 1.65473 3.59614 1.5593 3.55517C1.45024 3.5142 1.38208 3.41861 1.35481 3.30936L1.31391 3.15915C1.31391 3.15915 1.30028 3.11818 1.30028 3.0499C1.28665 2.8041 1.24575 2.31249 1.34118 2.03937C1.46387 1.68432 1.90011 1.60238 2.52722 1.30195C3.15432 1.00152 3.34517 0.427978 3.89048 0.0865816C4.43578 -0.254815 6.39888 0.523569 6.39888 0.523569L7.23047 0.687439H7.2441C7.72124 0.783031 8.08932 1.17905 8.14385 1.67066C8.15749 1.79356 8.18475 1.94378 8.22565 2.1213C8.25291 2.25786 8.29381 2.44905 8.36198 2.6812C8.88001 4.59302 10.6659 9.31794 15.4646 12.1311C20.8631 15.2856 25.7708 16.5829 33.8413 16.1322C41.8982 15.6816 55.0264 9.63203 56.1716 9.22235C56.8941 8.96289 57.1667 8.79902 57.2758 8.73074C57.344 8.67612 57.344 8.66246 57.344 8.66246L58.0801 8.18451C58.0801 8.18451 58.0938 8.1572 58.1619 8.14354C58.1619 8.14354 58.1756 8.14354 58.1892 8.14354C58.1892 8.14354 58.1892 8.14354 58.2028 8.14354C58.2165 8.14354 58.2165 8.14354 58.2301 8.14354H58.2437C58.2574 8.14354 58.2574 8.14354 58.271 8.14354C58.2846 8.14354 58.2983 8.14354 58.3255 8.1572C58.3528 8.1572 58.3937 8.17085 58.4482 8.18451C58.4618 8.18451 58.4755 8.19816 58.4891 8.19816C58.5164 8.21182 58.5436 8.21182 58.5709 8.22547C58.5845 8.22547 58.5982 8.23913 58.6254 8.25279C58.7072 8.2801 58.789 8.33472 58.8845 8.38935C58.9117 8.403 58.939 8.41666 58.9799 8.44397C59.0071 8.45762 59.048 8.48494 59.0753 8.51225C59.1298 8.53956 59.1707 8.58053 59.2116 8.62149C59.3207 8.71709 59.4161 8.82633 59.4843 8.94924C59.4979 8.96289 59.5116 8.97655 59.5116 9.00386C59.5252 9.01752 59.5252 9.03117 59.5388 9.04483C59.5661 9.08579 59.5933 9.12676 59.607 9.18139C59.6479 9.29063 59.7024 9.48181 59.7433 9.64568Z" fill="#F7DC57"/>
<path d="M7.84449 10.4652C7.50367 9.45463 7.09469 8.45775 6.57665 7.52915C6.22221 6.88732 5.81323 6.16356 5.26792 5.6583C4.73625 5.15303 4.15005 4.74335 3.50931 4.40196C3.26393 4.2654 3.00491 4.1425 2.75952 4.03325C2.55503 3.93766 2.36417 3.85572 2.18695 3.78744C1.92793 3.6782 1.8734 3.35046 2.06426 3.15927C2.60956 2.6267 2.99128 2.53111 3.89103 3.47336C5.28155 4.92088 7.19012 6.27281 7.84449 10.4652Z" fill="#D0D9E5"/>
<path d="M58.2845 8.13001L58.3663 8.71722L58.0664 8.82646C56.6213 9.35904 55.2308 10.0145 53.8948 10.7793C48.7008 13.7426 41.3801 16.1597 35.409 17.4706C28.729 18.9318 23.4804 17.8257 16.4051 13.8109C9.31614 9.79603 8.67541 5.13938 7.5439 1.87563C7.38031 1.41133 7.27125 1.02897 7.21672 0.687569H7.23035C7.7075 0.78316 8.07558 1.17918 8.13011 1.67079C8.14374 1.79369 8.171 1.94391 8.2119 2.12143C8.48455 3.40509 10.0659 8.97668 15.4508 12.1312C20.8493 15.2857 25.7571 16.583 33.8276 16.1323C41.8845 15.6817 55.0127 9.63216 56.1578 9.22248C56.8803 8.96302 57.153 8.79915 57.2621 8.73087C57.3302 8.67625 57.3302 8.66259 57.3302 8.66259L58.0664 8.18464C58.0527 8.17098 58.1073 8.1027 58.2845 8.13001Z" fill="#FFF1BD"/>
<path d="M59.6482 10.6292C59.5664 10.7521 59.4573 10.9023 59.3346 11.0662C59.2528 11.1754 59.171 11.2846 59.0892 11.3939C57.0443 17.4161 52.6819 22.3322 47.3243 25.6233C41.6667 29.1055 34.2915 31.5636 27.5843 30.9354C24.5169 30.6487 21.5041 29.7337 18.7367 28.3681C16.1056 27.0708 13.3518 25.3912 11.7568 22.8648C11.007 21.6904 10.5299 20.3931 10.1345 19.0685C10.08 18.7407 9.99818 18.4267 9.90276 18.1262C12.0158 21.745 19.95 30.5667 31.8376 28.7095C41.844 27.1391 47.4333 24.0256 51.9048 19.0548C56.3763 14.0841 59.0483 9.5367 59.0483 9.5367L59.6482 10.6292Z" fill="#EDCC47"/>
<path d="M59.6479 10.6289C59.5661 10.7518 59.4571 10.902 59.3344 11.0659C59.0072 11.0386 58.68 10.943 58.3801 10.7928C58.162 10.6699 57.9575 10.5197 57.7939 10.3285C57.5485 10.0281 57.4122 9.64569 57.3304 9.26333C57.2895 9.0858 57.2486 8.89462 57.2486 8.7171C57.3168 8.66247 57.3168 8.64882 57.3168 8.64882L58.0529 8.17086C58.0529 8.17086 58.2029 7.95237 59.0208 8.47129C59.5525 8.81269 59.7434 9.50914 59.7979 9.94612C59.8388 10.1919 59.7843 10.4241 59.6479 10.6289Z" fill="#76603B"/>
<path d="M59.5324 10.1421C59.7909 9.93454 59.6836 9.37033 59.2928 8.88188C58.902 8.39343 58.3756 8.1657 58.1171 8.37324C57.8586 8.58077 57.9659 9.14498 58.3567 9.63344C58.7475 10.1219 59.2739 10.3496 59.5324 10.1421Z" fill="#332309"/>
<path d="M7.23079 0.687439C7.70794 0.783031 8.07602 1.17905 8.13055 1.67066C8.14418 1.79356 8.17144 1.94378 8.21234 2.1213C8.23961 2.25786 8.28051 2.44905 8.34867 2.6812C8.04875 2.70851 7.7352 2.70851 7.43528 2.72216C5.79937 2.74947 4.16346 3.21377 2.74566 4.04678C2.52754 3.95119 2.32305 3.8556 2.1322 3.78732C2.06403 3.76001 1.98224 3.7327 1.92771 3.70538C1.79138 3.65076 1.66869 3.59614 1.57326 3.55517C1.4642 3.5142 1.39604 3.41861 1.36877 3.30936L1.32787 3.15915C1.32787 3.15915 1.31424 3.11818 1.31424 3.0499C1.28697 2.8041 1.24608 2.31249 1.3415 2.03937C1.4642 1.68432 1.90044 1.60238 2.52754 1.30195C3.15464 1.00152 3.3455 0.427978 3.8908 0.0865816C4.43611 -0.254815 6.3992 0.523569 6.3992 0.523569L7.23079 0.687439Z" fill="#76603B"/>
<path d="M55.7629 23.9847C55.7629 24.012 55.7629 24.0393 55.7629 24.053C55.7629 24.1349 55.7492 24.2168 55.7492 24.2851C55.7492 24.2851 55.4357 24.886 55.4221 24.8996C55.3948 24.9269 55.3675 24.9543 55.3403 24.9679C55.313 24.9952 55.2721 25.0225 55.2448 25.0498C55.2039 25.0772 55.1767 25.1045 55.1358 25.1454C55.0949 25.1727 55.054 25.2137 55.0131 25.241C54.9177 25.323 54.8086 25.4049 54.6995 25.4868C51.1687 30.7716 45.6884 34.3905 39.6628 36.193C33.2963 38.0912 25.5394 38.5555 19.2275 36.2067C16.3373 35.1279 13.6654 33.4755 11.3478 31.4408C9.15296 29.5017 6.91721 27.1665 6.01745 24.3124C5.60848 22.9878 5.47215 21.6086 5.43125 20.2157C5.41762 19.6558 5.41762 19.0959 5.41762 18.536C5.41762 16.6242 5.51305 14.7124 5.48578 12.8005C5.47215 12.3226 5.45852 11.831 5.43125 11.3394C5.36309 10.2742 5.22676 9.20905 4.96774 8.1712C4.79052 7.44744 4.58603 6.6554 4.19068 6.02723C3.80897 5.41272 3.34546 4.85283 2.81379 4.34756C2.6093 4.15638 2.40481 3.9652 2.18669 3.78767C1.99583 3.63746 1.81861 3.5009 1.66865 3.378C1.60049 3.32337 1.54596 3.28241 1.49143 3.24144C1.36873 3.14585 1.2733 3.07757 1.17788 3.00929C1.09608 2.94101 1.04155 2.83176 1.04155 2.72252V2.5723C1.04155 2.5723 1.04155 2.53133 1.05518 2.46305C1.08245 2.24456 1.17788 1.73929 1.34147 1.50714C1.54596 1.19306 1.99583 1.22037 2.67746 1.09747C3.35909 0.974566 3.69991 0.469299 4.31338 0.278117C4.92685 0.0869349 6.63092 1.34327 6.63092 1.34327L7.38072 1.72564H7.39435C7.83059 1.94413 8.07598 2.42209 8.02145 2.9137C8.00782 3.0366 7.99418 3.18681 7.98055 3.36434C7.96692 3.5009 7.96692 3.70574 7.96692 3.93789C7.98055 5.91799 8.47132 10.9433 12.3975 14.9035C16.8009 19.3417 21.2178 21.868 29.1111 23.5204C37.018 25.1727 51.2505 22.7283 52.4638 22.6328C53.2272 22.5645 53.5271 22.4825 53.6634 22.4416C53.7316 22.4143 53.7452 22.387 53.7452 22.387L54.0283 22.6633C54.0283 22.6633 54.0555 22.636 54.1237 22.6497C54.1373 22.6497 54.1373 22.6497 54.151 22.6497C54.151 22.6497 54.151 22.6497 54.1646 22.6497C54.1646 22.6497 54.1782 22.6497 54.1919 22.6497C54.1919 22.6497 54.1918 22.6497 54.2055 22.6497C54.2191 22.6497 54.2191 22.6497 54.2327 22.6633C54.2464 22.6633 54.26 22.677 54.2873 22.677C54.3145 22.6907 54.3554 22.7043 54.3963 22.7316C54.41 22.7453 54.4236 22.7453 54.4372 22.7589C54.4645 22.7726 54.4781 22.7862 54.5054 22.8136C54.519 22.8272 54.5327 22.8409 54.5463 22.8545C54.6145 22.9092 54.6826 22.9774 54.7644 23.0457C54.7917 23.073 54.8053 23.0867 54.8326 23.114C54.8599 23.1413 54.8871 23.1686 54.9144 23.1959C54.9553 23.2369 54.9962 23.2915 55.0234 23.3325C55.1052 23.4554 55.1598 23.5783 55.2007 23.7148C55.2007 23.7285 55.2143 23.7558 55.2143 23.7695C55.2143 23.7831 55.2279 23.7968 55.2279 23.8104C55.2416 23.8651 55.2552 23.906 55.2688 23.9607C55.2007 24.1655 55.7629 23.8072 55.7629 23.9847Z" fill="#F7DC57"/>
<path d="M5.40401 11.3388C5.33585 10.2737 5.19952 9.2085 4.9405 8.17065C4.76328 7.44689 4.55879 6.65485 4.16344 6.02668C3.78173 5.41217 3.31822 4.85228 2.78655 4.34701C2.58206 4.15583 2.37757 3.96464 2.15945 3.78712C1.98223 3.6369 1.81863 3.514 1.66868 3.40475C1.45055 3.24088 1.47782 2.89949 1.70957 2.76293C2.36394 2.39422 2.75928 2.39422 3.40002 3.54131C4.36793 5.30292 5.86752 7.11915 5.40401 11.3388Z" fill="#EDCC47"/>
<path d="M54.7388 22.1406L54.6706 22.7414L54.3571 22.7687C52.8302 22.9053 51.317 23.1921 49.8174 23.5744C44.0372 25.0902 36.3484 25.5272 30.2274 25.2541C23.3974 24.94 18.6124 22.5093 12.8049 16.8011C6.99737 11.0657 7.58358 6.39537 7.32456 2.95409C7.28366 2.46248 7.28366 2.06646 7.32456 1.72507H7.33819C7.77443 1.94356 8.01982 2.42152 7.96529 2.91313C7.95166 3.03603 7.93803 3.18624 7.92439 3.36377C7.85623 4.67473 7.93802 10.4648 12.3414 14.9166C16.7447 19.3548 21.1617 21.8811 29.0549 23.5335C36.9619 25.1858 51.1943 22.7414 52.4076 22.6458C53.171 22.5776 53.471 22.4956 53.6073 22.4547C53.6755 22.4274 53.6891 22.4 53.6891 22.4L54.5207 22.1269C54.507 22.1133 54.5752 22.0586 54.7388 22.1406Z" fill="#FFF1BD"/>
<path d="M55.409 24.8993C55.2999 24.9949 55.1636 25.1178 55 25.2407C54.9046 25.3226 54.7955 25.4046 54.6865 25.4865C51.1556 30.7713 45.6753 34.3901 39.6497 36.1927C33.2832 38.0909 25.5263 38.5552 19.2144 36.2063C16.3243 35.1275 13.6523 33.4752 11.3347 31.4405C9.13989 29.5013 6.90414 27.1662 6.00438 24.3121C5.59541 22.9875 5.45908 21.6082 5.41818 20.2153C5.44545 19.8876 5.45908 19.5599 5.44545 19.2458C6.54969 23.2879 11.9346 33.8712 23.904 35.1412C33.9785 36.22 40.1814 34.6496 45.7844 31.0035C51.401 27.3573 55.1363 23.6566 55.1363 23.6566L55.409 24.8993Z" fill="#EDCC47"/>
<path d="M55.4077 24.8992C55.2987 24.9948 55.1487 25.1177 54.9988 25.2406C54.6852 25.1314 54.3989 24.9539 54.1535 24.7217C53.9763 24.5442 53.8127 24.353 53.7037 24.1209C53.5401 23.7658 53.5128 23.3698 53.5264 22.9738C53.5264 22.7962 53.5401 22.6051 53.5946 22.4275C53.6628 22.4002 53.6764 22.3729 53.6764 22.3729L54.508 22.0998C54.508 22.0998 54.7125 21.9223 55.3668 22.646C55.7895 23.1103 55.7895 23.8341 55.7349 24.2847C55.7077 24.5305 55.5986 24.749 55.4077 24.8992Z" fill="#76603B"/>
<path d="M55.4252 24.4052C55.7285 24.2717 55.7705 23.6989 55.519 23.1258C55.2675 22.5527 54.8178 22.1964 54.5145 22.3299C54.2112 22.4634 54.1692 23.0363 54.4207 23.6093C54.6722 24.1824 55.1219 24.5388 55.4252 24.4052Z" fill="#332309"/>
<path d="M7.33917 1.72521C7.77541 1.9437 8.0208 2.42165 7.96627 2.91327C7.95263 3.03617 7.939 3.18638 7.92537 3.36391C7.91174 3.50047 7.91174 3.70531 7.91174 3.93745C7.61182 3.88283 7.3119 3.8009 7.02562 3.73262C5.41697 3.35025 3.72652 3.36391 2.14514 3.8009C1.95428 3.65068 1.77706 3.51412 1.6271 3.39122C1.55894 3.3366 1.50441 3.29563 1.44988 3.25466C1.32718 3.15907 1.23175 3.09079 1.13633 3.02251C1.05453 2.95423 1 2.84499 1 2.73574V2.58552C1 2.58552 1 2.54456 1.01363 2.47628C1.0409 2.25778 1.13633 1.75252 1.29992 1.52037C1.50441 1.20628 1.95428 1.23359 2.63591 1.11069C3.31754 0.987789 3.65836 0.482523 4.27183 0.291341C4.8853 0.100159 6.58937 1.3565 6.58937 1.3565L7.33917 1.72521Z" fill="#76603B"/>
<path d="M5.47296 37.8589L58.5411 37.8589" stroke="#B1B9CC" stroke-width="2" stroke-miterlimit="10" stroke-linecap="round" stroke-linejoin="round"/>
<path d="M1.53456 37.8589L3.45575 37.8589" stroke="#B1B9CC" stroke-width="2" stroke-miterlimit="10" stroke-linecap="round" stroke-linejoin="round"/>
</svg>
