<svg width="80" height="80" viewBox="0 0 80 80" fill="none" xmlns="http://www.w3.org/2000/svg">
<rect width="80" height="80" rx="40" fill="#ECF8E6"/>
<mask id="mask0_0_4900" style="mask-type:alpha" maskUnits="userSpaceOnUse" x="0" y="0" width="80" height="80">
<rect width="80" height="80" rx="40" fill="#ECF8E6"/>
</mask>
<g mask="url(#mask0_0_4900)">
<path d="M13.6101 24.8523C14.6885 24.8523 15.5626 23.9772 15.5626 22.8978C15.5626 21.8183 14.6885 20.9432 13.6101 20.9432C12.5318 20.9432 11.6576 21.8183 11.6576 22.8978C11.6576 23.9772 12.5318 24.8523 13.6101 24.8523Z" fill="#EAEEF9"/>
<path d="M67.0472 30.8201C68.1255 30.8201 68.9997 29.945 68.9997 28.8655C68.9997 27.786 68.1255 26.9109 67.0472 26.9109C65.9688 26.9109 65.0946 27.786 65.0946 28.8655C65.0946 29.945 65.9688 30.8201 67.0472 30.8201Z" fill="#EAEEF9"/>
<path d="M64.7867 22.5384C65.2408 22.5384 65.6088 22.1699 65.6088 21.7154C65.6088 21.2608 65.2408 20.8924 64.7867 20.8924C64.3327 20.8924 63.9646 21.2608 63.9646 21.7154C63.9646 22.1699 64.3327 22.5384 64.7867 22.5384Z" fill="url(#paint0_linear_0_4900)"/>
<path d="M12.2316 50.2442C12.6572 50.2442 13.0023 49.8987 13.0023 49.4726C13.0023 49.0465 12.6572 48.7011 12.2316 48.7011C11.8059 48.7011 11.4609 49.0465 11.4609 49.4726C11.4609 49.8987 11.8059 50.2442 12.2316 50.2442Z" fill="url(#paint1_linear_0_4900)"/>
<g filter="url(#filter0_d_0_4900)">
<path d="M59.0916 63.887H25.4905C24.9696 63.887 24.5138 63.431 24.5138 62.9098V14.9595C24.5138 14.4383 24.9696 13.9822 25.4905 13.9822H59.0265C59.5474 13.9822 60.0032 14.4383 60.0032 14.9595V62.8446C60.0684 63.431 59.6125 63.887 59.0916 63.887Z" fill="white"/>
</g>
<g filter="url(#filter1_d_0_4900)">
<path d="M56.3569 66.6888H22.8209C22.3 66.6888 21.8442 66.2327 21.8442 65.7115V17.7612C21.8442 17.24 22.3 16.784 22.8209 16.784H56.3569C56.8778 16.784 57.3336 17.24 57.3336 17.7612V65.6464C57.3336 66.2327 56.8778 66.6888 56.3569 66.6888Z" fill="white"/>
</g>
<path d="M23.4071 20.8889H20.3465C20.021 20.8889 19.8256 20.6934 19.8256 20.3677C19.8256 20.1071 20.021 19.8465 20.3465 19.8465H23.4071C23.6676 19.8465 23.9281 20.0419 23.9281 20.3677C23.8629 20.6934 23.6676 20.8889 23.4071 20.8889Z" fill="#3B4D60"/>
<path d="M49.4547 21.9299H33.5658C33.3053 21.9299 33.0448 21.7345 33.0448 21.4087C33.0448 21.1481 33.2402 20.8875 33.5658 20.8875H49.3895C49.65 20.8875 49.9105 21.083 49.9105 21.4087C49.9105 21.6693 49.7151 21.9299 49.4547 21.9299Z" fill="#CED7E2"/>
<path d="M39.8821 24.4709H33.6307C33.3703 24.4709 33.1098 24.2755 33.1098 23.9497C33.1098 23.6891 33.3051 23.4285 33.6307 23.4285H39.8821C40.1426 23.4285 40.403 23.624 40.403 23.9497C40.3379 24.2755 40.1426 24.4709 39.8821 24.4709Z" fill="#CED7E2"/>
<path d="M23.4071 24.7317H20.3465C20.086 24.7317 19.8256 24.5363 19.8256 24.2107C19.8256 23.9503 20.0209 23.7549 20.3465 23.7549H23.4071C23.6675 23.7549 23.928 23.9503 23.928 24.2758C23.8629 24.5363 23.6675 24.7317 23.4071 24.7317Z" fill="#3B4D60"/>
<path d="M23.4071 28.6418H20.3465C20.0861 28.6418 19.8256 28.4464 19.8256 28.1206C19.8256 27.86 20.021 27.5994 20.3465 27.5994H23.4071C23.6676 27.5994 23.9281 27.7949 23.9281 28.1206C23.8629 28.3812 23.6676 28.6418 23.4071 28.6418Z" fill="#3B4D60"/>
<path d="M23.4071 32.4845H20.3465C20.086 32.4845 19.8256 32.289 19.8256 31.9633C19.8256 31.7027 20.0209 31.4421 20.3465 31.4421H23.4071C23.6675 31.4421 23.928 31.6376 23.928 31.9633C23.8629 32.289 23.6675 32.4845 23.4071 32.4845Z" fill="#3B4D60"/>
<path d="M23.4071 36.3947H20.3465C20.021 36.3947 19.8256 36.1341 19.8256 35.8735C19.8256 35.6129 20.021 35.3523 20.3465 35.3523H23.4071C23.6676 35.3523 23.9281 35.5478 23.9281 35.8735C23.8629 36.1341 23.6676 36.3947 23.4071 36.3947Z" fill="#3B4D60"/>
<path d="M23.4071 40.2374H20.3465C20.0209 40.2374 19.8256 40.042 19.8256 39.7162C19.8256 39.4556 20.0209 39.195 20.3465 39.195H23.4071C23.6675 39.195 23.928 39.3905 23.928 39.7162C23.8629 40.042 23.6675 40.2374 23.4071 40.2374Z" fill="#3B4D60"/>
<path d="M23.4071 44.0815H20.3465C20.086 44.0815 19.8256 43.886 19.8256 43.5603C19.8256 43.2997 20.0209 43.0391 20.3465 43.0391H23.4071C23.6675 43.0391 23.928 43.2345 23.928 43.5603C23.8629 43.886 23.6675 44.0815 23.4071 44.0815Z" fill="#3B4D60"/>
<path d="M23.4071 47.9904H20.3465C20.086 47.9904 19.8256 47.7949 19.8256 47.4692C19.8256 47.2086 20.0209 46.948 20.3465 46.948H23.4071C23.6675 46.948 23.928 47.1434 23.928 47.4692C23.8629 47.7298 23.6675 47.9904 23.4071 47.9904Z" fill="#3B4D60"/>
<path d="M23.4071 51.8344H20.3465C20.086 51.8344 19.8256 51.639 19.8256 51.3132C19.8256 51.0526 20.0209 50.792 20.3465 50.792H23.4071C23.6675 50.792 23.928 50.9875 23.928 51.3132C23.8629 51.639 23.6675 51.8344 23.4071 51.8344Z" fill="#3B4D60"/>
<path d="M23.4071 55.7433H20.3465C20.086 55.7433 19.8256 55.5479 19.8256 55.2221C19.8256 54.9615 20.0209 54.7009 20.3465 54.7009H23.4071C23.6675 54.7009 23.928 54.8964 23.928 55.2221C23.8629 55.4827 23.6675 55.7433 23.4071 55.7433Z" fill="#3B4D60"/>
<path d="M23.4071 59.5871H20.3465C20.021 59.5871 19.8256 59.3265 19.8256 59.0659C19.8256 58.8053 20.021 58.5447 20.3465 58.5447H23.4071C23.6676 58.5447 23.9281 58.7402 23.9281 59.0659C23.8629 59.3265 23.6676 59.5871 23.4071 59.5871Z" fill="#3B4D60"/>
<path d="M23.4071 63.4309H20.3465C20.0861 63.4309 19.8256 63.2354 19.8256 62.9097C19.8256 62.6491 20.021 62.3885 20.3465 62.3885H23.4071C23.6676 62.3885 23.9281 62.5839 23.9281 62.9097C23.8629 63.2354 23.6676 63.4309 23.4071 63.4309Z" fill="#3B4D60"/>
<path d="M29.0731 23.3632C29.7564 23.3632 30.3103 22.809 30.3103 22.1254C30.3103 21.4417 29.7564 20.8875 29.0731 20.8875C28.3898 20.8875 27.8359 21.4417 27.8359 22.1254C27.8359 22.809 28.3898 23.3632 29.0731 23.3632Z" fill="url(#paint2_linear_0_4900)"/>
<path d="M49.4547 29.6828H33.5658C33.3053 29.6828 33.0448 29.4874 33.0448 29.1616C33.0448 28.901 33.2402 28.6404 33.5658 28.6404H49.3895C49.65 28.6404 49.9105 28.8359 49.9105 29.1616C49.9105 29.4222 49.7151 29.6828 49.4547 29.6828Z" fill="#CED7E2"/>
<path d="M39.8821 32.2238H33.6307C33.3703 32.2238 33.1098 32.0284 33.1098 31.7026C33.1098 31.4421 33.3051 31.1814 33.6307 31.1814H39.8821C40.1426 31.1814 40.403 31.3769 40.403 31.7026C40.3379 32.0284 40.1426 32.2238 39.8821 32.2238Z" fill="#CED7E2"/>
<path d="M29.0732 31.0516C29.7565 31.0516 30.3105 30.4974 30.3105 29.8138C30.3105 29.1301 29.7565 28.5759 29.0732 28.5759C28.3899 28.5759 27.836 29.1301 27.836 29.8138C27.836 30.4974 28.3899 31.0516 29.0732 31.0516Z" fill="url(#paint3_linear_0_4900)"/>
<path d="M46.1985 37.3713H33.5656C33.3051 37.3713 33.0446 37.1758 33.0446 36.8501C33.0446 36.5895 33.24 36.3289 33.5656 36.3289H46.1985C46.459 36.3289 46.7195 36.5243 46.7195 36.8501C46.7195 37.1758 46.459 37.3713 46.1985 37.3713Z" fill="#CED7E2"/>
<path d="M42.6172 39.9768H33.5658C33.3053 39.9768 33.0448 39.7813 33.0448 39.4556C33.0448 39.195 33.2402 38.9344 33.5658 38.9344H42.6172C42.8777 38.9344 43.1382 39.1298 43.1382 39.4556C43.0731 39.7162 42.8777 39.9768 42.6172 39.9768Z" fill="#CED7E2"/>
<path d="M29.0732 38.8046C29.7565 38.8046 30.3105 38.2504 30.3105 37.5667C30.3105 36.8831 29.7565 36.3289 29.0732 36.3289C28.3899 36.3289 27.836 36.8831 27.836 37.5667C27.836 38.2504 28.3899 38.8046 29.0732 38.8046Z" fill="url(#paint4_linear_0_4900)"/>
<path d="M48.2172 45.1233H33.5656C33.3051 45.1233 33.0446 44.9279 33.0446 44.6021C33.0446 44.3415 33.24 44.0809 33.5656 44.0809H48.1521C48.4126 44.0809 48.673 44.2764 48.673 44.6021C48.673 44.9279 48.4777 45.1233 48.2172 45.1233Z" fill="#CED7E2"/>
<path d="M44.8313 47.7297H33.5658C33.3053 47.7297 33.0448 47.5343 33.0448 47.2085C33.0448 46.9479 33.2402 46.6873 33.5658 46.6873H44.7661C45.0266 46.6873 45.2871 46.8828 45.2871 47.2085C45.3522 47.4691 45.0917 47.7297 44.8313 47.7297Z" fill="#CED7E2"/>
<path d="M29.0732 46.5566C29.7565 46.5566 30.3105 46.0024 30.3105 45.3188C30.3105 44.6351 29.7565 44.0809 29.0732 44.0809C28.3899 44.0809 27.836 44.6351 27.836 45.3188C27.836 46.0024 28.3899 46.5566 29.0732 46.5566Z" fill="url(#paint5_linear_0_4900)"/>
<path d="M50.324 64.226L49.328 61.0722L53.5191 38.645L53.7389 37.4542L53.8679 36.7881C53.9393 36.4129 54.287 36.1807 54.6475 36.2587L55.355 36.4202L55.973 36.554C56.3199 36.6375 56.547 36.9734 56.4784 37.3159L56.3519 38.0283L56.1322 39.2191L52.1228 61.5901L52.1119 61.6417L50.4138 64.0958L50.324 64.226Z" fill="url(#paint6_linear_0_4900)"/>
<path d="M53.5188 38.6453L53.7386 37.4545L53.8676 36.7884C53.939 36.4132 54.2867 36.181 54.6472 36.2591L55.9727 36.5544C56.3196 36.6378 56.5466 36.9737 56.478 37.3163L56.3516 38.0286L56.1319 39.2195L53.5188 38.6453Z" fill="#9FADBC"/>
<path d="M53.7389 37.4539L53.868 36.7878C53.9393 36.4126 54.287 36.1804 54.6475 36.2584L55.973 36.5538C56.32 36.6372 56.547 36.9731 56.4784 37.3156L56.352 38.028L53.7389 37.4539Z" fill="#D0D9E5"/>
<path d="M50.3242 64.2255L49.934 62.9607L49.3418 61.0663C49.9643 61.6083 50.3279 61.4959 50.6784 61.231C51.0728 61.9107 51.5909 61.8317 52.1366 61.5842L52.1257 61.6358L51.0726 63.1408L50.3242 64.2255Z" fill="#CED7E2"/>
<path d="M50.3243 64.2258L49.934 62.9611L49.9476 62.9557C50.3412 62.7999 50.7668 62.8837 51.0726 63.1411L50.3243 64.2258Z" fill="#3B4D60"/>
<path opacity="0.08" d="M50.3239 64.2255L49.3278 61.0717L53.519 38.6445L53.7388 37.4537L53.8678 36.7876C53.9392 36.4124 54.2869 36.1802 54.6474 36.2582L55.3548 36.4197L50.678 61.231L50.4272 64.0899L50.3239 64.2255Z" fill="black"/>
</g>
<defs>
<filter id="filter0_d_0_4900" x="7.75609" y="5.6034" width="69.011" height="83.4201" filterUnits="userSpaceOnUse" color-interpolation-filters="sRGB">
<feFlood flood-opacity="0" result="BackgroundImageFix"/>
<feColorMatrix in="SourceAlpha" type="matrix" values="0 0 0 0 0 0 0 0 0 0 0 0 0 0 0 0 0 0 127 0" result="hardAlpha"/>
<feOffset dy="8.37883"/>
<feGaussianBlur stdDeviation="8.37883"/>
<feColorMatrix type="matrix" values="0 0 0 0 0.397708 0 0 0 0 0.47749 0 0 0 0 0.575 0 0 0 0.18 0"/>
<feBlend mode="normal" in2="BackgroundImageFix" result="effect1_dropShadow_0_4900"/>
<feBlend mode="normal" in="SourceGraphic" in2="effect1_dropShadow_0_4900" result="shape"/>
</filter>
<filter id="filter1_d_0_4900" x="5.0865" y="8.40516" width="69.0048" height="83.4201" filterUnits="userSpaceOnUse" color-interpolation-filters="sRGB">
<feFlood flood-opacity="0" result="BackgroundImageFix"/>
<feColorMatrix in="SourceAlpha" type="matrix" values="0 0 0 0 0 0 0 0 0 0 0 0 0 0 0 0 0 0 127 0" result="hardAlpha"/>
<feOffset dy="8.37883"/>
<feGaussianBlur stdDeviation="8.37883"/>
<feColorMatrix type="matrix" values="0 0 0 0 0.397708 0 0 0 0 0.47749 0 0 0 0 0.575 0 0 0 0.18 0"/>
<feBlend mode="normal" in2="BackgroundImageFix" result="effect1_dropShadow_0_4900"/>
<feBlend mode="normal" in="SourceGraphic" in2="effect1_dropShadow_0_4900" result="shape"/>
</filter>
<linearGradient id="paint0_linear_0_4900" x1="63.9635" y1="21.7151" x2="65.6101" y2="21.7151" gradientUnits="userSpaceOnUse">
<stop stop-color="#FF66A9"/>
<stop offset="1" stop-color="#F53689"/>
</linearGradient>
<linearGradient id="paint1_linear_0_4900" x1="11.4598" y1="49.4723" x2="13.0035" y2="49.4723" gradientUnits="userSpaceOnUse">
<stop stop-color="#FF66A9"/>
<stop offset="1" stop-color="#F53689"/>
</linearGradient>
<linearGradient id="paint2_linear_0_4900" x1="27.8341" y1="22.1249" x2="30.3122" y2="22.1249" gradientUnits="userSpaceOnUse">
<stop stop-color="#FF66A9"/>
<stop offset="1" stop-color="#F53689"/>
</linearGradient>
<linearGradient id="paint3_linear_0_4900" x1="27.8342" y1="29.8133" x2="30.3123" y2="29.8133" gradientUnits="userSpaceOnUse">
<stop stop-color="#FF66A9"/>
<stop offset="1" stop-color="#F53689"/>
</linearGradient>
<linearGradient id="paint4_linear_0_4900" x1="27.8342" y1="37.5663" x2="30.3123" y2="37.5663" gradientUnits="userSpaceOnUse">
<stop stop-color="#FF66A9"/>
<stop offset="1" stop-color="#F53689"/>
</linearGradient>
<linearGradient id="paint5_linear_0_4900" x1="27.8342" y1="45.3183" x2="30.3123" y2="45.3183" gradientUnits="userSpaceOnUse">
<stop stop-color="#FF66A9"/>
<stop offset="1" stop-color="#F53689"/>
</linearGradient>
<linearGradient id="paint6_linear_0_4900" x1="60.4432" y1="47.038" x2="45.8037" y2="52.8273" gradientUnits="userSpaceOnUse">
<stop stop-color="#FF66A9"/>
<stop offset="1" stop-color="#F53689"/>
</linearGradient>
</defs>
</svg>
