<svg width="48" height="40" viewBox="0 0 48 40" fill="none" xmlns="http://www.w3.org/2000/svg">
    <path
        d="M31.7413 23.239C31.7413 27.5077 28.2687 30.9803 24 30.9803C19.7313 30.9803 16.2601 27.5077 16.2601 23.239C16.2601 18.9703 19.7313 15.4978 24 15.4978C28.2687 15.4978 31.7413 18.9716 31.7413 23.239ZM48 12.2468V34.2339C48 37.165 45.6235 39.5415 42.6923 39.5415H5.30768C2.37651 39.5415 0 37.165 0 34.2339V12.2468C0 9.31564 2.37651 6.93913 5.30768 6.93913H11.8361V5.10267C11.8361 2.53773 13.9141 0.45845 16.4803 0.45845H31.5197C34.0859 0.45845 36.1639 2.53773 36.1639 5.10267V6.9378H42.6923C45.6235 6.93913 48 9.31564 48 12.2468ZM35.722 23.239C35.722 16.7756 30.4634 11.517 24 11.517C17.5379 11.517 12.2793 16.7756 12.2793 23.239C12.2793 29.7024 17.5379 34.961 24 34.961C30.4634 34.961 35.722 29.7024 35.722 23.239Z"
        fill="#D3E29F" />
</svg>