<svg width="119" height="201" viewBox="0 0 119 201" fill="none" xmlns="http://www.w3.org/2000/svg">
<path d="M54.5305 201C81.1697 201 102.765 198.446 102.765 195.295C102.765 192.144 81.1697 189.59 54.5305 189.59C27.8913 189.59 6.29597 192.144 6.29597 195.295C6.29597 198.446 27.8913 201 54.5305 201Z" fill="#D7E2FF"/>
<path d="M23.1406 175.78C23.1406 175.78 20.4977 178.066 17.6576 180.738C11.6294 178.867 7.8874 175.423 7.95452 170.959C7.96291 170.473 8.01746 169.982 8.12234 169.487C12.0783 165.548 17.4311 161.613 24.0005 158.018C19.6964 161.986 13.5255 168.187 13.9283 170.871C14.5407 174.974 23.1406 175.78 23.1406 175.78Z" fill="#FFECDB"/>
<path d="M70.8995 172.998C64.4391 187.018 48.4141 194.116 35.4095 194.871C32.066 195.064 26.6628 195.433 21.0708 195.236L24.4814 191.155C24.4814 191.155 10.6042 190.655 10.814 188.47C11.0237 186.28 23.139 175.78 23.139 175.78C23.139 175.78 14.5391 174.974 13.9267 170.876C13.5239 168.191 19.6907 161.991 23.999 158.022C35.3507 151.813 50.3312 146.624 68.0259 144.216C68.0217 144.216 79.9901 153.29 70.8995 172.998Z" fill="#FF942A"/>
<path d="M8.11721 169.491C8.01234 169.986 7.95779 170.477 7.9494 170.963C7.88228 175.427 11.6284 178.871 17.6525 180.742C14.4223 183.779 10.9237 187.307 10.8146 188.469C10.6049 190.659 24.4821 191.154 24.4821 191.154L21.0715 195.236C10.844 194.875 0.0375789 192.622 0.15504 183.934C0.209575 179.844 2.26514 175.192 8.11721 169.491Z" fill="#F2D0AD"/>
<path d="M70.8995 172.998C64.4391 187.018 48.4141 194.116 35.4095 194.871C32.066 195.064 26.6628 195.433 21.0708 195.236L24.4814 191.155C24.4814 191.155 10.6042 190.655 10.814 188.47C10.9272 187.303 14.4217 183.775 17.6519 180.742C22.9754 182.399 30.5306 184.342 37.5741 180.742C43.9464 177.487 45.4188 172.084 45.6076 167.302C45.8677 160.778 39.8352 150.987 39.8352 150.987C48.1708 148.004 57.6264 145.634 68.0133 144.216C68.0217 144.216 79.9901 153.29 70.8995 172.998Z" fill="#F07837"/>
<path d="M68.9534 174.634C68.9534 174.634 69.5113 186.909 73.5428 195.295H81.5763C81.5763 195.295 80.8128 187.769 76.5464 190.433C76.5464 190.433 72.5863 186.909 72.1081 174.395L68.9534 174.634Z" fill="#381706"/>
<path d="M86.2951 141.476C86.2951 141.476 97.8986 173.807 73.6681 175.783C70.7441 176.022 68.9486 174.634 68.9486 174.634C68.9486 174.634 74.8133 167.238 67.4174 155.505L86.2951 141.476Z" fill="#F07837"/>
<path d="M89.7823 136.51C87.8777 151.952 77.7551 157.93 77.7551 157.93C78.0068 140.713 63.2864 144.048 57.6147 129.793C54.6237 122.255 56.1674 110.673 58.2943 101.427C59.2508 97.2778 60.3163 93.6071 61.1427 90.9726H76.6057C77.86 93.0911 79.0094 95.1509 80.0582 97.1477C83.3093 103.34 85.6376 108.969 87.2191 114.083C90.0214 123.111 90.5164 130.528 89.7823 136.51Z" fill="#FFECDB"/>
<path d="M50.2077 173.803C50.2077 173.803 49.3477 188.628 50.9712 195.294H59.0047C59.0047 195.294 59.2312 187.202 56.1688 190.009C56.1688 190.009 53.1358 185.348 54.1552 174.399L50.2077 173.803Z" fill="#381706"/>
<path d="M77.7548 157.93C72.7795 174.19 59.2001 176.866 56.7125 176.866C54.2248 176.866 50.2102 173.804 50.2102 173.804C50.2102 173.804 52.4461 171.568 51.8714 167.238C50.8394 159.465 42.6969 157.321 41.7949 143.771C40.5616 125.338 48.6958 106.314 53.4487 96.9422C55.3533 93.1834 56.7167 90.9726 56.7167 90.9726H61.1466C60.3202 93.6029 59.2547 97.2778 58.2982 101.427C56.1713 110.673 54.6234 122.255 57.6186 129.794C63.2819 144.048 78.0065 140.709 77.7548 157.93Z" fill="#FF942A"/>
<path d="M80.0579 97.1477C74.4785 101.213 72.4356 108.957 68.7943 108.957C66.4618 108.957 62.1199 105.03 58.2941 101.427C56.465 99.6983 54.7577 98.0539 53.4446 96.9422C55.3492 93.1834 56.7125 90.9726 56.7125 90.9726H76.6096C77.8597 93.0911 79.0092 95.1509 80.0579 97.1477Z" fill="#F2DBC9"/>
<path d="M118.475 80.9249C118.475 80.9249 82.4728 86.0344 69.4052 105.038C69.4052 105.038 44.9188 83.3831 13.1582 88.0816C13.1582 88.0816 36.5749 58.2339 67.3035 75.6139C67.3035 75.6139 87.725 56.4594 118.475 80.9249Z" fill="#FFECDB"/>
<path d="M110.913 40.3802C99.2923 26.2471 85.4949 21.1459 77.7299 19.3169C88.6412 0.476979 114.608 -2.19945 118.048 1.33277C120.36 3.69457 117.545 26.3897 110.913 40.3802Z" fill="#FF942A"/>
<path d="M111.258 6.74108C114.433 9.0106 108.875 39.605 103.593 40.4524C98.3076 41.2998 87.6229 28.4378 87.9081 24.5364C88.1934 20.635 96.3569 21.1217 96.3569 21.1217L89.5442 17.5181L100.204 13.7887L94.5615 11.4186C94.5573 11.4186 107.486 4.04367 111.258 6.74108Z" fill="#F07837"/>
<path d="M110.913 40.3806C108.974 44.4791 106.697 47.831 104.138 49.7061C99.091 53.3852 88.6663 49.9662 80.0581 42.4697C76.228 39.1263 72.4902 30.4635 75.1121 25.0058C75.8337 22.967 76.7146 21.075 77.734 19.3173C85.4948 21.1463 99.2965 26.2517 110.913 40.3806Z" fill="#F07837"/>
<path d="M49.6627 20.3619C33.667 26.214 23.6702 35.5605 17.4616 45.314C11.5466 31.0718 12.4863 3.31747 15.4438 1.16961C19.0641 -1.46487 40.1316 4.05999 49.6627 20.3619Z" fill="#FF942A"/>
<path d="M21.2411 7.64629C17.7298 9.35367 18.0822 40.4431 23.1498 42.1631C28.2174 43.8872 40.9074 32.9969 41.2808 29.1039C41.6499 25.2109 33.5242 24.3216 33.5242 24.3216L40.8445 21.9094L30.961 16.4475L36.9221 15.0547C36.9221 15.0547 25.4109 5.62009 21.2411 7.64629Z" fill="#F07837"/>
<path d="M46.0037 48.0992C36.267 54.0519 25.4102 55.6754 21.06 51.1951C19.6504 49.7436 18.4507 47.73 17.4648 45.3178C23.6735 35.5644 33.6661 26.2178 49.6659 20.3657C51.604 23.6966 53.0681 27.4637 53.8106 31.7175C55.4844 37.5276 50.3413 45.4437 46.0037 48.0992Z" fill="#F07837"/>
<path d="M118.475 80.9242C89.9238 61.0943 67.3041 75.6133 67.3041 75.6133C36.932 63.0659 13.1588 88.0809 13.1588 88.0809C13.1588 88.0809 9.81954 38.2229 55.3944 22.1853C55.3944 22.1853 58.8931 17.0254 66.3896 12.587L61.8212 21.1281C62.0813 20.91 66.3141 17.4659 71.432 15.9095L70.0812 21.6064C70.0812 21.6064 108.739 23.2089 118.475 80.9242Z" fill="#FF942A"/>
<path d="M61.9607 69.8578C61.9607 69.8578 63.9156 39.3347 53.0211 36.7673C37.4743 33.1009 28.5473 61.1321 28.5473 61.1321C28.5473 61.1321 38.049 70.5668 61.9607 69.8578Z" fill="#F07837"/>
<path d="M71.6498 69.4472C71.6498 69.4472 66.385 39.3185 76.9356 35.5807C91.9915 30.2404 103.914 57.139 103.914 57.139C103.914 57.139 95.4944 67.551 71.6498 69.4472Z" fill="#F07837"/>
<path d="M63.7124 72.3417L70.3154 71.9977C71.4774 71.939 72.136 73.3149 71.3558 74.1791L68.2347 77.6484C67.7522 78.1854 66.9258 78.2315 66.3888 77.7491L62.9028 74.6196C62.0344 73.8435 62.5462 72.4046 63.7124 72.3417Z" fill="#381706"/>
<path d="M58.7434 69.1675C59.9306 58.617 56.6459 42.206 48.4152 42.3571C38.28 42.5416 31.2827 59.8629 32.172 62.6107C33.1578 65.6353 47.0183 69.7716 58.7434 69.1675Z" fill="white"/>
<path d="M56.5139 57.0553C56.1825 63.05 52.0462 67.6939 47.2764 67.4296C42.5025 67.1653 38.9031 62.0935 39.2345 56.103C39.5659 50.1083 43.7023 45.4644 48.472 45.7287C53.246 45.9888 56.8453 51.0606 56.5139 57.0553Z" fill="#381706"/>
<path d="M56.3892 69.6361C45.1843 69.6361 32.8005 65.8564 31.7895 62.7353C31.198 60.9062 33.4843 54.4501 37.0039 49.5167C39.4328 46.1145 43.3804 42.037 48.4186 41.9447C50.3987 41.9111 52.2109 42.7669 53.7841 44.4995C58.3273 49.4915 60.085 60.9859 59.1621 69.2166L59.1243 69.5648L58.7762 69.5816C57.9875 69.6193 57.1904 69.6361 56.3892 69.6361ZM48.5319 42.7669C48.4983 42.7669 48.4648 42.7669 48.4312 42.7669C43.7369 42.8508 39.9908 46.7438 37.6751 49.9949C33.9793 55.18 32.1587 61.1957 32.574 62.4836C33.4381 65.1432 46.6945 69.2753 58.3818 68.7761C59.1999 60.7594 57.5009 49.8062 53.1758 45.0532C51.7914 43.5346 50.2309 42.7669 48.5319 42.7669Z" fill="#381706"/>
<path d="M50.46 28.7892C50.46 29.8295 48.1234 30.6769 45.2456 30.6769C42.3636 30.6769 40.0312 29.8337 40.0312 28.7892C40.0312 27.7446 42.3678 26.9014 45.2456 26.9014C48.1234 26.9014 50.46 27.7488 50.46 28.7892Z" fill="#381706"/>
<path d="M52.7989 48.8288C52.9248 51.1277 51.6201 53.07 49.8918 53.1623C48.1634 53.2546 46.6616 51.4675 46.5358 49.1644C46.4099 46.8613 47.7146 44.9232 49.4429 44.8309C51.1713 44.7386 52.6731 46.5257 52.7989 48.8288Z" fill="white"/>
<path d="M74.3676 68.3312C73.1971 59.3371 73.0042 41.3655 81.1845 40.451C91.261 39.3268 100.398 55.5574 99.8692 58.4016C99.2861 61.5269 86.0759 67.4167 74.3676 68.3312Z" fill="white"/>
<path d="M76.4227 55.9686C77.5218 61.871 82.2244 65.9444 86.9229 65.0677C91.6213 64.1909 94.5369 58.6996 93.4378 52.7972C92.3387 46.8948 87.636 42.8214 82.9376 43.6981C78.2392 44.5749 75.3194 50.0662 76.4227 55.9686Z" fill="#381706"/>
<path d="M74.0086 68.7727L73.9582 68.3867C73.0437 61.36 72.6494 48.0072 76.9577 42.5118C78.0987 41.0603 79.5041 40.2297 81.1401 40.0451C86.1448 39.4829 90.5831 43.011 93.4232 46.0691C97.5343 50.4949 100.626 56.5903 100.274 58.4781C99.6276 61.9306 86.1364 67.8246 74.3987 68.7433L74.0086 68.7727ZM82.1973 40.8086C81.8784 40.8086 81.5554 40.8254 81.2282 40.8631C79.8229 41.0225 78.6021 41.744 77.6037 43.0193C73.5387 48.2002 73.8617 60.8986 74.7259 67.8917C86.3671 66.8765 98.9522 61.0748 99.464 58.3312C99.7116 57.0014 97.14 51.2794 92.8191 46.6313C90.2937 43.9129 86.4762 40.8086 82.1973 40.8086Z" fill="#381706"/>
<path d="M76.2032 27.2964C76.3375 28.3284 78.7622 28.8654 81.6191 28.4962C84.4759 28.1229 86.6825 26.986 86.5482 25.954C86.414 24.922 83.9892 24.3851 81.1324 24.7543C78.2756 25.1276 76.069 26.2645 76.2032 27.2964Z" fill="#381706"/>
<path d="M82.2881 47.3065C82.4601 49.6054 84.0038 51.3631 85.728 51.2289C87.4563 51.0988 88.7149 49.1314 88.5387 46.8325C88.3667 44.5336 86.8229 42.7759 85.0987 42.9101C83.3704 43.0402 82.1119 45.0076 82.2881 47.3065Z" fill="white"/>
<path d="M66.6236 85.3971C60.4946 85.3971 55.7333 83.4338 55.6577 83.4002L55.9975 82.599C56.115 82.6493 67.9576 87.524 78.1264 81.5964L78.5668 82.3473C74.5732 84.6713 70.3488 85.3971 66.6236 85.3971Z" fill="#381706"/>
<path d="M84.3743 123.161C84.9951 122.578 85.4104 121.877 85.4062 121.072C85.3811 118.534 81.6601 115.178 76.861 117.628C71.3864 120.421 63.7808 132.323 58.5706 129.957C58.4238 129.89 58.2895 129.81 58.1763 129.701C54.8538 126.987 54.7867 112.782 54.7867 112.782V103.218C48.5445 110.916 40.2047 133.359 58.4322 137.65C71.3361 140.688 76.9868 125.72 80.2254 125.044C79.7136 127.524 79.1263 130.129 78.6858 131.475C78.0398 133.443 78.5096 134.857 80.0953 135.079C85.4356 135.842 87.0675 135.163 89.6139 136.455C89.6768 136.472 89.7271 136.493 89.7817 136.509C91.5855 123.148 87.6716 124.948 84.3743 123.161Z" fill="#F2DBC9"/>
<path d="M54.974 133.736C53.5309 129.86 56.0563 127.385 57.6127 126.298C54.2902 123.584 56.3248 107.236 56.3248 107.236L56.4297 100.348C47.7459 109.283 44.7884 128.236 54.974 133.736Z" fill="#FF942A"/>
<path d="M84.0022 113.97C83.9771 111.432 80.6882 109.624 75.889 112.073C70.4145 114.867 63.2242 128.921 58.014 126.555C57.8672 126.488 57.7329 126.408 57.6197 126.299C56.0591 127.385 53.5379 129.86 54.981 133.737C55.7822 134.164 56.7009 134.487 57.7371 134.718C68.4009 137.08 76.0652 118.395 79.2912 117.946C81.1328 117.691 84.0232 116.231 84.0022 113.97Z" fill="#381706"/>
<path d="M88.0367 131.379L80.5695 129.055C79.0467 128.581 78.4175 126.966 79.16 125.452L88.0367 107.363C88.7792 105.844 90.6208 105.001 92.1436 105.475L99.6108 107.799C101.134 108.273 101.763 109.888 101.02 111.407L92.1436 129.496C91.3969 131.01 89.5595 131.853 88.0367 131.379Z" fill="#F04A4A"/>
<path d="M94.2605 114.707C93.7109 115.831 92.3518 116.457 91.2233 116.104C90.099 115.756 89.6292 114.56 90.1829 113.436C90.7325 112.312 92.0917 111.687 93.2201 112.039C94.3444 112.392 94.81 113.587 94.2605 114.707Z" fill="#F04A4A"/>
<path d="M92.1645 120.304C88.9762 121.755 91.1451 129.868 93.4398 130.506C95.7345 131.144 97.6474 130.124 97.3915 126.554C97.1356 122.984 93.5656 119.666 92.1645 120.304Z" fill="#381706"/>
</svg>
