<svg width="80" height="80" viewBox="0 0 80 80" fill="none" xmlns="http://www.w3.org/2000/svg">
<rect width="80" height="80" rx="40" fill="#ECF8E6"/>
<mask id="mask0_0_5174" style="mask-type:alpha" maskUnits="userSpaceOnUse" x="0" y="0" width="80" height="80">
<rect width="80" height="80" rx="40" fill="#ECF8E6"/>
</mask>
<g mask="url(#mask0_0_5174)">
<path d="M8.23614 32.1671C8.95359 31.934 9.34616 31.1638 9.11297 30.4467C8.87979 29.7296 8.10915 29.3372 7.3917 29.5703C6.67425 29.8034 6.28168 30.5736 6.51487 31.2907C6.74806 32.0078 7.5187 32.4002 8.23614 32.1671Z" fill="#EAEEF9"/>
<path d="M11.6487 28.5765C12.1366 28.418 12.4036 27.8943 12.245 27.4066C12.0864 26.919 11.5624 26.6522 11.0745 26.8107C10.5866 26.9692 10.3197 27.493 10.4783 27.9806C10.6368 28.4682 11.1609 28.735 11.6487 28.5765Z" fill="#EAEEF9"/>
<path d="M6.72169 42.8773C7.23469 42.8773 7.65056 42.4616 7.65056 41.9489C7.65056 41.4361 7.23469 41.0205 6.72169 41.0205C6.20869 41.0205 5.79282 41.4361 5.79282 41.9489C5.79282 42.4616 6.20869 42.8773 6.72169 42.8773Z" fill="url(#paint0_linear_0_5174)"/>
<path d="M69.9729 41.8528C70.3652 41.8528 70.6832 41.535 70.6832 41.1429C70.6832 40.7508 70.3652 40.4329 69.9729 40.4329C69.5806 40.4329 69.2626 40.7508 69.2626 41.1429C69.2626 41.535 69.5806 41.8528 69.9729 41.8528Z" fill="url(#paint1_linear_0_5174)"/>
<path d="M71.4649 33.6934C72.3114 32.9202 72.3706 31.6076 71.597 30.7615C70.8234 29.9154 69.5101 29.8563 68.6636 30.6295C67.8171 31.4027 67.758 32.7154 68.5316 33.5614C69.3051 34.4075 70.6184 34.4666 71.4649 33.6934Z" fill="#EAEEF9"/>
<path d="M42.073 18.3021H37.374V21.3604H42.073V18.3021Z" fill="#1C2532"/>
<path d="M42.073 18.3021H37.374V19.6128H42.073V18.3021Z" fill="#4E637D"/>
<path d="M24.2623 24.3936L21.7123 26.9422L23.5668 28.7958L26.1168 26.2471L24.2623 24.3936Z" fill="#1C2532"/>
<path d="M54.0802 26.0594L56.6301 28.6081L58.2915 26.9476L55.7415 24.3989L54.0802 26.0594Z" fill="#1C2532"/>
<path d="M40.1063 66.033C52.5994 66.033 62.7271 55.9104 62.7271 43.4236C62.7271 30.9367 52.5994 20.8141 40.1063 20.8141C27.6133 20.8141 17.4856 30.9367 17.4856 43.4236C17.4856 55.9104 27.6133 66.033 40.1063 66.033Z" fill="#2F3A48"/>
<path d="M20.1634 44.1196C19.617 44.1196 19.1799 43.6827 19.1799 43.1366C19.1799 43.0273 19.1799 42.9181 19.1799 42.8635C19.1799 32.3234 27.0479 23.4216 37.4841 22.1109C38.0305 22.0563 38.5222 22.4385 38.5768 22.9847C38.6315 23.5308 38.249 24.0223 37.7026 24.0769C28.25 25.2784 21.1469 33.361 21.1469 42.8635C21.1469 42.9727 21.1469 43.0273 21.1469 43.1366C21.1469 43.6827 20.7098 44.1196 20.1634 44.1196Z" fill="#41505F"/>
<path d="M40.1064 64.9548C37.8661 64.9548 35.6259 64.6271 33.5496 63.9172C33.0032 63.7533 32.73 63.2072 32.894 62.6611C33.0579 62.115 33.6043 61.8419 34.1507 62.0057C36.063 62.6611 38.0847 62.9341 40.1064 62.9341C49.559 62.9341 57.6456 55.8892 58.9023 46.4959C58.957 45.9497 59.4487 45.5675 59.9951 45.6221C60.5415 45.6767 60.924 46.1682 60.8693 46.7143C60.2137 51.684 57.7549 56.2715 53.9848 59.6574C50.16 63.098 45.2425 64.9548 40.1064 64.9548Z" fill="#1E252C"/>
<path d="M57.7553 43.4235C57.7553 43.6419 57.7553 43.8058 57.7553 44.0242C57.4275 53.4721 49.6687 61.0632 40.1068 61.0632C30.5449 61.0632 22.7861 53.4721 22.4583 44.0242C22.4583 43.8058 22.4583 43.6419 22.4583 43.4235C22.4583 33.921 29.9985 26.1114 39.4511 25.7838C39.6697 25.7838 39.8883 25.7838 40.1068 25.7838C49.778 25.7838 57.5914 33.5387 57.7553 43.0958C57.7553 43.205 57.7553 43.3143 57.7553 43.4235Z" fill="#B4BCCF"/>
<path d="M57.7553 44.0239C57.4275 53.4718 49.6687 61.0629 40.1068 61.0629C30.5449 61.0629 22.7861 53.4718 22.4583 44.0239C22.7861 34.576 30.5449 26.9849 40.1068 26.9849C49.6687 26.9302 57.4275 34.5213 57.7553 44.0239Z" fill="#BCD179"/>
<path d="M44.8047 54.6732H34.6964C34.2047 54.6732 33.8222 54.2909 33.8222 53.7994V48.7751C33.8222 48.2836 34.2047 47.9013 34.6964 47.9013H44.8047C45.2965 47.9013 45.6789 48.2836 45.6789 48.7751V53.7994C45.6789 54.2909 45.2965 54.6732 44.8047 54.6732Z" fill="#F2F5FC"/>
<path d="M55.4049 44.2974H52.509C52.0173 44.2974 51.6348 43.9151 51.6348 43.4236C51.6348 42.9321 52.0173 42.5498 52.509 42.5498H55.4049C55.8967 42.5498 56.2792 42.9321 56.2792 43.4236C56.2792 43.9151 55.842 44.2974 55.4049 44.2974Z" fill="#B4BCCF"/>
<path d="M26.8288 44.2974H23.9329C23.4412 44.2974 23.0587 43.9151 23.0587 43.4236C23.0587 42.9321 23.4412 42.5498 23.9329 42.5498H26.8288C27.3206 42.5498 27.703 42.9321 27.703 43.4236C27.703 43.9151 27.2659 44.2974 26.8288 44.2974Z" fill="#B4BCCF"/>
<path d="M39.6691 60.0802C39.1773 60.0802 38.7948 59.6979 38.7948 59.2064V56.312C38.7948 55.8205 39.1773 55.4382 39.6691 55.4382C40.1608 55.4382 40.5433 55.8205 40.5433 56.312V59.2064C40.4887 59.6979 40.1062 60.0802 39.6691 60.0802Z" fill="#B4BCCF"/>
<path d="M39.6691 31.5175C39.1773 31.5175 38.7948 31.1353 38.7948 30.6437V27.8039C38.7948 27.3124 39.1773 26.9301 39.6691 26.9301C40.1608 26.9301 40.5433 27.3124 40.5433 27.8039V30.6984C40.4887 31.1353 40.1062 31.5175 39.6691 31.5175Z" fill="#B4BCCF"/>
<path d="M39.8883 45.8261C41.367 45.8261 42.5657 44.628 42.5657 43.1501C42.5657 41.6722 41.367 40.4741 39.8883 40.4741C38.4097 40.4741 37.211 41.6722 37.211 43.1501C37.211 44.628 38.4097 45.8261 39.8883 45.8261Z" fill="#F2F5FC"/>
<path d="M51.2534 32.5552C50.9256 32.2822 50.4339 32.2822 50.1607 32.5552L40.708 42.4947C40.6534 42.4947 40.6534 42.4947 40.5988 42.4947C39.8885 42.4947 39.3421 43.0408 39.3421 43.7507C39.3421 43.8053 39.3421 43.86 39.3421 43.9146L37.8122 45.4983C37.539 45.826 37.539 46.3175 37.8122 46.5906C37.9761 46.7544 38.14 46.809 38.3585 46.809C38.5771 46.809 38.7957 46.7544 38.9049 46.5906L40.4348 45.0068C40.4895 45.0068 40.5441 45.0068 40.5441 45.0068C41.2544 45.0068 41.8008 44.4607 41.8008 43.7507C41.8008 43.6961 41.8008 43.6415 41.8008 43.5869L51.2534 33.7021C51.5813 33.3198 51.5813 32.8283 51.2534 32.5552Z" fill="#B4BCCF"/>
<path d="M50.5423 31.9548C50.2144 31.6818 49.7227 31.6818 49.4495 31.9548L39.9969 41.8942C39.9422 41.8942 39.9422 41.8942 39.8876 41.8942C39.1773 41.8942 38.6309 42.4404 38.6309 43.1503C38.6309 43.2049 38.6309 43.2596 38.6309 43.3142L37.101 44.8979C36.8278 45.2256 36.8278 45.7171 37.101 45.9902C37.2649 46.154 37.4288 46.2086 37.6474 46.2086C37.8659 46.2086 38.0845 46.154 38.1938 45.9902L39.7237 44.4064C39.7783 44.4064 39.8329 44.4064 39.8329 44.4064C40.5432 44.4064 41.0896 43.8603 41.0896 43.1503C41.0896 43.0957 41.0896 43.0411 41.0896 42.9865L50.5423 33.1017C50.8701 32.7194 50.8155 32.2279 50.5423 31.9548Z" fill="#EB358A"/>
<path d="M50.2148 32.2282L37.3746 45.6082C37.2653 45.6082 37.2653 45.6082 37.156 45.6082C37.0467 45.4443 37.1014 45.2259 37.2107 45.062L49.5592 32.119C49.7231 31.9551 49.9963 31.9551 50.1602 32.0643C50.2695 32.0643 50.2695 32.1736 50.2148 32.2282Z" fill="#FF4FA2"/>
<path d="M44.3136 13.9874V16.9365C44.3136 18.0834 43.3847 18.9572 42.2919 18.9572H37.2651C36.1177 18.9572 35.2434 18.0288 35.2434 16.9365V13.9874C35.2434 12.8406 36.1723 11.9668 37.2651 11.9668H42.2919C43.4393 11.9668 44.3136 12.8952 44.3136 13.9874Z" fill="#657687"/>
<path d="M44.3136 13.9874V16.9365C44.3136 18.0834 43.3847 18.9572 42.2919 18.9572H37.2651C36.1177 18.9572 35.2434 18.0288 35.2434 16.9365V16.3904C35.5713 17.8103 36.828 17.8103 36.828 17.8103H42.0187C42.729 17.8103 43.3301 17.2096 43.3301 16.4996V14.3697C43.3301 12.8952 43.0569 12.3491 42.2919 11.9668C43.4393 11.9668 44.3136 12.8952 44.3136 13.9874Z" fill="#556779"/>
<path d="M36.0085 17.2638C35.8446 17.2638 35.7353 17.1546 35.7353 16.9907V13.6048C35.7353 13.4409 35.8446 13.3317 36.0085 13.3317C36.1724 13.3317 36.2817 13.4409 36.2817 13.6048V16.9907C36.2271 17.1546 36.1178 17.2638 36.0085 17.2638Z" fill="#828C98"/>
<path d="M37.2657 17.2638C37.1018 17.2638 36.9925 17.1546 36.9925 16.9907V13.6048C36.9925 13.4409 37.1018 13.3317 37.2657 13.3317C37.4296 13.3317 37.5389 13.4409 37.5389 13.6048V16.9907C37.5389 17.1546 37.4296 17.2638 37.2657 17.2638Z" fill="#828C98"/>
<path d="M38.5761 17.2638C38.4122 17.2638 38.3029 17.1546 38.3029 16.9907V13.6048C38.3029 13.4409 38.4122 13.3317 38.5761 13.3317C38.7401 13.3317 38.8493 13.4409 38.8493 13.6048V16.9907C38.7947 17.1546 38.6854 17.2638 38.5761 17.2638Z" fill="#828C98"/>
<path d="M39.8329 17.2638C39.669 17.2638 39.5597 17.1546 39.5597 16.9907V13.6048C39.5597 13.4409 39.669 13.3317 39.8329 13.3317C39.9968 13.3317 40.1061 13.4409 40.1061 13.6048V16.9907C40.1061 17.1546 39.9968 17.2638 39.8329 17.2638Z" fill="#828C98"/>
<path d="M41.1445 17.2638C40.9806 17.2638 40.8713 17.1546 40.8713 16.9907V13.6048C40.8713 13.4409 40.9806 13.3317 41.1445 13.3317C41.3084 13.3317 41.4177 13.4409 41.4177 13.6048V16.9907C41.3631 17.1546 41.2538 17.2638 41.1445 17.2638Z" fill="#828C98"/>
<path d="M42.4013 17.2638C42.2374 17.2638 42.1281 17.1546 42.1281 16.9907V13.6048C42.1281 13.4409 42.2374 13.3317 42.4013 13.3317C42.5652 13.3317 42.6745 13.4409 42.6745 13.6048V16.9907C42.6745 17.1546 42.5106 17.2638 42.4013 17.2638Z" fill="#828C98"/>
<path opacity="0.7" d="M43.6581 17.2638C43.4941 17.2638 43.3849 17.1546 43.3849 16.9907V13.6048C43.3849 13.4409 43.4941 13.3317 43.6581 13.3317C43.822 13.3317 43.9313 13.4409 43.9313 13.6048V16.9907C43.9313 17.1546 43.822 17.2638 43.6581 17.2638Z" fill="#828C98"/>
<path d="M24.7525 24.6368L22.0205 27.3675C21.4195 27.9682 20.436 27.9682 19.7803 27.3675L18.1958 25.7837C17.5947 25.183 17.5947 24.1999 18.1958 23.5446L20.9277 20.814C21.5288 20.2133 22.5123 20.2133 23.168 20.814L24.7525 22.3977C25.3535 23.0531 25.3535 24.0361 24.7525 24.6368Z" fill="#657687"/>
<path d="M55.2411 24.6368L57.9731 27.3675C58.5741 27.9682 59.5576 27.9682 60.2133 27.3675L61.7979 25.7837C62.3989 25.183 62.3989 24.1999 61.7979 23.5446L59.0659 20.814C58.4649 20.2133 57.4814 20.2133 56.8257 20.814L55.2411 22.3977C54.6401 23.0531 54.6401 24.0361 55.2411 24.6368Z" fill="url(#paint2_linear_0_5174)"/>
<path d="M39.8875 43.3688C40.0082 43.3688 40.1061 43.271 40.1061 43.1503C40.1061 43.0296 40.0082 42.9317 39.8875 42.9317C39.7668 42.9317 39.669 43.0296 39.669 43.1503C39.669 43.271 39.7668 43.3688 39.8875 43.3688Z" fill="#657687"/>
<path opacity="0.6" d="M57.7552 43.1499H39.5056V25.7832C39.7241 25.7832 39.9427 25.7832 40.1613 25.7832C49.7778 25.7832 57.5912 33.5381 57.7552 43.1499Z" fill="url(#paint3_linear_0_5174)"/>
<g filter="url(#filter0_b_0_5174)">
<rect width="80" height="80" rx="40" fill="white" fill-opacity="0.6"/>
</g>
</g>
<defs>
<filter id="filter0_b_0_5174" x="-6" y="-6" width="92" height="92" filterUnits="userSpaceOnUse" color-interpolation-filters="sRGB">
<feFlood flood-opacity="0" result="BackgroundImageFix"/>
<feGaussianBlur in="BackgroundImage" stdDeviation="3"/>
<feComposite in2="SourceAlpha" operator="in" result="effect1_backgroundBlur_0_5174"/>
<feBlend mode="normal" in="SourceGraphic" in2="effect1_backgroundBlur_0_5174" result="shape"/>
</filter>
<linearGradient id="paint0_linear_0_5174" x1="5.79282" y1="41.954" x2="7.59887" y2="41.954" gradientUnits="userSpaceOnUse">
<stop stop-color="#83A6FF"/>
<stop offset="1" stop-color="#5A78FF"/>
</linearGradient>
<linearGradient id="paint1_linear_0_5174" x1="69.2607" y1="41.1529" x2="70.6711" y2="41.1529" gradientUnits="userSpaceOnUse">
<stop stop-color="#FF66A9"/>
<stop offset="1" stop-color="#F53689"/>
</linearGradient>
<linearGradient id="paint2_linear_0_5174" x1="54.785" y1="24.0893" x2="62.2542" y2="24.0893" gradientUnits="userSpaceOnUse">
<stop stop-color="#FF66A9"/>
<stop offset="1" stop-color="#F53689"/>
</linearGradient>
<linearGradient id="paint3_linear_0_5174" x1="38.2419" y1="29.2527" x2="54.547" y2="45.5658" gradientUnits="userSpaceOnUse">
<stop stop-color="#EF4896"/>
<stop offset="1" stop-color="#F14D9A" stop-opacity="0"/>
</linearGradient>
</defs>
</svg>
