<svg width="16" height="16" viewBox="0 0 16 16" fill="none" xmlns="http://www.w3.org/2000/svg">
<path fill-rule="evenodd" clip-rule="evenodd" d="M12.1684 7.75754C11.9878 8.52526 11.5731 9.1956 11.0047 9.6929L11.618 12.1748C11.9266 13.4232 10.6404 14.3831 9.55965 13.8486L8.40441 13.2773C8.15 13.1515 7.84999 13.1515 7.59558 13.2773L6.44035 13.8486C5.35962 14.3831 4.07344 13.4232 4.38197 12.1748L4.99529 9.6929C4.42695 9.1956 4.01216 8.52526 3.83159 7.75754C3.61169 6.8226 3.61169 5.8494 3.83159 4.91446C4.15435 3.54217 5.22548 2.48102 6.58427 2.16314C7.51551 1.94529 8.48449 1.94529 9.41573 2.16314C10.7745 2.48102 11.8456 3.54217 12.1684 4.91446C12.3883 5.8494 12.3883 6.8226 12.1684 7.75754ZM9.41572 10.5089C9.45819 10.4989 9.50037 10.4883 9.54225 10.4769C9.77506 10.4137 9.99868 10.3285 10.2107 10.2236L10.7492 12.4024C10.8523 12.8196 10.4081 13.2441 9.94778 13.0164L8.79255 12.4451C8.2928 12.1979 7.7072 12.1979 7.20745 12.4451L6.05221 13.0164C5.59187 13.2441 5.14773 12.8196 5.25083 12.4024L5.78926 10.2236C5.98881 10.3223 6.1986 10.4036 6.41665 10.4655C6.472 10.4812 6.52789 10.4957 6.58427 10.5089C7.51551 10.7267 8.48449 10.7267 9.41572 10.5089Z" fill="white"/>
</svg>
