<svg width="58" height="50" viewBox="0 0 58 50" fill="none" xmlns="http://www.w3.org/2000/svg">
<path d="M24.5263 0C11.2108 0 0.405792 10.8958 0.405792 24.3236C0.405792 37.7515 11.2108 48.6473 24.5263 48.6473C37.8423 48.6473 48.6473 37.7515 48.6473 24.3236C48.6473 10.8958 37.8423 0 24.5263 0ZM24.5263 31.9454C20.3463 31.9454 16.9682 28.5389 16.9682 24.3236C16.9682 20.1084 20.3463 16.7018 24.5263 16.7018C28.7063 16.7018 32.0849 20.1084 32.0849 24.3236C32.0849 28.5389 28.7063 31.9454 24.5263 31.9454Z" fill="#F2AA67"/>
<path d="M46.518 18.4252C45.1903 17.2455 43.2448 16.5429 42.6927 14.8459C42.3773 13.8653 42.6534 12.7914 42.5743 11.7706C42.443 9.8089 41.1023 8.15207 39.6826 6.81346C37.5665 4.825 34.9638 3.15477 32.0718 3.00883C28.6409 2.83654 24.934 4.77189 21.9239 3.10167C21.4245 2.82357 20.9774 2.46559 20.4649 2.25357C19.8735 2.00141 19.2163 1.94873 18.5721 1.94873C15.7984 1.9617 13.0511 2.94275 10.8559 4.6527C9.43619 5.75294 8.45067 7.22412 7.47772 8.70867C7.39908 8.82826 7.32002 8.94745 7.24097 9.08002C6.51815 10.2066 5.68993 11.2805 4.78307 12.2879C3.95485 13.2025 2.96893 13.9845 2.21976 14.9655C1.19452 16.3438 0.668722 18.0538 0.366298 19.7374C0.0902248 21.3148 -0.277873 23.356 0.326975 24.8802C0.879122 26.2853 2.23314 27.2133 2.70623 28.6581C3.5081 31.084 2.67988 33.6688 3.04798 36.1607C3.27135 37.6189 3.8762 39.0901 5.01981 40.0047C6.7549 41.3834 9.19983 41.1978 11.3687 41.5954C13.7873 42.0329 16.0482 43.2791 17.7176 45.0948C18.2304 45.6514 18.6905 46.2615 19.295 46.6989C19.9785 47.1891 20.8067 47.4278 21.6479 47.5604C23.8167 47.8916 26.104 47.4939 28.0365 46.4338C29.6532 45.5456 31.0465 44.22 32.808 43.6763C34.5167 43.1465 36.3965 43.438 38.1316 42.9872C40.2741 42.4305 41.9962 40.7737 43.0742 38.825C44.1387 36.8767 44.6252 34.6628 44.9276 32.4494C45.0853 31.3224 45.2033 30.1824 45.6241 29.1352C46.2549 27.5579 47.5039 26.2987 48.0824 24.708C48.8709 22.574 48.2267 19.9494 46.518 18.4252ZM32.3742 28.3533C31.0858 29.0295 30.6521 30.2622 29.9293 31.4419C28.9563 33.0323 26.9715 33.8013 25.118 33.7219C23.2646 33.6554 21.5031 32.8734 19.8735 31.9722C19.1109 31.5478 18.3484 31.0974 17.7309 30.4743C17.1131 29.8512 16.6267 29.0558 16.5212 28.181C16.3769 27.0013 16.9291 25.7818 16.5476 24.6552C16.1009 23.3162 15.5224 22.4945 16.0745 21.0229C16.2849 20.4663 16.4163 20.0686 16.3372 19.4853C16.2849 19.0349 16.1009 18.5841 16.2849 18.1333C16.5873 17.4441 17.4808 17.3513 18.1907 17.179C19.676 16.821 20.3336 15.8136 21.3718 14.8593C22.397 13.9314 24.0928 14.488 25.1971 15.0316C25.9856 15.4159 26.6825 15.9859 27.3659 16.5429C29.1537 17.9877 31.2569 19.1804 32.6632 21.0363C33.3204 21.8978 33.5965 23.0248 33.6362 24.1116C33.6885 25.6095 33.8725 27.5449 32.3742 28.3533Z" fill="#AA95FF"/>
<path d="M42.4693 16.3836C41.1813 15.5485 39.4199 15.2173 38.736 13.8256C38.3419 13.0302 38.434 12.0759 38.2365 11.2006C37.8684 9.55714 36.5014 8.31096 35.1081 7.35666C33.0447 5.9386 30.5864 4.86471 28.1021 5.11646C25.1443 5.42131 22.2263 7.58208 19.4263 6.54833C18.9665 6.37603 18.5328 6.12386 18.0593 6.01805C17.5205 5.88549 16.942 5.92523 16.4032 6.00469C14.024 6.37603 11.8154 7.59545 10.1594 9.34513C9.08141 10.4851 8.43725 11.8634 7.80646 13.2685C7.75375 13.3881 7.70105 13.4939 7.64875 13.6131C7.16228 14.687 6.59716 15.7078 5.95299 16.6884C5.37449 17.5766 4.62533 18.3854 4.11251 19.3263C3.41604 20.6386 3.19266 22.1763 3.15294 23.6608C3.11361 25.0525 3.07428 26.8423 3.7971 28.0747C4.45425 29.2017 5.74259 29.8248 6.33406 30.9911C7.33335 32.9662 6.96526 35.2859 7.60903 37.3668C7.9905 38.5866 8.70034 39.7663 9.80423 40.4024C11.4736 41.3567 13.5375 40.8795 15.4437 40.9193C17.5598 40.9724 19.663 41.7414 21.3324 43.0666C21.8452 43.4777 22.3183 43.9285 22.8968 44.22C23.5406 44.5516 24.2902 44.644 25.013 44.644C26.9192 44.644 28.8119 43.9945 30.3366 42.8416C31.5986 41.8739 32.6239 40.5483 34.0565 39.8458C35.4499 39.1696 37.0929 39.1696 38.5126 38.5469C40.2741 37.7912 41.536 36.1344 42.1932 34.3316C42.8503 32.5288 42.9687 30.5671 42.9424 28.6318C42.9294 27.6507 42.8767 26.6567 43.1005 25.7024C43.4288 24.2705 44.3357 23.0247 44.6251 21.5929C45.0196 19.6178 44.1257 17.4704 42.4693 16.3836ZM32.3741 28.3533C31.0858 29.0294 30.652 30.2622 29.9292 31.4419C28.9563 33.0323 26.9715 33.8013 25.118 33.7219C23.2645 33.6554 21.5035 32.8734 19.8734 31.9722C19.1109 31.5478 18.3487 31.0974 17.7309 30.4743C17.1131 29.8512 16.6266 29.0558 16.5212 28.181C16.3769 27.0013 16.929 25.7818 16.5476 24.6552C16.1008 23.3162 15.5223 22.4945 16.0745 21.0229C16.2849 20.4663 16.4162 20.0686 16.3376 19.4853C16.2849 19.0349 16.1008 18.5841 16.2849 18.1333C16.5873 17.4441 17.4812 17.3513 18.1906 17.179C19.676 16.821 20.3335 15.8136 21.3718 14.8593C22.397 13.9314 24.0927 14.488 25.197 15.0316C25.9855 15.4159 26.6824 15.9859 27.3659 16.5429C29.1537 17.9877 31.2569 19.1804 32.6632 21.0363C33.3203 21.8978 33.5964 23.0247 33.6361 24.1116C33.6884 25.6095 33.8725 27.5449 32.3741 28.3533Z" fill="white" fill-opacity="0.32"/>
<path d="M35.0426 21.1555C33.4786 18.6635 30.9546 16.9272 28.8778 14.9124C28.0759 14.1304 27.274 13.3484 26.3145 12.7784C24.9868 11.9697 22.9229 11.0814 21.5296 12.1286C20.1103 13.2025 19.1637 14.4085 17.2709 14.6736C16.3507 14.8062 15.2071 14.833 14.7603 15.6547C14.4579 16.1979 14.6419 16.7813 14.6683 17.3513C14.6942 18.0935 14.4842 18.5841 14.1684 19.2603C13.3143 21.0497 13.9451 22.1499 14.3659 23.8862C14.7076 25.3444 13.8928 26.8156 13.9321 28.3135C13.9714 29.4271 14.4842 30.4743 15.1941 31.3224C15.9039 32.1709 16.8108 32.8337 17.7177 33.4434C19.6632 34.7556 21.7927 35.9353 24.1063 36.2402C26.4328 36.545 29.0091 35.8162 30.4024 33.9205C31.4277 32.5288 32.1246 31.0309 33.8069 30.315C35.7788 29.4799 35.7654 27.0276 35.8838 25.119C36.0022 23.7403 35.7788 22.3222 35.0426 21.1555ZM32.3743 28.3533C31.0859 29.0295 30.6522 30.2622 29.9294 31.4419C28.9564 33.0323 26.9716 33.8013 25.1181 33.7219C23.2647 33.6554 21.5036 32.8734 19.8736 31.9722C19.111 31.5478 18.3489 31.0974 17.731 30.4743C17.1132 29.8512 16.6268 29.0558 16.5218 28.181C16.377 27.0013 16.9292 25.7818 16.5477 24.6553C16.101 23.3162 15.5225 22.4945 16.0746 21.0229C16.285 20.4663 16.4164 20.0686 16.3377 19.4853C16.285 19.0349 16.101 18.5841 16.285 18.1333C16.5874 17.4441 17.4813 17.3513 18.1908 17.179C19.6761 16.821 20.3337 15.8136 21.3719 14.8593C22.3971 13.9314 24.0929 14.488 25.1972 15.0316C25.9857 15.4159 26.6826 15.9859 27.366 16.5429C29.1538 17.9877 31.257 19.1804 32.6633 21.0363C33.3205 21.8978 33.5966 23.0248 33.6363 24.1116C33.6886 25.6096 33.8726 27.5449 32.3743 28.3533Z" fill="#AA95FF"/>
<path d="M44.0204 21.3809C43.902 21.3809 43.784 21.3411 43.705 21.2483L41.6411 19.2335C41.4571 19.0612 41.4571 18.7563 41.6281 18.5841C41.7988 18.3984 42.1012 18.3984 42.2723 18.5707L44.3358 20.5855C44.5198 20.7578 44.5198 21.0626 44.3492 21.2353C44.2571 21.3411 44.1388 21.3809 44.0204 21.3809Z" fill="#F0F4F3"/>
<path d="M12.8932 7.5026C16.0743 6.87951 19.2947 6.45547 22.5415 6.19034C23.3564 6.12386 24.1582 6.07116 24.9735 6.01806C25.7883 5.96495 26.6032 5.93861 27.4184 5.91186C29.0481 5.85875 30.6782 5.87213 32.2949 5.88551L33.5176 5.89847C33.925 5.91185 34.3458 5.91184 34.7662 5.95157C35.6074 6.00468 36.5013 6.11089 37.3822 6.40237C37.8289 6.54831 38.2627 6.73359 38.6835 6.98574C38.8939 7.11831 39.0909 7.2375 39.3013 7.40979C39.5113 7.58208 39.6954 7.75435 39.8665 7.9534C40.0371 8.15204 40.1952 8.36409 40.3395 8.60286C40.4052 8.72205 40.4709 8.84123 40.537 8.96082C40.5893 9.09339 40.642 9.21256 40.6947 9.3585C40.8787 9.88835 40.9444 10.5115 40.7997 11.1345C40.6683 11.7576 40.3396 12.2879 39.9585 12.6985C39.5774 13.1096 39.1173 13.4145 38.6438 13.6399C38.1841 13.8653 37.7106 13.9845 37.2638 14.0907C36.8167 14.1831 36.3963 14.2496 36.0018 14.3027L35.384 14.3955L34.7662 14.475C34.3588 14.5281 33.9513 14.5678 33.5439 14.6075C32.7287 14.687 31.9005 14.7531 31.0856 14.7932C30.2708 14.8459 29.4426 14.8727 28.6277 14.899C27.8125 14.9124 26.9976 14.9258 26.1694 14.9124C24.5397 14.9124 22.9096 14.8459 21.2929 14.7665C19.6758 14.687 18.0725 14.5942 16.4951 14.5678C14.9177 14.5411 13.3403 14.5808 11.8152 14.7799C10.2776 14.9655 8.77881 15.3365 7.34615 15.9064C7.29345 15.9198 7.25412 15.9462 7.2148 15.9595L7.09643 16.0126C7.01738 16.0524 6.93872 16.0787 6.85967 16.1185C6.70197 16.1979 6.55726 16.2907 6.42591 16.3706C6.14984 16.5559 5.90011 16.7813 5.74241 17.0067C5.66336 17.1259 5.61106 17.2321 5.55836 17.3512L5.53201 17.4307L5.51904 17.4704V17.5106C5.51904 17.5369 5.50566 17.5633 5.50566 17.59C5.50566 17.6164 5.50566 17.6431 5.50566 17.6829V17.7226C5.50566 17.7356 5.50566 17.749 5.50566 17.7623C5.50566 17.7887 5.50567 17.8284 5.51904 17.8552C5.53202 17.9079 5.54538 17.9744 5.57174 18.0275C5.61106 18.1333 5.67674 18.2529 5.76877 18.3453C5.95282 18.5577 6.22888 18.743 6.53131 18.8889C6.689 18.9554 6.84671 19.0215 7.03076 19.088C7.20143 19.1407 7.39886 19.1938 7.58291 19.2469C8.34505 19.4455 9.13394 19.6178 9.90946 19.7771C10.6979 19.936 11.4868 20.0686 12.2753 20.1748C13.0642 20.294 13.8661 20.3869 14.668 20.4797L14.6546 20.8377C13.8398 20.864 13.0245 20.8506 12.2097 20.8377C11.3948 20.8109 10.5796 20.7578 9.76473 20.6917C8.94989 20.6122 8.13464 20.506 7.3198 20.3735C7.12278 20.3337 6.92535 20.3074 6.68901 20.2543C6.46523 20.2012 6.25523 20.1351 6.03145 20.0552C5.59768 19.8963 5.16391 19.6709 4.76987 19.2866C4.38839 18.9153 4.08638 18.3587 4.03368 17.7887L4.02029 17.5767C4.02029 17.5106 4.0203 17.4307 4.03368 17.3646L4.04665 17.2584L4.06003 17.1526C4.073 17.0861 4.08638 17.0067 4.09935 16.9406C4.178 16.6621 4.2834 16.397 4.42813 16.1716C4.46745 16.1055 4.4938 16.0658 4.53312 15.9993C4.57245 15.9462 4.61217 15.8931 4.6515 15.8404C4.73014 15.7475 4.80919 15.6413 4.90122 15.5485C5.07189 15.3632 5.25594 15.2039 5.43999 15.0579C5.62404 14.9124 5.82147 14.7799 6.01849 14.6607C6.12349 14.5942 6.21551 14.5411 6.32091 14.488C6.42591 14.4353 6.53131 14.3821 6.62334 14.3424C7.01738 14.1701 7.39885 13.9845 7.79289 13.8519C7.99032 13.7724 8.18735 13.693 8.38437 13.6265L8.98922 13.4279C9.18624 13.3614 9.39664 13.3083 9.59407 13.2556C9.80406 13.2025 10.0015 13.1494 10.2115 13.0962C10.6193 13.0034 11.0397 12.9106 11.4471 12.8445C13.1036 12.5396 14.773 12.4602 16.416 12.4334C18.0591 12.4204 19.6892 12.4732 21.3059 12.5263C22.9096 12.5794 24.5134 12.6057 26.1171 12.6191C27.7204 12.6191 29.3112 12.5927 30.8886 12.4999C32.479 12.4204 34.0563 12.2745 35.6208 12.0759C36.4226 11.9696 37.1325 11.8634 37.6713 11.6251C37.9339 11.5059 38.1707 11.3599 38.3418 11.1876C38.5124 11.0154 38.6308 10.8297 38.6701 10.644C38.7099 10.4583 38.7099 10.2463 38.6438 10.008C38.6308 9.95485 38.6045 9.88835 38.5781 9.83565C38.5518 9.78254 38.5258 9.71605 38.4861 9.64997C38.4204 9.53079 38.3418 9.41121 38.2497 9.3054C38.1577 9.19919 38.0523 9.09337 37.9603 9.00054C37.8553 8.92108 37.7239 8.81487 37.5792 8.73541C37.3031 8.56312 37.0007 8.41719 36.6724 8.298C35.384 7.82085 33.7936 7.7941 32.1636 7.70127C30.5598 7.60843 28.9561 7.52896 27.3524 7.47586C26.9583 7.46288 26.5509 7.4495 26.1564 7.4495C25.749 7.43613 25.3546 7.43612 24.9471 7.43612C24.1453 7.43612 23.3434 7.43612 22.5415 7.43612C19.3211 7.46287 16.1136 7.62181 12.8932 7.86059V7.5026Z" fill="white"/>
<path d="M31.3488 21.8053C32.3477 21.5799 33.3466 21.3809 34.3718 21.2483C35.3971 21.1158 36.4357 21.0229 37.4873 21.0497C38.5389 21.076 39.6168 21.1952 40.6814 21.5268L41.0758 21.6594C41.2072 21.7125 41.3389 21.7522 41.4703 21.8053L41.8513 21.9776C41.917 22.004 41.9827 22.0303 42.0484 22.07L42.2324 22.1763L42.6005 22.3883C42.6268 22.4017 42.6662 22.415 42.6925 22.4414L42.7979 22.5075C42.8636 22.5476 42.9293 22.6137 42.9949 22.6534C43.258 22.8654 43.4944 23.1306 43.6918 23.4622C43.8759 23.7934 44.0072 24.1911 44.0072 24.6022C44.0072 24.8008 43.9809 24.9998 43.9545 25.1851L43.9152 25.3177C43.9018 25.3574 43.8888 25.4105 43.8759 25.4502L43.7968 25.6756C43.6918 25.9675 43.5337 26.259 43.3501 26.5241C43.258 26.6567 43.1526 26.7759 43.0476 26.895C42.9293 27.0146 42.8243 27.1338 42.7059 27.2267C42.2324 27.6373 41.6807 27.9292 41.1415 28.1149C40.5893 28.3001 40.0506 28.4197 39.4984 28.4724C38.4205 28.592 37.3689 28.5389 36.3307 28.4197C35.3054 28.3002 34.3061 28.1015 33.3072 27.9158L33.3202 27.5579C33.833 27.5048 34.3459 27.465 34.8583 27.4521C35.3711 27.4253 35.8705 27.4123 36.37 27.3856C37.3689 27.3325 38.3548 27.253 39.2751 27.0544C39.7352 26.9481 40.1819 26.829 40.5764 26.6567C40.9838 26.4844 41.3255 26.259 41.6146 25.9939C41.6936 25.9274 41.7463 25.8613 41.812 25.7818C41.8777 25.7154 41.9304 25.6359 41.9827 25.5564C42.0747 25.3975 42.1667 25.2382 42.2324 25.0525L42.2851 24.92C42.2985 24.8936 42.2985 24.8802 42.2985 24.8673L42.3114 24.8142C42.3244 24.7477 42.3378 24.695 42.3244 24.6419C42.3244 24.5357 42.2985 24.4299 42.2324 24.3236C42.1667 24.2045 42.0617 24.0853 41.9304 23.979C41.8906 23.9527 41.8647 23.9259 41.825 23.8996L41.7727 23.8599C41.7593 23.8465 41.7329 23.8331 41.7066 23.8201L41.4176 23.6474C41.0365 23.4091 40.6157 23.2368 40.1819 23.0645C39.3144 22.7462 38.3682 22.5606 37.4082 22.4414C36.4357 22.3222 35.4498 22.2825 34.4509 22.2557C33.452 22.2294 32.4263 22.2294 31.4011 22.1896L31.3488 21.8053Z" fill="white"/>
<path d="M15.1674 29.2147C14.484 29.2147 13.8005 29.2147 13.1299 29.2549C12.4594 29.2812 11.7893 29.3473 11.1188 29.4535C10.4616 29.5597 9.81746 29.7052 9.18626 29.9173C8.56844 30.1297 7.964 30.3948 7.39888 30.7127C7.33321 30.7524 7.25415 30.7921 7.18848 30.8322L6.97809 30.9648L6.76768 31.0974C6.70201 31.1371 6.63633 31.1768 6.58363 31.2295C6.34728 31.4022 6.14986 31.6009 6.01852 31.8129C5.95284 31.9191 5.90014 32.0249 5.87379 32.1311C5.84744 32.2373 5.82149 32.3431 5.83446 32.436C5.83446 32.4623 5.83446 32.4757 5.83446 32.5021C5.83446 32.5288 5.83447 32.5422 5.84744 32.5686C5.86082 32.5819 5.86082 32.6083 5.87379 32.6217C5.87379 32.6346 5.88717 32.6614 5.90014 32.6748C5.91352 32.6877 5.91351 32.7145 5.92648 32.7275C5.93946 32.7408 5.95284 32.7672 5.96581 32.7806C5.99216 32.8203 6.03148 32.847 6.05783 32.8868C6.20256 33.0323 6.43932 33.1649 6.70201 33.2711C6.83336 33.3242 6.96512 33.3639 7.10944 33.417C7.17511 33.43 7.25415 33.4568 7.31983 33.4697C7.39888 33.4831 7.46455 33.4965 7.5432 33.5095C8.18737 33.6291 8.83155 33.7085 9.48869 33.7616C10.8034 33.8545 12.144 33.8147 13.511 33.7616C14.878 33.7085 16.2454 33.6554 17.6124 33.6023C18.9794 33.5496 20.3464 33.5095 21.7267 33.4697C23.0937 33.43 24.4607 33.3903 25.8411 33.3639C27.2081 33.3242 28.575 33.2974 29.9554 33.2711C31.3354 33.2447 32.7287 33.2314 34.1484 33.3372C34.5035 33.3639 34.8582 33.4037 35.2134 33.4568C35.5681 33.5095 35.9362 33.576 36.3173 33.6688C36.6987 33.7616 37.0798 33.8942 37.4479 34.0928C37.5399 34.1325 37.6319 34.1857 37.724 34.2388C37.816 34.2919 37.908 34.358 38 34.4111C38.1707 34.5436 38.3418 34.6762 38.4995 34.8351C38.8019 35.1533 39.0646 35.5243 39.2357 35.9621C39.3143 36.1741 39.38 36.4125 39.4197 36.6513C39.4457 36.8896 39.4457 37.1284 39.4197 37.3668C39.3537 37.831 39.183 38.2684 38.9596 38.6264C38.7358 38.9973 38.4731 39.3021 38.1971 39.5807C37.921 39.8592 37.6056 40.0975 37.3032 40.2966C37.0008 40.5086 36.6987 40.6943 36.3829 40.8795C35.7521 41.2375 35.0816 41.529 34.4115 41.7811C33.741 42.0195 33.0445 42.2185 32.3606 42.3641C31.6642 42.51 30.9806 42.6292 30.2838 42.7091C27.5105 43.0403 24.7761 42.9872 22.0685 43.3054L22.0028 42.9474C23.3564 42.6292 24.7238 42.4439 26.0774 42.2583L28.1149 41.9931C28.7854 41.9003 29.456 41.7941 30.1261 41.6749C31.4537 41.4232 32.7421 41.1049 33.9514 40.5881C34.5558 40.3363 35.1343 40.0314 35.6865 39.6869C35.9625 39.5142 36.2252 39.3289 36.4883 39.1432C36.7381 38.9575 36.9748 38.7589 37.1718 38.5469C37.3688 38.3345 37.5529 38.1095 37.6842 37.8707C37.816 37.6453 37.8817 37.4069 37.908 37.1945C37.921 36.9695 37.8946 36.7705 37.8026 36.5718C37.7106 36.3728 37.5663 36.1741 37.3822 36.0018C37.2902 35.922 37.1848 35.8295 37.0798 35.763C37.0271 35.7233 36.9748 35.697 36.9221 35.6568C36.8694 35.6305 36.8037 35.5907 36.7381 35.5644C36.4883 35.4448 36.2252 35.3654 35.9362 35.2993C35.6471 35.2328 35.3313 35.1931 35.0159 35.1533C34.6876 35.1136 34.3588 35.0869 34.03 35.0739C32.7157 34.9944 31.3751 35.0342 30.0077 35.0739C28.6407 35.127 27.2737 35.1667 25.8934 35.2064C24.5264 35.2462 23.1594 35.2859 21.779 35.3256C20.412 35.3654 19.045 35.3921 17.6647 35.4185C16.2977 35.4448 14.9307 35.4716 13.5503 35.4845C12.1704 35.4979 10.7637 35.4979 9.35734 35.339C8.64749 35.2596 7.93765 35.14 7.24118 34.981C7.16213 34.9677 7.05713 34.9413 6.96511 34.9146C6.87308 34.8882 6.78106 34.8618 6.68904 34.8351C6.50499 34.769 6.32094 34.7025 6.13689 34.6097C6.04486 34.57 5.95284 34.5169 5.86082 34.4642C5.76879 34.4111 5.67677 34.358 5.58474 34.2919C5.49272 34.2388 5.40069 34.1593 5.32204 34.0928C5.23002 34.0134 5.15098 33.9339 5.07193 33.8545C4.99328 33.7616 4.91422 33.6688 4.84854 33.5626C4.80922 33.5095 4.78287 33.4568 4.75652 33.3903C4.73017 33.3242 4.70423 33.2711 4.67788 33.2046C4.65153 33.1385 4.63815 33.0854 4.61221 33.0194C4.59883 32.9529 4.58585 32.8868 4.57247 32.8203C4.5595 32.7542 4.5595 32.6877 4.5595 32.6217C4.5595 32.5552 4.54613 32.4891 4.5595 32.4226C4.57248 32.3034 4.57248 32.1709 4.61221 32.0517C4.63815 31.9321 4.6645 31.8129 4.71721 31.7071C4.79626 31.4817 4.91422 31.2826 5.04597 31.1103C5.30866 30.7524 5.62406 30.4872 5.95284 30.2752C6.03148 30.2221 6.12352 30.1694 6.20257 30.1297L6.43931 29.9971L6.67566 29.8646C6.75471 29.8248 6.83336 29.7847 6.92538 29.745C8.24008 29.1223 9.65977 28.7907 11.0531 28.6978C11.7496 28.6447 12.4594 28.6447 13.1563 28.6849C13.8528 28.7246 14.5362 28.7907 15.2197 28.8835L15.1674 29.2147Z" fill="white"/>
<path d="M36.791 18.1467C36.7383 18.1467 36.699 18.1333 36.6463 18.1203C36.4095 18.0404 36.2782 17.7753 36.3572 17.5369L37.3825 14.3554C37.4611 14.117 37.7242 13.9845 37.9606 14.0639C38.1973 14.1434 38.3286 14.4085 38.25 14.6473L37.2248 17.8284C37.1721 18.0141 36.988 18.1467 36.791 18.1467Z" fill="#6787FF"/>
<path d="M30.2974 9.88836C30.1263 9.88836 29.9556 9.78256 29.8766 9.61027L29.022 7.64857C28.917 7.4098 29.022 7.14467 29.2588 7.03845C29.4955 6.93265 29.7582 7.03845 29.8636 7.27723L30.7178 9.23892C30.8232 9.4777 30.7178 9.74284 30.4814 9.84865C30.4287 9.8754 30.3631 9.88836 30.2974 9.88836Z" fill="#C92EFF"/>
<path d="M36.4359 10.4985C36.3702 10.4985 36.3045 10.4851 36.2518 10.4583C36.0151 10.3525 35.9101 10.074 36.0151 9.84864L37.0407 7.52896C37.1457 7.29059 37.4218 7.18439 37.6452 7.29061C37.8819 7.39641 37.9869 7.67491 37.8819 7.90031L36.8567 10.22C36.7776 10.3923 36.6069 10.4985 36.4359 10.4985Z" fill="#F19E00"/>
<path d="M29.8764 15.6944C29.8371 15.6944 29.7978 15.6944 29.7581 15.681C29.5083 15.615 29.364 15.3632 29.4427 15.1111L30.1132 12.6589C30.1789 12.4071 30.4286 12.2611 30.6783 12.3406C30.928 12.4071 31.0728 12.6588 30.9937 12.9106L30.3236 15.3632C30.2575 15.5619 30.0735 15.6944 29.8764 15.6944Z" fill="#FFEA2D"/>
<path d="M23.0147 9.39825C22.8833 9.39825 22.752 9.34514 22.66 9.22596C21.9894 8.4172 21.2796 7.6218 20.5568 6.85318C20.3857 6.66751 20.3857 6.37603 20.5697 6.20374C20.7538 6.03104 21.0432 6.03103 21.2139 6.21671C21.9501 6.99871 22.6729 7.80749 23.3564 8.62923C23.5141 8.82827 23.4882 9.11975 23.3041 9.27866C23.2251 9.35852 23.1201 9.39825 23.0147 9.39825Z" fill="#B7B9FF"/>
<path d="M20.7144 13.7988C20.6487 13.7988 20.5697 13.7858 20.504 13.7457C20.2806 13.6265 20.1886 13.3484 20.2936 13.123C20.6224 12.4602 20.9248 11.771 21.1745 11.0814C21.2666 10.8431 21.5293 10.7235 21.766 10.8163C22.0028 10.9092 22.1207 11.1743 22.0287 11.4131C21.766 12.1286 21.4506 12.8445 21.1089 13.5471C21.0562 13.706 20.8851 13.7988 20.7144 13.7988Z" fill="#C92EFF"/>
<path d="M13.6166 10.9092C13.3928 10.9092 13.1958 10.7502 13.1565 10.5115C13.1167 10.2597 13.2878 10.0209 13.5375 9.98121L16.2715 9.55718C16.5212 9.51745 16.758 9.68974 16.7973 9.94149C16.837 10.1936 16.666 10.432 16.4162 10.4717L13.6823 10.9092C13.6689 10.9092 13.6425 10.9092 13.6166 10.9092Z" fill="#93FF5F"/>
<path d="M12.4595 18.6238C12.4068 18.6238 12.3545 18.6104 12.3018 18.5974C12.0651 18.5046 11.9471 18.2395 12.0258 18.0007L13.3668 14.3955C13.4584 14.1568 13.7215 14.0376 13.9583 14.117C14.1946 14.2099 14.313 14.475 14.2343 14.7134L12.8933 18.3189C12.8147 18.518 12.6436 18.6238 12.4595 18.6238Z" fill="#6787FF"/>
<path d="M13.9844 26.2192C13.8923 26.2192 13.8003 26.1925 13.7217 26.1398L11.8419 24.8539C11.6315 24.7079 11.5792 24.4165 11.7235 24.2045C11.8682 23.9924 12.1572 23.9393 12.3676 24.0853L14.2475 25.3708C14.4579 25.5167 14.5102 25.8082 14.3658 26.0202C14.2738 26.1528 14.1291 26.2192 13.9844 26.2192Z" fill="#B7B9FF"/>
<path d="M6.58393 31.1103C6.47894 31.1103 6.37395 31.0706 6.2949 31.0045C6.09787 30.8452 6.07152 30.5537 6.22922 30.3547L8.52943 27.4784C8.68712 27.2798 8.97657 27.253 9.17359 27.4123C9.37061 27.5712 9.39697 27.8627 9.23927 28.0618L6.93906 30.938C6.84704 31.0572 6.71569 31.1103 6.58393 31.1103Z" fill="#93FF5F"/>
<path d="M3.92861 23.6742C3.29781 23.6742 2.66702 23.6077 2.0492 23.4885C1.79948 23.4354 1.64137 23.197 1.6811 22.9453C1.72042 22.6931 1.97015 22.5342 2.21987 22.5739C3.02174 22.7329 3.83658 22.7726 4.65183 22.7065C4.90155 22.6802 5.12492 22.8788 5.15127 23.1306C5.17762 23.3827 4.9802 23.6077 4.73047 23.6345C4.46778 23.6608 4.20468 23.6742 3.92861 23.6742Z" fill="#FFEA2D"/>
<path d="M9.17349 36.7441C9.14714 36.7441 9.13417 36.7441 9.10782 36.7441C8.8581 36.7044 8.67405 36.479 8.71337 36.2268C8.8581 35.0869 9.14714 33.9603 9.55456 32.8868C9.64658 32.648 9.90969 32.5288 10.146 32.6217C10.3828 32.7145 10.5012 32.9796 10.4091 33.218C10.0281 34.2254 9.76497 35.2859 9.62024 36.3464C9.59429 36.5718 9.39686 36.7441 9.17349 36.7441Z" fill="#7192FF"/>
<path d="M19.4395 43.226C19.4261 43.226 19.4002 43.226 19.3868 43.226C19.1371 43.1992 18.953 42.9608 18.9923 42.7091L19.3604 39.7663C19.3868 39.5141 19.6235 39.3289 19.8733 39.3686C20.123 39.395 20.307 39.6337 20.2677 39.8855L19.8996 42.8283C19.8733 43.0537 19.6629 43.226 19.4395 43.226Z" fill="#FFEA2D"/>
<path d="M28.0496 39.7396C27.8655 39.7396 27.6815 39.6204 27.6158 39.4347C27.3397 38.6527 27.1294 37.8443 26.998 37.0222C26.9587 36.7704 27.1294 36.5321 27.3791 36.4919C27.6288 36.4522 27.8655 36.6245 27.9049 36.8767C28.0232 37.6453 28.2207 38.4009 28.4704 39.1169C28.5624 39.3552 28.4307 39.6204 28.1943 39.7132C28.1546 39.7396 28.1023 39.7396 28.0496 39.7396Z" fill="#93FF5F"/>
<path d="M30.2448 35.0341C30.0871 35.0341 29.9424 34.9547 29.8504 34.8221C29.719 34.6097 29.7717 34.3182 29.9951 34.1856L31.9933 32.8997C32.2033 32.7672 32.4927 32.8203 32.6241 33.0457C32.7554 33.2577 32.7027 33.5496 32.4794 33.6821L30.4816 34.9676C30.4159 35.0074 30.3239 35.0341 30.2448 35.0341Z" fill="#6787FF"/>
<path d="M39.3143 38.1756C38.9462 38.1756 38.5915 38.0564 38.3418 37.9769L35.7391 37.1418C35.5024 37.0619 35.3577 36.7968 35.4367 36.5584C35.5154 36.3197 35.7785 36.1741 36.0152 36.2536L38.6178 37.0887C38.9859 37.2079 39.3536 37.3141 39.5904 37.1815C39.8138 37.0619 40.0898 37.1418 40.2212 37.3668C40.3529 37.5922 40.2609 37.8707 40.0375 38.0033C39.8008 38.1358 39.5511 38.1756 39.3143 38.1756Z" fill="#C92EFF"/>
<path d="M37.277 32.2106C37.08 32.2106 36.8959 32.078 36.8432 31.8794C36.5015 30.7791 36.2388 29.6521 36.0413 28.5122C36.002 28.2604 36.1597 28.022 36.4094 27.9823C36.6592 27.9422 36.8959 28.1015 36.9352 28.3533C37.1193 29.4535 37.3824 30.5404 37.7108 31.6009C37.7898 31.8396 37.6451 32.1048 37.4083 32.1842C37.369 32.2106 37.3297 32.2106 37.277 32.2106Z" fill="#B7B9FF"/>
<path d="M35.9495 23.2234C35.7395 23.2234 35.5555 23.0779 35.5028 22.8655C35.4501 22.6137 35.6078 22.3619 35.8445 22.3088L37.7243 21.8848C37.974 21.8317 38.2238 21.9906 38.2765 22.2294C38.3288 22.4811 38.1711 22.7329 37.9347 22.786L36.0549 23.21C36.0156 23.2234 35.9759 23.2234 35.9495 23.2234Z" fill="#93FF5F"/>
<path d="M40.0795 11.977C40.0621 11.3499 40.1143 10.7576 40.1662 10.2869L41.6074 10.409C41.3123 13.7891 41.9374 15.4618 42.5447 16.7513L41.243 17.3611C40.8607 16.5422 40.3576 14.4337 40.1318 13.0922C39.9234 13.3712 39.4548 13.824 38.9857 14.1552L38.6387 13.6671C39.385 13.162 39.8192 12.5697 40.0795 11.977Z" fill="#D4EE6A"/>
<path d="M30.8264 21.9088C30.8434 21.8739 30.8609 21.8565 30.8783 21.8216C31.9202 20.3229 33.3609 19.3998 35.6875 18.3543C38.0136 17.3088 39.4199 15.3746 39.4718 13.1097C39.4718 13.0748 39.4718 13.04 39.4718 13.0051C39.4718 13.0051 37.3541 12.3779 34.0728 14.0855C32.4237 14.9567 30.618 17.5702 30.8264 21.9088Z" fill="#85C975"/>
<path d="M30.8958 21.8216C31.9373 20.3229 33.3785 19.3998 35.7046 18.3543C38.0312 17.3088 39.4375 15.3746 39.4894 13.1097C39.4549 13.1446 39.42 13.162 39.3852 13.1968C38.4305 14.068 36.729 15.2526 34.0903 16.1412C32.6317 16.6467 31.2258 18.7025 30.8958 21.8216Z" fill="#4A9139"/>
<path d="M43.9166 17.7442C43.9166 17.7442 41.9026 15.4788 40.8781 15.81C39.2635 16.3326 37.9094 17.0469 37.2673 18.7025C35.9129 22.152 36.7638 26.1074 35.3575 32.1879C34.7324 35.0281 34.177 37.8857 34.7324 40.7953C35.4961 44.8549 37.8401 47.1202 41.3468 48.2873C44.4545 49.3154 47.8919 49.6815 51.0689 48.9846C54.1248 48.3222 53.7948 37.2756 53.7948 37.2756L43.274 16.5418L43.9166 17.7442Z" fill="#4A9139"/>
<path d="M46.5722 48.8804C44.0028 48.2703 41.6069 46.8243 39.8013 44.803C37.7703 42.5206 36.6416 39.6285 36.52 36.4746C36.4856 35.3423 36.5549 34.2096 36.7633 33.077C36.8674 32.537 37.0065 31.997 37.1451 31.4914C37.3016 30.8817 37.4577 30.3243 37.5445 29.7316C37.857 27.6236 37.6661 26.1601 37.4751 24.766C37.3709 24.0342 37.2842 23.2676 37.2493 22.4487C37.18 19.9223 37.7702 17.9882 38.9333 16.8559C39.8013 16.0022 40.9473 15.6187 42.3536 15.6884C42.7007 15.7058 43.0481 15.7581 43.3951 15.8453C44.8014 16.1761 46.1554 17.0473 47.4227 18.424C48.5164 19.626 49.02 20.6192 49.4716 21.5078C49.6102 21.7867 49.7492 22.0478 49.8883 22.3093C50.9646 24.2086 52.0061 25.8812 53.0131 27.4841C56.4159 32.9205 58.8811 36.8406 57.7006 42.4858C57.0755 45.4654 54.7664 47.8872 51.6765 48.8107C50.1486 49.281 48.3778 49.2984 46.5722 48.8804Z" fill="#257013"/>
<path d="M37.9963 22.4313C38.0486 24.7311 38.7775 26.4909 38.274 29.8363C38.1005 30.9864 37.7011 32.0667 37.4928 33.2164C37.3018 34.2794 37.2151 35.3772 37.2499 36.4571C37.5625 45.2388 45.9651 49.7861 51.5032 48.1309C54.2461 47.312 56.4336 45.1865 57.0238 42.3463C58.4825 35.3772 54.0207 31.0212 49.2982 22.6754C48.6906 21.595 48.3087 20.41 46.9372 18.9117C45.7219 17.5877 44.2118 16.5073 42.3538 16.4201C39.0207 16.2458 37.9095 19.0686 37.9963 22.4313Z" fill="#D4EE6A"/>
<path d="M47.1284 46.5279C45.0276 46.0402 43.0833 44.8553 41.6077 43.2C39.9581 41.3356 39.0383 38.9835 38.9341 36.3874C38.8993 35.4295 38.9686 34.4711 39.1425 33.5128C39.2292 33.0595 39.3509 32.5893 39.4721 32.1012C39.646 31.4566 39.8195 30.7946 39.9237 30.0803C40.2881 27.6236 40.0623 25.9335 39.8714 24.4352C39.7846 23.7379 39.6979 23.0759 39.6805 22.379C39.646 20.6018 39.993 19.208 40.6356 18.5809C40.8784 18.3543 41.2951 18.0405 42.2499 18.0928C42.4582 18.1102 42.6666 18.1276 42.875 18.1799C43.8126 18.4065 44.7499 19.0337 45.6876 20.0443C46.5555 20.9853 46.9374 21.7693 47.3542 22.5882C47.5102 22.8841 47.6493 23.1805 47.8228 23.4942C48.934 25.4454 50.0277 27.2052 50.9999 28.7733C54.2118 33.9133 56.347 37.3109 55.3749 41.9981C54.9407 44.1061 53.2741 45.8311 51.0173 46.5105C49.8716 46.8591 48.5172 46.8591 47.1284 46.5279Z" fill="#FFFECF"/>
<path d="M45.9128 28.8779C45.1146 29.3834 46.3121 27.2924 44.5413 29.1568C43.465 30.2895 42.7013 31.7704 42.2152 33.2513C41.6594 34.8891 41.5033 36.5443 42.1978 38.1646C43.3264 40.7608 45.9651 43.0955 49.2638 42.4683C49.8885 42.3463 50.5485 42.0155 51.0171 41.5448C51.3641 41.1966 51.5032 40.6911 51.6941 40.2382C52.1628 39.0359 48.6561 36.3525 48.6561 36.3525L45.9128 28.8779Z" fill="#D4EE6A"/>
<path d="M43.8992 30.028C42.2326 32.8856 42.2845 38.3913 45.34 40.6911C46.4337 41.51 47.8226 41.9283 49.1766 41.8586C52.3711 41.7191 54.3158 38.217 54.0206 35.29C53.9339 34.4014 53.6732 33.5476 53.3262 32.7287C52.6837 31.2129 51.729 29.7839 50.2878 28.9476C47.6142 27.397 45.2358 27.7456 43.8992 30.028Z" fill="#613D16"/>
<path opacity="0.3" d="M46.7635 29.3137C46.9719 29.2614 47.1803 29.2265 47.3887 29.2091C47.9266 29.1568 48.4994 29.2091 49.0204 29.3834C49.2462 29.4531 49.4545 29.5403 49.6629 29.6619C49.8883 29.7839 50.1141 29.9234 50.305 30.0977C50.6525 30.3941 50.965 30.7597 51.0862 31.1955C51.2253 31.6309 51.1385 32.1535 50.826 32.4847C50.5134 32.8159 49.9406 32.8856 49.5932 32.5893C49.0727 32.136 49.2981 31.1432 48.7252 30.7597C48.3608 30.5157 47.8747 30.6551 47.458 30.7772C47.0412 30.8992 46.5203 30.9863 46.2252 30.6726C46.0168 30.4634 45.9998 30.1151 46.104 29.8537C46.1733 29.6793 46.3293 29.5403 46.4858 29.4531C46.5551 29.3834 46.6593 29.3486 46.7635 29.3137Z" fill="white"/>
<path d="M41.6133 10.3988C41.6222 10.293 41.3043 10.1795 40.9034 10.145C40.5021 10.1102 40.1696 10.1677 40.1607 10.2731C40.1514 10.3785 40.4692 10.492 40.8706 10.5269C41.2715 10.5614 41.6043 10.5042 41.6133 10.3988Z" fill="#A8C437"/>
</svg>
