<svg width="65" height="80" viewBox="0 0 65 80" fill="none" xmlns="http://www.w3.org/2000/svg">
<path d="M51.8562 52.711C52.1796 61.3486 56.7074 67.3949 63.4992 80.6752H0.648541C7.33249 67.3949 11.9681 61.3486 12.2915 52.711C12.6149 44.0734 11.4291 33.3844 7.54809 28.6338L6.68563 27.5541H6.90125C6.79345 27.5541 6.79343 27.4461 6.68563 27.4461C2.91243 25.8265 0.217292 22.5875 0.217292 17.9448C0.109487 11.3586 4.85296 5.96011 6.57785 -0.194168H16.2803C17.1428 -0.194168 17.8974 0.45365 18.1131 1.31741C19.6223 7.36372 25.0126 11.7905 31.4809 11.7905C37.9492 11.7905 43.3396 7.36372 44.8488 1.31741C45.0644 0.45365 45.8191 -0.194168 46.6815 -0.194168H58.0011C59.6182 5.96011 64.4694 11.3586 64.3616 17.9448C64.2538 22.5875 61.6665 25.9345 57.8933 27.4461C57.7855 27.4461 57.7855 27.5541 57.6777 27.5541H57.8933L57.0308 28.6338C52.6108 33.3844 51.5328 43.9655 51.8562 52.711Z" fill="#EFDAC7"/>
<path d="M64.0385 17.8373C64.0385 17.9453 64.0385 17.9453 64.0385 18.0533C63.9307 22.588 61.2355 25.8271 57.5701 27.3387H6.4703C2.6971 25.7191 0.00196029 22.48 0.00196029 17.8373C-0.105845 11.2512 4.63759 5.85269 6.36248 -0.30159H16.065C16.9274 -0.30159 17.6821 0.34623 17.8977 1.20999C19.407 7.2563 24.7972 11.6831 31.2656 11.6831C37.7339 11.6831 43.1242 7.2563 44.6335 1.20999C44.8491 0.34623 45.6037 -0.30159 46.4662 -0.30159H57.7858C59.4029 5.96066 64.1463 11.2512 64.0385 17.8373Z" fill="#7061CD"/>
<path d="M52.7193 48.6089C52.8271 42.8865 53.6895 33.3852 57.1393 28.9584L58.0018 27.8788H57.894C61.0203 26.5831 63.2843 23.8839 63.9311 20.2129C63.9311 20.1049 63.9311 19.997 63.9311 19.889C62.9609 25.1795 56.6003 26.4751 50.9945 26.6911C48.2993 26.799 10.2439 26.6911 9.7049 26.6911L10.1361 27.2309C10.5673 27.8787 10.5673 27.5548 10.8908 28.4186C11.4298 29.6063 12.7234 30.47 14.0171 30.47C40.5373 30.578 45.6041 28.9584 47.1134 34.141C48.2993 38.2438 46.251 43.3184 44.9573 47.2053C40.6451 59.4059 40.7529 76.1412 56.1691 80.676C56.4925 80.7839 56.9238 80.8919 57.2472 80.9999C65.656 80.8919 63.2843 80.1361 61.775 77.005C54.4442 62.1052 52.5037 59.7298 52.7193 48.6089Z" fill="#EDD2BA"/>
<path d="M64.0389 18.0524C63.9311 22.5871 61.2359 25.8262 57.5705 27.4457H10.2439C9.48924 26.9059 8.84241 26.582 8.19558 26.0421C7.11752 25.2863 7.87215 23.6668 9.16582 23.8827C25.7679 27.0138 51.3178 24.8545 56.4925 20.3197C60.05 17.1886 59.7266 12.4379 60.3734 6.60756C61.8827 10.3865 63.4998 13.5176 63.6076 14.0575C63.7154 14.7053 63.9311 15.2451 63.9311 15.893C63.9311 16.6487 64.0389 17.2966 64.0389 18.0524Z" fill="#7052D1"/>
<path d="M31.0502 66.7479C31.7052 66.7479 32.2361 66.0711 32.2361 65.2363C32.2361 64.4015 31.7052 63.7247 31.0502 63.7247C30.3953 63.7247 29.8643 64.4015 29.8643 65.2363C29.8643 66.0711 30.3953 66.7479 31.0502 66.7479Z" fill="#DDB8A4"/>
</svg>
