<svg width="10" height="12" viewBox="0 0 10 12" fill="none" xmlns="http://www.w3.org/2000/svg">
<path d="M7.86846 8.22431H1.45333V11.4545C1.45333 11.7558 1.20261 12 0.893332 12C0.584053 12 0.333332 11.7558 0.333332 11.4545V0.545455C0.333332 0.244209 0.584053 0 0.893332 0H7.86846C8.60246 0 9.16705 0.439506 9.44928 0.988047C9.73098 1.53556 9.76092 2.23787 9.40821 2.85347L9.07309 3.43837C8.83797 3.84875 8.83797 4.37557 9.07309 4.78594L9.40821 5.37084C9.76092 5.98644 9.73098 6.68875 9.44928 7.23626C9.16705 7.78481 8.60246 8.22431 7.86846 8.22431Z" fill="white"/>
</svg>
