<svg width="80" height="80" viewBox="0 0 80 80" fill="none" xmlns="http://www.w3.org/2000/svg">
<rect width="80" height="80" rx="40" fill="#ECF8E6"/>
<mask id="mask0_0_5101" style="mask-type:alpha" maskUnits="userSpaceOnUse" x="0" y="0" width="80" height="80">
<rect width="80" height="80" rx="40" fill="#ECF8E6"/>
</mask>
<g mask="url(#mask0_0_5101)">
<path d="M42.329 18.0006C42.2869 16.9645 42.155 15.7898 41.8663 14.4097L40.1239 14.7693C40.9524 18.8394 40.4187 20.9663 39.8486 22.6362L41.5318 23.2052C41.8875 22.1392 42.2414 20.9248 42.3224 19.2652C42.6244 19.5732 43.0144 19.8713 43.6328 20.2181L43.9906 19.5682C43.0068 19.0098 42.7162 18.6707 42.329 18.0006Z" fill="#D4EE6A"/>
<path d="M45.475 30.6723C45.1875 31.5522 45.0671 32.9932 44.9846 34.7718C44.7825 38.6605 44.7405 44.1073 43.5105 48.6321C42.1214 53.7249 38.8573 56.144 37.4239 57.1379C37.4109 57.1543 37.3832 57.1722 37.3685 57.1739C33.6432 59.7193 29.9548 61.7995 25.7636 60.8585C23.3549 60.3117 21.6402 59.3299 20.0205 57.4751C18.4042 55.6496 17.3498 53.404 16.8609 51.0354C16.5772 49.6993 16.4678 48.3288 16.5378 46.9679C16.7306 42.2029 18.9387 37.5236 22.6846 34.5001C25.1764 32.4801 27.5489 30.191 29.7517 27.8466C34.8298 22.3983 38.2707 21.8179 41.2006 21.979C41.2006 21.979 41.2006 21.979 43.4759 22.7936C44.2197 23.0668 44.7944 23.6861 45.1834 24.5047C45.9861 26.2284 46.079 28.7755 45.475 30.6723Z" fill="#176705"/>
<path d="M45.1732 24.5355C45.1134 24.9288 45.0226 25.3108 44.8991 25.6666C44.6117 26.5465 44.4929 28.0022 44.4087 29.7662C44.2067 33.6549 44.1647 39.1017 42.9347 43.6264C41.5456 48.7192 38.2815 51.1383 36.8481 52.1323C36.835 52.1486 36.8073 52.1666 36.7927 52.1682C33.0674 54.7136 29.3789 56.7939 25.1878 55.8528C22.7808 55.3207 21.0644 54.3242 19.4464 52.4841C18.0667 50.9145 17.0959 49.0164 16.5439 47.0117C16.7368 42.2468 18.9448 37.5674 22.6907 34.5439C25.1825 32.5239 27.555 30.2348 29.7578 27.8904C34.8359 22.4421 38.2768 21.8617 41.2067 22.0228C41.2067 22.0228 41.2067 22.0228 43.482 22.8374C44.2079 23.0829 44.7842 23.7169 45.1732 24.5355Z" fill="#4A9139"/>
<path d="M41.0425 14.8285C41.5222 14.7323 41.8903 14.5506 41.8646 14.4227C41.839 14.2948 41.4294 14.2691 40.9497 14.3653C40.4701 14.4615 40.102 14.6431 40.1276 14.771C40.1533 14.8989 40.5629 14.9247 41.0425 14.8285Z" fill="#A8C437"/>
<path d="M56.5065 30.6059C56.4722 30.5652 56.4396 30.5391 56.4053 30.4983C54.7204 28.5914 52.567 27.54 49.1762 26.4494C45.7853 25.3589 43.5323 22.8913 43.0947 19.7883C43.0898 19.7443 43.0832 19.6855 43.0782 19.6415C43.0782 19.6415 45.9298 18.4434 50.7579 20.2942C53.2095 21.2227 56.1108 24.569 56.5065 30.6059Z" fill="#85C975"/>
<path d="M56.4063 30.4983C54.7214 28.5913 52.568 27.54 49.1772 26.4494C45.7863 25.3588 43.5333 22.8913 43.0957 19.7883C43.1447 19.8274 43.1936 19.8665 43.2426 19.9056C44.7129 20.9594 47.2465 22.3546 51.0674 23.1737C53.1956 23.6034 55.4651 26.2178 56.4063 30.4983Z" fill="#289110"/>
<path opacity="0.4" d="M46.168 31.5146C45.5332 35.3563 44.8836 40.7643 43.1563 45.1232C41.2076 50.0289 37.6939 52.068 36.1586 52.8954C35.7009 50.6347 35.6271 48.3001 35.5976 45.9507C35.5976 38.282 33.4569 33.7901 34.1212 29.2982C34.446 27.1409 35.8633 25.8997 37.6496 24.8358C38.6388 24.2448 41.0895 25.7962 41.68 26.1952L46.168 31.5146Z" fill="#176705"/>
<path d="M43.5228 23.6511C43.5228 23.6511 40.4816 21.5234 39.3448 22.1883C37.5584 23.2522 36.1412 24.4933 35.8164 26.6506C35.152 31.1425 37.2927 35.6197 37.2927 43.3032C37.337 46.879 37.4699 50.44 38.9462 53.7646C40.9835 58.3895 44.4381 60.4581 48.9557 60.857C52.9565 61.2117 57.1788 60.6945 60.7958 58.9657C64.2652 57.3108 60.7958 44.2045 60.7958 44.2045L42.4155 22.4099L43.5228 23.6511Z" fill="#4A9139"/>
<path d="M40.8797 25.1875C40.8649 25.1875 40.8207 25.1431 40.7468 25.0988L39.7725 23.9463L40.8797 25.1875Z" fill="#0D2E05"/>
<path d="M55.4084 60.1027C52.1605 60.1027 48.883 59.0536 46.1666 57.1475C43.0958 54.9902 40.9404 51.8577 39.9217 48.1046C39.5526 46.76 39.3312 45.3711 39.2721 43.9821C39.2426 43.3024 39.2574 42.6227 39.2869 41.9726C39.3164 41.2042 39.3312 40.4802 39.2721 39.7562C39.0654 37.1408 38.4306 35.4564 37.8106 33.831C37.4858 32.974 37.161 32.1022 36.8953 31.127C36.1128 28.1275 36.2752 25.6599 37.3529 23.9754C38.1501 22.7195 39.4198 21.9364 41.1175 21.6261C41.5457 21.5522 41.9738 21.5079 42.4167 21.5079C44.2031 21.5079 46.0632 22.158 47.9677 23.4583C49.6064 24.5813 50.4922 25.6451 51.2747 26.576C51.5256 26.8715 51.7618 27.1523 51.9981 27.4182C53.8139 29.3982 55.5412 31.0827 57.1947 32.7228C62.79 38.249 66.8351 42.2533 66.9975 49.331C67.0861 53.0694 65.0045 56.6156 61.5499 58.5808C59.8078 59.5708 57.6819 60.1027 55.4084 60.1027Z" fill="#257013"/>
<path d="M37.7512 30.906C38.4598 33.6395 39.818 35.5309 40.1428 39.6829C40.2609 41.1014 40.0837 42.5199 40.1428 43.9384C40.2019 45.2682 40.4085 46.5833 40.7629 47.8688C43.5974 58.2711 54.9208 61.3445 61.0919 57.813C64.1331 56.0695 66.1704 52.9222 66.0818 49.3612C65.8751 40.6286 59.3203 36.6834 51.3186 28.0246C50.2852 26.9164 49.4879 25.6014 47.4358 24.1977C45.6052 22.9565 43.4941 22.0995 41.25 22.4984C37.2344 23.2372 36.703 26.9017 37.7512 30.906Z" fill="#D4EE6A"/>
<path d="M55.4064 57.1482C52.7637 57.1482 50.0916 56.2912 47.8623 54.725C45.3674 52.9666 43.5958 50.4104 42.7543 47.3222C42.4442 46.1844 42.2671 45.0171 42.208 43.8351C42.1785 43.2736 42.1933 42.6825 42.2228 42.0619C42.2523 41.2493 42.2671 40.407 42.208 39.5205C41.957 36.4914 41.2189 34.5262 40.5693 32.7974C40.2593 31.9847 39.964 31.2164 39.7573 30.4037C39.2111 28.2907 39.2406 26.5324 39.8459 25.5867C40.0674 25.2469 40.4955 24.7593 41.647 24.5524C41.898 24.5081 42.1637 24.4785 42.4147 24.4785C43.5958 24.4785 44.8949 24.9661 46.2974 25.9118C47.5966 26.7983 48.2757 27.611 48.9991 28.4828C49.2649 28.7931 49.5306 29.1182 49.8259 29.4285C51.7008 31.4528 53.5167 33.2555 55.1111 34.8365C60.3963 40.0672 63.8952 43.5248 64.0429 49.4056C64.1019 52.0505 62.5961 54.592 60.0863 56.0105C58.7872 56.7493 57.178 57.1482 55.4064 57.1482Z" fill="#FFFECF"/>
<path d="M49.0147 36.388C48.2027 37.2007 49.059 34.3932 47.4498 37.112C46.4754 38.7669 45.9882 40.7617 45.7963 42.653C45.5896 44.7807 45.8554 46.7903 47.1398 48.5191C49.2066 51.3117 53.0155 53.3508 56.7949 51.6664C57.5183 51.3413 58.1974 50.765 58.6256 50.0705C58.9504 49.5534 58.9799 48.918 59.0685 48.327C59.2899 46.7607 54.3295 44.5296 54.3295 44.5296L49.0147 36.388Z" fill="#D4EE6A"/>
<path d="M46.9323 38.3234C45.7365 42.1948 47.3457 48.7701 51.6418 50.6614C53.1772 51.3411 54.9488 51.4445 56.5727 50.9865C60.3521 49.9226 61.7103 45.1943 60.5293 41.781C60.175 40.7467 59.6287 39.7863 58.9939 38.9145C57.7981 37.2744 56.2627 35.8411 54.314 35.25C50.6674 34.1418 47.9067 35.2205 46.9323 38.3234Z" fill="#613D16"/>
<path opacity="0.3" d="M50.166 36.6681C50.3875 36.5499 50.6384 36.4464 50.8894 36.3726C51.5242 36.1509 52.2181 36.0623 52.8824 36.1214C53.1629 36.1509 53.4582 36.1952 53.7387 36.2691C54.0487 36.3578 54.344 36.4612 54.6245 36.609C55.1265 36.8602 55.5989 37.2148 55.8794 37.7024C56.1599 38.19 56.2189 38.8254 55.9237 39.313C55.6432 39.8006 54.9641 40.0518 54.4769 39.7858C53.724 39.3869 53.7092 38.1457 52.912 37.8354C52.41 37.6433 51.8638 37.9536 51.4061 38.2196C50.9337 38.4855 50.3432 38.7367 49.8855 38.4412C49.5755 38.2491 49.4574 37.8502 49.5017 37.4955C49.5312 37.2591 49.6788 37.0523 49.856 36.9045C49.9446 36.8011 50.0479 36.742 50.166 36.6681Z" fill="#BCD179"/>
<g filter="url(#filter0_b_0_5101)">
<rect width="80" height="80" rx="40" fill="white" fill-opacity="0.6"/>
</g>
</g>
<defs>
<filter id="filter0_b_0_5101" x="-6" y="-6" width="92" height="92" filterUnits="userSpaceOnUse" color-interpolation-filters="sRGB">
<feFlood flood-opacity="0" result="BackgroundImageFix"/>
<feGaussianBlur in="BackgroundImage" stdDeviation="3"/>
<feComposite in2="SourceAlpha" operator="in" result="effect1_backgroundBlur_0_5101"/>
<feBlend mode="normal" in="SourceGraphic" in2="effect1_backgroundBlur_0_5101" result="shape"/>
</filter>
</defs>
</svg>
