<svg width="80" height="80" viewBox="0 0 80 80" fill="none" xmlns="http://www.w3.org/2000/svg">
<rect width="80" height="80" rx="40" fill="#ECF8E6"/>
<mask id="mask0_0_4963" style="mask-type:alpha" maskUnits="userSpaceOnUse" x="0" y="0" width="80" height="80">
<rect width="80" height="80" rx="40" fill="#ECF8E6"/>
</mask>
<g mask="url(#mask0_0_4963)">
<path d="M57.3662 31.1294C56.837 26.4466 53.3593 22.6324 48.7855 21.6128V17.3832H29.0538V21.6128C24.5178 22.6324 21.0401 26.4466 20.5109 31.1294C20.4731 31.5448 20.4353 31.9602 20.4353 32.3756V63.0781C20.4353 65.0041 21.9851 66.5524 23.9129 66.5524H53.9263C55.8541 66.5524 57.404 65.0041 57.404 63.0781V32.3756C57.4418 31.9602 57.404 31.5448 57.3662 31.1294Z" fill="#202832"/>
<path d="M57.4418 32.3753V61.7182H20.4353V32.3753C20.4353 31.9599 20.4731 31.5445 20.5109 31.129H57.3662C57.404 31.5445 57.4418 31.9599 57.4418 32.3753Z" fill="url(#paint0_linear_0_4963)"/>
<path d="M57.4415 35.17V56.2803H28.3353C27.3147 56.2803 26.4453 55.4494 26.4453 54.392V37.0204C26.4453 36.0008 27.2769 35.17 28.3353 35.17H57.4415Z" fill="#202832"/>
<path opacity="0.3" d="M57.4416 32.3756V63.0781C57.4416 65.0041 55.8918 66.5524 53.964 66.5524H43.5689C45.4967 66.5524 47.0465 65.0041 47.0465 63.0781V32.3756C47.0465 31.9602 47.0087 31.5448 46.9709 31.1294C46.4417 26.4089 42.9641 22.6324 38.4281 21.6128V17.3832H48.7853V21.6128C53.3214 22.6324 56.799 26.4466 57.3282 31.1294C57.4038 31.5448 57.4416 31.9602 57.4416 32.3756Z" fill="black"/>
<path opacity="0.1" d="M29.2051 32.3756V63.0781C29.2051 65.0041 30.7549 66.5524 32.6827 66.5524H28.1089C26.1811 66.5524 24.6313 65.0041 24.6313 63.0781V32.3756C24.6313 31.9602 24.6691 31.5448 24.7069 31.1294C25.2361 26.4089 28.7137 22.6324 33.2497 21.6128V17.3832H37.8236V21.6128C33.2875 22.6324 29.8099 26.4466 29.2807 31.1294C29.2051 31.5448 29.2051 31.9602 29.2051 32.3756Z" fill="#BCD179"/>
<path d="M33.4397 38.4936L34.6871 42.6477L35.9345 38.4936H37.3331L35.3297 44.5737H34.1201L32.8349 40.4574L31.5497 44.5359H30.34L28.3366 38.4558H29.7352L30.9826 42.6099L32.2301 38.4558H33.4397V38.4936Z" fill="#BCD179"/>
<path d="M43.5323 44.536H42.2471V42.0436H39.6389V44.536H38.3537V38.4937H39.6389V40.9106H42.2471V38.4937H43.5323V44.536Z" fill="#BCD179"/>
<path d="M49.6557 43.3653V44.536H45.0819V38.4937H49.5423V39.6644H46.3671V40.8729H48.8619V42.0436H46.3671V43.4031H49.6557V43.3653Z" fill="#BCD179"/>
<path d="M53.0204 41.0618L54.4568 38.456H55.8554L53.7008 42.3458V44.4983H52.4156V42.3458L50.261 38.456H51.6596L53.0204 41.0618Z" fill="#BCD179"/>
<path d="M53.1704 51.0311H29.3563C28.9027 51.0311 28.5247 50.6534 28.5247 50.2002V48.312C28.5247 47.8588 28.9027 47.4812 29.3563 47.4812H53.1326C53.5862 47.4812 53.9642 47.8588 53.9642 48.312V50.2002C54.002 50.6534 53.624 51.0311 53.1704 51.0311Z" fill="url(#paint1_linear_0_4963)"/>
<path opacity="0.4" d="M38.3148 49.8611H30.2255C29.9231 49.8611 29.6963 49.6345 29.6963 49.3324C29.6963 49.0302 29.9231 48.8036 30.2255 48.8036H38.3148C38.6172 48.8036 38.844 49.0302 38.844 49.3324C38.844 49.6345 38.6172 49.8611 38.3148 49.8611Z" fill="#BCD179"/>
<path opacity="0.1" d="M35.2148 54.0528H29.4314C29.129 54.0528 28.9022 53.8262 28.9022 53.5241C28.9022 53.222 29.129 52.9954 29.4314 52.9954H35.2148C35.5172 52.9954 35.744 53.222 35.744 53.5241C35.7062 53.8262 35.4794 54.0528 35.2148 54.0528Z" fill="#BCD179"/>
<path opacity="0.1" d="M50.0706 54.0528H37.0674C36.765 54.0528 36.5382 53.8262 36.5382 53.5241C36.5382 53.222 36.765 52.9954 37.0674 52.9954H50.0706C50.3731 52.9954 50.5999 53.222 50.5999 53.5241C50.5621 53.8262 50.3352 54.0528 50.0706 54.0528Z" fill="#BCD179"/>
<path opacity="0.4" d="M44.8163 49.8611H40.6205C40.3181 49.8611 40.0913 49.6345 40.0913 49.3324C40.0913 49.0302 40.3181 48.8036 40.6205 48.8036H44.8163C45.1187 48.8036 45.3455 49.0302 45.3455 49.3324C45.3077 49.6345 45.0809 49.8611 44.8163 49.8611Z" fill="#BCD179"/>
<path d="M48.5586 14.0219H29.3183C28.6001 14.0219 28.0331 14.5883 28.0331 15.3059V18.4781C28.0331 19.0068 28.4489 19.4222 28.9781 19.4222H48.8989C49.4281 19.4222 49.8439 19.0068 49.8439 18.4781V15.3059C49.8061 14.5883 49.2391 14.0219 48.5586 14.0219Z" fill="#506985"/>
<rect opacity="0.1" x="32.1537" y="14.0219" width="3.78002" height="5.28702" fill="#BCD179"/>
<path d="M29.4312 18.5158C29.3178 18.5158 29.2044 18.4025 29.2044 18.2892V15.117C29.2044 15.0037 29.3178 14.8904 29.4312 14.8904C29.5446 14.8904 29.658 15.0037 29.658 15.117V18.2892C29.658 18.4403 29.5446 18.5158 29.4312 18.5158Z" fill="#2E353D"/>
<path d="M31.1703 18.5158C31.0569 18.5158 30.9435 18.4025 30.9435 18.2892V15.117C30.9435 15.0037 31.0569 14.8904 31.1703 14.8904C31.2837 14.8904 31.3971 15.0037 31.3971 15.117V18.2892C31.3971 18.4403 31.2837 18.5158 31.1703 18.5158Z" fill="#2E353D"/>
<path d="M32.9089 18.5158C32.7955 18.5158 32.6821 18.4025 32.6821 18.2892V15.117C32.6821 15.0037 32.7955 14.8904 32.9089 14.8904C33.0223 14.8904 33.1357 15.0037 33.1357 15.117V18.2892C33.1357 18.4403 33.0223 18.5158 32.9089 18.5158Z" fill="#2E353D"/>
<path d="M34.648 18.5158C34.5346 18.5158 34.4212 18.4025 34.4212 18.2892V15.117C34.4212 15.0037 34.5346 14.8904 34.648 14.8904C34.7614 14.8904 34.8748 15.0037 34.8748 15.117V18.2892C34.8748 18.4403 34.7614 18.5158 34.648 18.5158Z" fill="#2E353D"/>
<path d="M36.3861 18.5158C36.2727 18.5158 36.1593 18.4025 36.1593 18.2892V15.117C36.1593 15.0037 36.2727 14.8904 36.3861 14.8904C36.4995 14.8904 36.6129 15.0037 36.6129 15.117V18.2892C36.6129 18.4403 36.4995 18.5158 36.3861 18.5158Z" fill="#2E353D"/>
<path d="M38.1248 18.5158C38.0113 18.5158 37.8979 18.4025 37.8979 18.2892V15.117C37.8979 15.0037 38.0113 14.8904 38.1248 14.8904C38.2382 14.8904 38.3516 15.0037 38.3516 15.117V18.2892C38.3516 18.4403 38.2382 18.5158 38.1248 18.5158Z" fill="#2E353D"/>
<path d="M39.8643 18.5158C39.7509 18.5158 39.6375 18.4025 39.6375 18.2892V15.117C39.6375 15.0037 39.7509 14.8904 39.8643 14.8904C39.9777 14.8904 40.0911 15.0037 40.0911 15.117V18.2892C40.0911 18.4403 39.9777 18.5158 39.8643 18.5158Z" fill="#2E353D"/>
<path d="M41.6029 18.5158C41.4895 18.5158 41.3761 18.4025 41.3761 18.2892V15.117C41.3761 15.0037 41.4895 14.8904 41.6029 14.8904C41.7163 14.8904 41.8297 15.0037 41.8297 15.117V18.2892C41.8297 18.4403 41.7163 18.5158 41.6029 18.5158Z" fill="#2E353D"/>
<path d="M43.342 18.5158C43.2286 18.5158 43.1152 18.4025 43.1152 18.2892V15.117C43.1152 15.0037 43.2286 14.8904 43.342 14.8904C43.4554 14.8904 43.5688 15.0037 43.5688 15.117V18.2892C43.5688 18.4403 43.4554 18.5158 43.342 18.5158Z" fill="#2E353D"/>
<path d="M45.0806 18.5158C44.9672 18.5158 44.8538 18.4025 44.8538 18.2892V15.117C44.8538 15.0037 44.9672 14.8904 45.0806 14.8904C45.194 14.8904 45.3074 15.0037 45.3074 15.117V18.2892C45.3074 18.4403 45.194 18.5158 45.0806 18.5158Z" fill="#2E353D"/>
<path d="M46.8197 18.5158C46.7063 18.5158 46.5929 18.4025 46.5929 18.2892V15.117C46.5929 15.0037 46.7063 14.8904 46.8197 14.8904C46.9331 14.8904 47.0465 15.0037 47.0465 15.117V18.2892C47.0465 18.4403 46.9331 18.5158 46.8197 18.5158Z" fill="#2E353D"/>
<path d="M48.5583 18.5158C48.4449 18.5158 48.3315 18.4025 48.3315 18.2892V15.117C48.3315 15.0037 48.4449 14.8904 48.5583 14.8904C48.6717 14.8904 48.7851 15.0037 48.7851 15.117V18.2892C48.7851 18.4403 48.6717 18.5158 48.5583 18.5158Z" fill="#2E353D"/>
<path d="M52.9752 47.0876C52.9752 47.1063 52.9846 47.1251 52.9846 47.1345C52.994 47.1908 53.0034 47.2471 53.0128 47.294L52.9095 47.7539C52.9001 47.7727 52.8813 47.7914 52.8625 47.8196C52.8437 47.8477 52.8249 47.8665 52.8062 47.8947C52.7874 47.9228 52.7686 47.951 52.7498 47.9698C52.731 47.9979 52.7122 48.0261 52.684 48.0542C52.6277 48.1293 52.5713 48.2044 52.515 48.2795C51.1059 52.4182 48.0999 55.7967 44.4082 58.0584C40.5098 60.4515 35.4278 62.1408 30.8061 61.7091C28.6925 61.512 26.6165 60.8833 24.7096 59.9448C22.8966 59.0532 20.999 57.8989 19.9 56.1627C19.3833 55.3556 19.0545 54.464 18.7821 53.5537C18.6694 53.1877 18.5661 52.8123 18.4721 52.4369C18.134 51.17 17.8615 49.8749 17.4952 48.6173C17.4012 48.2982 17.3073 47.9791 17.1946 47.6601C16.9597 46.9656 16.6779 46.2805 16.321 45.6423C16.0767 45.2012 15.7949 44.7038 15.4192 44.3566C15.0528 44.0094 14.6489 43.7278 14.2074 43.4932C14.0383 43.3993 13.8598 43.3149 13.6907 43.2398C13.5404 43.1741 13.3995 43.1084 13.268 43.0615C13.221 43.0427 13.1647 43.024 13.1271 43.0052C13.0332 42.9676 12.9486 42.9301 12.8829 42.902C12.8077 42.8738 12.7608 42.8081 12.742 42.733L12.7138 42.6298C12.7138 42.6298 12.7044 42.6016 12.7044 42.5547C12.695 42.3858 12.6668 42.0479 12.7326 41.8602C12.8171 41.6162 13.1177 41.5599 13.5498 41.3535C13.9819 41.147 14.1134 40.7528 14.4892 40.5182C14.8649 40.2836 16.2176 40.8185 16.2176 40.8185L16.7907 40.9311H16.8001C17.1288 40.9968 17.3825 41.269 17.42 41.6068C17.4294 41.6913 17.4482 41.7945 17.4764 41.9165C17.4952 42.0104 17.5234 42.1418 17.5703 42.3013C17.9273 43.6152 19.1579 46.8623 22.4645 48.7956C26.1844 50.9635 29.5661 51.8551 35.1272 51.5454C40.6789 51.2357 49.725 47.0782 50.5141 46.7967C51.012 46.6183 51.1998 46.5057 51.275 46.4588C51.3219 46.4213 51.3219 46.4119 51.3219 46.4119L51.8292 46.0834C51.8292 46.0834 51.8386 46.0646 51.8856 46.0553C51.8856 46.0553 51.895 46.0553 51.9044 46.0553C51.9044 46.0553 51.9044 46.0553 51.9138 46.0553C51.9231 46.0553 51.9231 46.0553 51.9325 46.0553H51.9419C51.9513 46.0553 51.9513 46.0553 51.9607 46.0553C51.9701 46.0553 51.9795 46.0553 51.9983 46.0646C52.0171 46.0646 52.0453 46.074 52.0828 46.0834C52.0922 46.0834 52.1016 46.0928 52.111 46.0928C52.1298 46.1022 52.1486 46.1022 52.1674 46.1116C52.1768 46.1116 52.1862 46.1209 52.205 46.1303C52.2613 46.1491 52.3177 46.1866 52.3834 46.2242C52.4022 46.2336 52.421 46.2429 52.4492 46.2617C52.468 46.2711 52.4962 46.2899 52.515 46.3086C52.5525 46.3274 52.5807 46.3556 52.6089 46.3837C52.684 46.4494 52.7498 46.5245 52.7968 46.609C52.8062 46.6183 52.8156 46.6277 52.8156 46.6465C52.8249 46.6559 52.8249 46.6653 52.8343 46.6746C52.8531 46.7028 52.8719 46.731 52.8813 46.7685C52.9095 46.8436 52.9471 46.975 52.9752 47.0876Z" fill="#F7DC57"/>
<path d="M17.2136 47.6503C16.9787 46.9559 16.6969 46.2708 16.3399 45.6326C16.0957 45.1915 15.8139 44.6941 15.4381 44.3469C15.0718 43.9997 14.6679 43.7181 14.2264 43.4835C14.0573 43.3896 13.8788 43.3052 13.7097 43.2301C13.5688 43.1644 13.4373 43.1081 13.3152 43.0612C13.1367 42.9861 13.0991 42.7609 13.2306 42.6295C13.6064 42.2635 13.8694 42.1978 14.4894 42.8453C15.4475 43.8401 16.7627 44.7692 17.2136 47.6503Z" fill="#D0D9E5"/>
<path d="M51.97 46.0466L52.0264 46.4502L51.8197 46.5252C50.824 46.8913 49.8658 47.3417 48.9452 47.8673C45.3662 49.9038 40.3218 51.5649 36.2074 52.4658C31.6044 53.47 27.9879 52.7098 23.1125 49.9507C18.2278 47.1916 17.7863 43.9913 17.0066 41.7484C16.8939 41.4293 16.8187 41.1665 16.7812 40.9319H16.7906C17.1193 40.9976 17.373 41.2698 17.4105 41.6076C17.4199 41.6921 17.4387 41.7953 17.4669 41.9173C17.6548 42.7995 18.7445 46.6285 22.455 48.7964C26.1749 50.9643 29.5566 51.8558 35.1177 51.5461C40.6694 51.2364 49.7155 47.079 50.5046 46.7974C51.0025 46.6191 51.1903 46.5065 51.2655 46.4596C51.3125 46.422 51.3125 46.4126 51.3125 46.4126L51.8197 46.0842C51.8103 46.0748 51.8479 46.0279 51.97 46.0466Z" fill="#FFF1BD"/>
<path d="M52.9091 47.7634C52.8528 47.8478 52.7776 47.9511 52.6931 48.0637C52.6367 48.1388 52.5804 48.2138 52.524 48.2889C51.1149 52.4276 48.109 55.8061 44.4172 58.0679C40.5188 60.461 35.4368 62.1503 30.8151 61.7186C28.7015 61.5215 26.6255 60.8927 24.7186 59.9542C22.9056 59.0627 21.0081 57.9083 19.909 56.1721C19.3924 55.3651 19.0636 54.4735 18.7912 53.5632C18.7536 53.3379 18.6972 53.1221 18.6315 52.9156C20.0875 55.4026 25.5547 61.4652 33.746 60.1888C40.641 59.1096 44.4924 56.9699 47.5735 53.5538C50.6547 50.1377 52.4958 47.0126 52.4958 47.0126L52.9091 47.7634Z" fill="#EDCC47"/>
<path d="M52.909 47.7633C52.8526 47.8478 52.7774 47.951 52.6929 48.0636C52.4675 48.0448 52.242 47.9791 52.0353 47.8759C51.885 47.7914 51.7441 47.6882 51.6314 47.5568C51.4623 47.3504 51.3684 47.0876 51.312 46.8248C51.2838 46.7028 51.2557 46.5714 51.2557 46.4494C51.3026 46.4119 51.3026 46.4025 51.3026 46.4025L51.8099 46.074C51.8099 46.074 51.9132 45.9239 52.4768 46.2805C52.8432 46.5151 52.9747 46.9937 53.0123 47.2941C53.0405 47.463 53.0029 47.6225 52.909 47.7633Z" fill="#76603B"/>
<path d="M52.8301 47.4289C53.0082 47.2863 52.9343 46.8985 52.665 46.5628C52.3957 46.2272 52.033 46.0707 51.8548 46.2133C51.6767 46.3559 51.7506 46.7437 52.0199 47.0793C52.2892 47.415 52.6519 47.5715 52.8301 47.4289Z" fill="#332309"/>
<path d="M16.7905 40.9311C17.1193 40.9968 17.3729 41.269 17.4105 41.6068C17.4199 41.6913 17.4387 41.7945 17.4669 41.9165C17.4857 42.0104 17.5138 42.1418 17.5608 42.3013C17.3541 42.3201 17.1381 42.3201 16.9314 42.3295C15.8042 42.3483 14.6769 42.6673 13.7 43.2398C13.5497 43.1741 13.4088 43.1084 13.2773 43.0615C13.2303 43.0427 13.1739 43.024 13.1364 43.0052C13.0424 42.9676 12.9579 42.9301 12.8921 42.902C12.817 42.8738 12.77 42.8081 12.7512 42.733L12.723 42.6298C12.723 42.6298 12.7137 42.6016 12.7137 42.5547C12.6949 42.3858 12.6667 42.0479 12.7324 41.8602C12.817 41.6162 13.1176 41.5599 13.5497 41.3535C13.9818 41.147 14.1133 40.7528 14.4891 40.5182C14.8648 40.2836 16.2175 40.8185 16.2175 40.8185L16.7905 40.9311Z" fill="#76603B"/>
<path d="M50.2318 56.941C50.2318 56.9598 50.2318 56.9786 50.2318 56.988C50.2318 57.0443 50.2224 57.1006 50.2224 57.1475C50.2224 57.1475 50.0064 57.5604 49.997 57.5698C49.9782 57.5886 49.9594 57.6074 49.9406 57.6167C49.9218 57.6355 49.8937 57.6543 49.8749 57.673C49.8467 57.6918 49.8279 57.7106 49.7997 57.7387C49.7715 57.7575 49.7434 57.7857 49.7152 57.8044C49.6494 57.8607 49.5743 57.917 49.4991 57.9734C47.0661 61.6053 43.2899 64.0923 39.1379 65.3311C34.751 66.6355 29.406 66.9546 25.0567 65.3404C23.0652 64.599 21.224 63.4635 19.6271 62.0651C18.1147 60.7325 16.5741 59.1277 15.9542 57.1663C15.6724 56.2559 15.5784 55.3081 15.5502 54.3508C15.5408 53.966 15.5408 53.5813 15.5408 53.1965C15.5408 51.8826 15.6066 50.5687 15.5878 49.2549C15.5784 48.9264 15.569 48.5885 15.5502 48.2507C15.5033 47.5187 15.4093 46.7867 15.2308 46.0734C15.1087 45.576 14.9678 45.0317 14.6954 44.6C14.4324 44.1777 14.113 43.7929 13.7466 43.4457C13.6057 43.3143 13.4648 43.1829 13.3145 43.0609C13.183 42.9577 13.0609 42.8638 12.9576 42.7793C12.9106 42.7418 12.873 42.7137 12.8355 42.6855C12.7509 42.6198 12.6852 42.5729 12.6194 42.526C12.563 42.479 12.5255 42.404 12.5255 42.3289V42.2256C12.5255 42.2256 12.5255 42.1975 12.5349 42.1506C12.5536 42.0004 12.6194 41.6532 12.7321 41.4936C12.873 41.2778 13.183 41.2965 13.6527 41.2121C14.1224 41.1276 14.3572 40.7804 14.78 40.649C15.2027 40.5176 16.3769 41.381 16.3769 41.381L16.8935 41.6438H16.9029C17.2035 41.7939 17.3726 42.1224 17.335 42.4603C17.3256 42.5447 17.3163 42.648 17.3069 42.77C17.2975 42.8638 17.2975 43.0046 17.2975 43.1641C17.3069 44.5249 17.645 47.9785 20.3504 50.7001C23.3846 53.7502 26.4282 55.4864 31.8671 56.6219C37.3155 57.7575 47.1225 56.0776 47.9585 56.0119C48.4846 55.965 48.6913 55.9087 48.7852 55.8805C48.8322 55.8618 48.8416 55.843 48.8416 55.843L49.0366 56.033C49.0366 56.033 49.0554 56.0142 49.1023 56.0236C49.1117 56.0236 49.1117 56.0236 49.1211 56.0236C49.1211 56.0236 49.1211 56.0236 49.1305 56.0236C49.1305 56.0236 49.1399 56.0236 49.1493 56.0236C49.1493 56.0236 49.1493 56.0236 49.1587 56.0236C49.1681 56.0236 49.1681 56.0236 49.1775 56.033C49.1869 56.033 49.1963 56.0423 49.2151 56.0423C49.2338 56.0517 49.262 56.0611 49.2902 56.0799C49.2996 56.0893 49.309 56.0893 49.3184 56.0986C49.3372 56.108 49.3466 56.1174 49.3654 56.1362C49.3747 56.1456 49.3841 56.155 49.3935 56.1643C49.4405 56.2019 49.4875 56.2488 49.5438 56.2957C49.5626 56.3145 49.572 56.3239 49.5908 56.3427C49.6096 56.3614 49.6284 56.3802 49.6472 56.399C49.6753 56.4271 49.7035 56.4647 49.7223 56.4928C49.7787 56.5773 49.8162 56.6617 49.8444 56.7556C49.8444 56.765 49.8538 56.7837 49.8538 56.7931C49.8538 56.8025 49.8632 56.8119 49.8632 56.8213C49.8726 56.8588 49.882 56.887 49.8914 56.9245C49.8444 57.0653 50.2318 56.819 50.2318 56.941Z" fill="#F7DC57"/>
<path d="M15.5321 48.2506C15.4851 47.5185 15.3912 46.7865 15.2127 46.0733C15.0906 45.5759 14.9497 45.0316 14.6772 44.5999C14.4142 44.1776 14.0948 43.7928 13.7285 43.4455C13.5876 43.3142 13.4467 43.1828 13.2964 43.0608C13.1742 42.9575 13.0615 42.8731 12.9582 42.798C12.8079 42.6854 12.8267 42.4507 12.9864 42.3569C13.4373 42.1035 13.7097 42.1035 14.1512 42.8918C14.8181 44.1025 15.8514 45.3507 15.5321 48.2506Z" fill="#EDCC47"/>
<path d="M49.528 55.6743L49.481 56.0872L49.2649 56.106C48.2128 56.1998 47.1701 56.3969 46.1368 56.6597C42.1539 57.7014 36.8558 58.0017 32.6381 57.814C27.9318 57.5981 24.6346 55.9277 20.6329 52.0048C16.6312 48.0632 17.0351 44.8536 16.8566 42.4886C16.8284 42.1507 16.8284 41.8786 16.8566 41.644H16.866C17.1666 41.7941 17.3357 42.1226 17.2981 42.4604C17.2887 42.5449 17.2793 42.6481 17.2699 42.7701C17.223 43.6711 17.2793 47.6502 20.3135 50.7097C23.3477 53.7598 26.3912 55.4959 31.8302 56.6315C37.2786 57.7671 47.0856 56.0872 47.9216 56.0215C48.4477 55.9746 48.6543 55.9183 48.7483 55.8901C48.7952 55.8713 48.8046 55.8526 48.8046 55.8526L49.3777 55.6649C49.3683 55.6555 49.4152 55.618 49.528 55.6743Z" fill="#FFF1BD"/>
<path d="M49.9876 57.57C49.9124 57.6357 49.8185 57.7202 49.7058 57.8046C49.64 57.8609 49.5648 57.9172 49.4897 57.9736C47.0567 61.6055 43.2805 64.0924 39.1284 65.3312C34.7416 66.6357 29.3965 66.9548 25.0473 65.3406C23.0558 64.5992 21.2146 63.4637 19.6177 62.0653C18.1053 60.7327 16.5647 59.1279 15.9447 57.1665C15.6629 56.2561 15.569 55.3083 15.5408 54.351C15.5596 54.1258 15.569 53.9005 15.5596 53.6847C16.3205 56.4626 20.031 63.7358 28.2787 64.6086C35.2206 65.35 39.4948 64.2708 43.3556 61.765C47.2258 59.2593 49.7997 56.716 49.7997 56.716L49.9876 57.57Z" fill="#EDCC47"/>
<path d="M49.9875 57.5701C49.9124 57.6358 49.809 57.7203 49.7057 57.8048C49.4897 57.7297 49.2924 57.6077 49.1233 57.4481C49.0012 57.3261 48.8885 57.1948 48.8133 57.0352C48.7006 56.7912 48.6818 56.519 48.6912 56.2469C48.6912 56.1249 48.7006 55.9935 48.7382 55.8715C48.7851 55.8527 48.7945 55.834 48.7945 55.834L49.3675 55.6463C49.3675 55.6463 49.5084 55.5243 49.9593 56.0216C50.2506 56.3407 50.2506 56.8381 50.213 57.1478C50.1942 57.3168 50.119 57.4669 49.9875 57.5701Z" fill="#76603B"/>
<path d="M50.0004 57.2296C50.2094 57.1378 50.2383 56.7442 50.065 56.3503C49.8917 55.9565 49.5819 55.7116 49.3729 55.8034C49.1639 55.8951 49.135 56.2888 49.3082 56.6827C49.4815 57.0765 49.7914 57.3214 50.0004 57.2296Z" fill="#332309"/>
<path d="M16.8657 41.6429C17.1663 41.793 17.3354 42.1215 17.2978 42.4594C17.2884 42.5438 17.2791 42.6471 17.2697 42.7691C17.2603 42.8629 17.2603 43.0037 17.2603 43.1632C17.0536 43.1257 16.8469 43.0694 16.6497 43.0225C15.5412 42.7597 14.3764 42.7691 13.2867 43.0694C13.1552 42.9661 13.0331 42.8723 12.9298 42.7878C12.8828 42.7503 12.8452 42.7221 12.8076 42.694C12.7231 42.6283 12.6573 42.5814 12.5916 42.5344C12.5352 42.4875 12.4977 42.4124 12.4977 42.3374V42.2341C12.4977 42.2341 12.4977 42.206 12.507 42.1591C12.5258 42.0089 12.5916 41.6617 12.7043 41.5021C12.8452 41.2863 13.1552 41.305 13.6249 41.2206C14.0946 41.1361 14.3294 40.7889 14.7521 40.6575C15.1749 40.5261 16.3491 41.3895 16.3491 41.3895L16.8657 41.6429Z" fill="#76603B"/>
<path d="M54.6866 39.7559C54.642 39.1316 54.642 38.4181 54.7223 37.5708L55.7936 37.6689C55.5704 40.1662 56.0346 41.406 56.4899 42.3692L55.5079 42.8241C55.2222 42.2087 54.9276 41.4951 54.7759 40.5051C54.6152 40.7103 54.4009 40.9154 54.0527 41.1651L53.7939 40.7995C54.3474 40.407 54.4902 40.1841 54.6866 39.7559Z" fill="#D4EE6A"/>
<path d="M55.7878 37.6693C55.7945 37.5907 55.5611 37.5064 55.2663 37.481C54.9716 37.4557 54.7272 37.4988 54.7204 37.5774C54.7137 37.656 54.9471 37.7403 55.2418 37.7657C55.5366 37.791 55.781 37.7479 55.7878 37.6693Z" fill="#A8C437"/>
<path d="M46.9112 48.0332C46.929 48.0065 46.9469 47.9886 46.9647 47.9619C47.8486 46.7043 49.0716 45.9284 51.0356 45.0454C52.9997 44.1624 54.187 42.5302 54.2406 40.6394C54.2406 40.6126 54.2406 40.577 54.2406 40.5502C54.2406 40.5502 52.4462 40.024 49.6698 41.4599C48.2592 42.1735 46.7326 44.3854 46.9112 48.0332Z" fill="#85C975"/>
<path d="M46.9553 47.9614C47.8391 46.7038 49.0622 45.9279 51.0262 45.0449C52.9903 44.1619 54.1776 42.5298 54.2312 40.6389C54.2044 40.6657 54.1776 40.6925 54.1508 40.7192C53.3384 41.4506 51.91 42.4584 49.6693 43.2076C48.4283 43.609 47.241 45.3303 46.9553 47.9614Z" fill="#289110"/>
<path d="M57.4996 43.092C57.4996 43.092 55.9998 41.4152 55.241 41.665C54.0447 42.0485 53.0359 42.5836 52.5538 43.8055C51.545 46.3564 52.1878 49.2818 51.1254 53.7948C50.6612 55.8997 50.2506 58.0135 50.6612 60.1718C51.2236 63.1686 52.9734 64.8632 55.5802 65.7194C57.8924 66.4776 60.4457 66.754 62.8025 66.2457C65.0701 65.7551 64.838 57.5764 64.838 57.5764L57.0175 42.2001L57.4996 43.092Z" fill="#4A9139"/>
<path d="M59.4812 66.1473C57.5708 65.7014 55.7853 64.6311 54.4462 63.1327C52.9374 61.4381 52.0982 59.3065 52.009 56.9608C51.9822 56.1224 52.0447 55.2751 52.1964 54.4456C52.2679 54.0443 52.375 53.6429 52.4732 53.2683C52.5893 52.8224 52.7053 52.3943 52.7678 51.9661C52.9999 50.4053 52.8571 49.3261 52.7232 48.2826C52.6517 47.7385 52.5714 47.1767 52.5625 46.5702C52.5178 44.6972 52.9553 43.2701 53.8123 42.4318C54.4551 41.8074 55.3121 41.5131 56.3566 41.5666C56.6155 41.5845 56.8744 41.6201 57.1333 41.6737C58.1867 41.9234 59.1955 42.5655 60.1329 43.5823C60.9453 44.4653 61.3203 45.2145 61.6506 45.8745C61.7577 46.0796 61.8559 46.2758 61.9631 46.4721C62.7665 47.8813 63.5432 49.1121 64.2931 50.3072C66.8285 54.3297 68.6586 57.2373 67.7748 61.4202C67.3106 63.6322 65.5965 65.4249 63.3022 66.1027C62.1416 66.4416 60.8203 66.4595 59.4812 66.1473Z" fill="#257013"/>
<path d="M53.0979 46.5524C53.1425 48.2559 53.6782 49.5581 53.3032 52.0375C53.1782 52.8938 52.8747 53.6965 52.7229 54.5349C52.5801 55.3197 52.5176 56.1314 52.5444 56.9341C52.7765 63.436 59.0257 66.7984 63.1413 65.5765C65.1767 64.9701 66.8015 63.4003 67.2479 61.2954C68.3281 56.1403 65.0071 52.9116 61.4986 46.7218C61.0433 45.9281 60.7576 45.0451 59.7399 43.9391C58.8382 42.958 57.7044 42.1642 56.3296 42.0929C53.8567 41.977 53.0354 44.064 53.0979 46.5524Z" fill="#D4EE6A"/>
<path d="M59.8829 64.4082C58.3296 64.0425 56.8655 63.1684 55.7763 61.9465C54.5443 60.5641 53.8569 58.8249 53.7944 56.8984C53.7677 56.1938 53.8212 55.4713 53.9551 54.7757C54.0176 54.4367 54.1069 54.0978 54.2051 53.7321C54.3301 53.2594 54.464 52.7689 54.5443 52.2338C54.8211 50.4143 54.6515 49.1567 54.4997 48.0508C54.4283 47.5335 54.3658 47.0429 54.3479 46.5256C54.3122 45.2056 54.5711 44.1799 55.0621 43.7072C55.2407 43.5378 55.5531 43.3148 56.2673 43.3505C56.4191 43.3594 56.5798 43.3772 56.7316 43.4129C57.4279 43.5734 58.1332 44.0372 58.8206 44.7953C59.4634 45.4999 59.758 46.0707 60.0615 46.6772C60.1686 46.9002 60.2847 47.1232 60.4186 47.3462C61.2399 48.791 62.0612 50.1021 62.7844 51.2527C65.1769 55.0522 66.766 57.5673 66.0339 61.0457C65.7036 62.6065 64.4627 63.8909 62.7933 64.3814C61.9273 64.64 60.9275 64.649 59.8829 64.4082Z" fill="#FFFECF"/>
<path d="M58.9816 51.3322C58.3923 51.6979 59.2762 50.1638 57.9638 51.5462C57.1604 52.3846 56.5979 53.4906 56.2319 54.5787C55.8212 55.8006 55.6963 57.0136 56.2141 58.2176C57.0443 60.1441 59.0083 61.8655 61.4634 61.4017C61.9365 61.3125 62.4186 61.0628 62.7668 60.7149C63.0346 60.4563 63.1328 60.0906 63.2667 59.7517C63.6149 58.8598 60.9992 56.8709 60.9992 56.8709L58.9816 51.3322Z" fill="#D4EE6A"/>
<path d="M57.4906 52.1798C56.2497 54.2936 56.2943 58.3785 58.5619 60.082C59.3743 60.6885 60.4009 61.0007 61.4187 60.9561C63.7934 60.849 65.2485 58.2625 65.0164 56.0863C64.945 55.4352 64.7575 54.7931 64.4986 54.1866C64.0166 53.0628 63.3113 52.0014 62.2489 51.386C60.2581 50.2355 58.4815 50.4852 57.4906 52.1798Z" fill="#613D16"/>
<path opacity="0.3" d="M59.6158 51.6548C59.7676 51.6102 59.9283 51.5923 60.08 51.5745C60.4907 51.5299 60.9014 51.5745 61.2852 51.6993C61.4549 51.7529 61.6156 51.8242 61.7673 51.9045C61.937 51.9937 62.0976 52.1007 62.2494 52.2256C62.5083 52.4396 62.7404 52.7161 62.8386 53.0372C62.9368 53.3583 62.8833 53.7418 62.6511 53.9915C62.419 54.2323 61.9905 54.2948 61.7316 54.0629C61.3477 53.724 61.5084 52.9926 61.0799 52.7072C60.8121 52.5288 60.4461 52.6269 60.1336 52.725C59.8211 52.8142 59.4373 52.8767 59.2141 52.6448C59.0534 52.4842 59.0445 52.2345 59.1248 52.0383C59.1784 51.9045 59.2855 51.7975 59.4105 51.735C59.473 51.6993 59.5444 51.6726 59.6158 51.6548Z" fill="#BCD179"/>
<g filter="url(#filter0_b_0_4963)">
<rect width="80" height="80" rx="40" fill="white" fill-opacity="0.6"/>
</g>
</g>
<defs>
<filter id="filter0_b_0_4963" x="-6" y="-6" width="92" height="92" filterUnits="userSpaceOnUse" color-interpolation-filters="sRGB">
<feFlood flood-opacity="0" result="BackgroundImageFix"/>
<feGaussianBlur in="BackgroundImage" stdDeviation="3"/>
<feComposite in2="SourceAlpha" operator="in" result="effect1_backgroundBlur_0_4963"/>
<feBlend mode="normal" in="SourceGraphic" in2="effect1_backgroundBlur_0_4963" result="shape"/>
</filter>
<linearGradient id="paint0_linear_0_4963" x1="20.4353" y1="46.4417" x2="57.4266" y2="46.4417" gradientUnits="userSpaceOnUse">
<stop stop-color="#83A6FF"/>
<stop offset="1" stop-color="#5A78FF"/>
</linearGradient>
<linearGradient id="paint1_linear_0_4963" x1="28.5279" y1="49.2469" x2="54.0076" y2="49.2469" gradientUnits="userSpaceOnUse">
<stop stop-color="#83A6FF"/>
<stop offset="1" stop-color="#5A78FF"/>
</linearGradient>
</defs>
</svg>
