<svg width="24" height="24" viewBox="0 0 24 24" fill="none" xmlns="http://www.w3.org/2000/svg">
  <path d="M12.7433 13.2795V12.9461H12.4099H9.31994C8.61912 12.9461 8.23727 12.1153 8.70105 11.5787C8.70131 11.5784 8.70157 11.5781 8.70183 11.5778L16.2702 2.97972L16.2708 2.97898C16.767 2.41187 17.7066 2.7656 17.7066 3.51948V10.7195V11.0528H18.0399H21.1299C21.844 11.0528 22.2196 11.8852 21.7497 12.4192C21.7497 12.4193 21.7497 12.4193 21.7497 12.4193L14.1797 21.0192L14.1791 21.02C13.6829 21.5871 12.7433 21.2334 12.7433 20.4795V13.2795Z" fill="#FFD44F" stroke="#FFD44F" stroke-width="0.666667"/>
  <path d="M8.5 4.41667H1.5C1.27409 4.41667 1.08333 4.22591 1.08333 4C1.08333 3.77409 1.27409 3.58333 1.5 3.58333H8.5C8.72591 3.58333 8.91667 3.77409 8.91667 4C8.91667 4.22591 8.72591 4.41667 8.5 4.41667Z" fill="#FFD44F" stroke="#FFD44F" stroke-width="0.666667"/>
  <path d="M7.5 20.4167H1.5C1.27409 20.4167 1.08333 20.2259 1.08333 20C1.08333 19.7741 1.27409 19.5833 1.5 19.5833H7.5C7.7259 19.5833 7.91667 19.7741 7.91667 20C7.91667 20.2259 7.7259 20.4167 7.5 20.4167Z" fill="#FFD44F" stroke="#FFD44F" stroke-width="0.666667"/>
  <path d="M4.5 12.75H1.5C1.09 12.75 0.75 12.41 0.75 12C0.75 11.59 1.09 11.25 1.5 11.25H4.5C4.91 11.25 5.25 11.59 5.25 12C5.25 12.41 4.91 12.75 4.5 12.75Z" fill="#FFD44F"/>
</svg>
