<svg width="18" height="20" viewBox="0 0 18 20" fill="none" xmlns="http://www.w3.org/2000/svg">
  <path d="M13.5904 5.41L3.31038 15.69C2.83038 16.17 2.01039 16.06 1.72039 15.45C1.20039 14.38 0.900383 13.17 0.900383 11.9C0.880383 6.38 6.48039 1.66 8.38039 0.21C8.75039 -0.07 9.25039 -0.07 9.61039 0.21C10.4804 0.87 12.1104 2.24 13.6404 4.04C13.9804 4.44 13.9604 5.04 13.5904 5.41Z" fill="#D05151"/>
  <path d="M17.1 11.91C17.1 16.37 13.47 20 9 20C7.21 20 5.53999 19.42 4.18999 18.42C3.69999 18.06 3.66 17.34 4.09 16.91L14.16 6.84C14.63 6.37 15.42 6.47 15.74 7.05C16.56 8.56 17.11 10.2 17.1 11.91Z" fill="#D05151"/>
</svg>
