<svg width="24" height="24" viewBox="0 0 24 24" fill="none" xmlns="http://www.w3.org/2000/svg">
  <path d="M17.8506 8.65992C18.0464 8.36087 17.9728 7.98412 17.7268 7.75574L17.7269 7.75568L17.7214 7.75082C14.4553 4.8488 9.53481 4.84832 6.2782 7.75117L6.27815 7.75112L6.27318 7.75574C6.02972 7.98181 5.9478 8.3667 6.1759 8.67041L8.34349 12.1505C8.45491 12.3438 8.65198 12.4455 8.83037 12.478C9.05782 12.5193 9.26755 12.4351 9.4095 12.3109L9.40951 12.3109L9.41136 12.3092C10.8951 10.9914 13.1249 10.9914 14.6086 12.3092L14.6086 12.3093L14.6131 12.3131C14.7488 12.4294 14.9177 12.4833 15.08 12.4833H15.0801H15.0801H15.0802H15.0802H15.0803H15.0804H15.0804H15.0805H15.0805H15.0806H15.0807H15.0807H15.0808H15.0808H15.0809H15.081H15.081H15.0811H15.0812H15.0812H15.0813H15.0813H15.0814H15.0815H15.0815H15.0816H15.0817H15.0817H15.0818H15.0819H15.0819H15.082H15.0821H15.0821H15.0822H15.0823H15.0823H15.0824H15.0825H15.0825H15.0826H15.0827H15.0827H15.0828H15.0829H15.0829H15.083H15.0831H15.0831H15.0832H15.0833H15.0833H15.0834H15.0835H15.0836H15.0836H15.0837H15.0838H15.0838H15.0839H15.084H15.0841H15.0841H15.0842H15.0843H15.0843H15.0844H15.0845H15.0846H15.0846H15.0847H15.0848H15.0849H15.0849H15.085H15.0851H15.0852H15.0852H15.0853H15.0854H15.0855H15.0855H15.0856H15.0857H15.0858H15.0858H15.0859H15.086H15.0861H15.0861H15.0862H15.0863H15.0864H15.0865H15.0865H15.0866H15.0867H15.0868H15.0869H15.0869H15.087H15.0871H15.0872H15.0872H15.0873H15.0874H15.0875H15.0876H15.0877H15.0877H15.0878H15.0879H15.088H15.0881H15.0881H15.0882H15.0883H15.0884H15.0885H15.0886H15.0886H15.0887H15.0888H15.0889H15.089H15.0891H15.0891H15.0892H15.0893H15.0894H15.0895H15.0896H15.0896H15.0897H15.0898H15.0899H15.09H15.0901H15.0902H15.0902H15.0903H15.0904H15.0905H15.0906H15.0907H15.0908H15.0909H15.0909H15.091H15.0911H15.0912H15.0913H15.0914H15.0915H15.0916H15.0916H15.0917H15.0918H15.0919H15.092H15.0921H15.0922H15.0923H15.0924H15.0925H15.0925H15.0926H15.0927H15.0928H15.0929H15.093H15.0931H15.0932H15.0933H15.0934H15.0935H15.0935H15.0936H15.0937H15.0938H15.0939H15.094H15.0941H15.0942H15.0943H15.0944H15.0945H15.0946H15.0947H15.0948H15.0948H15.0949H15.095H15.0951H15.0952H15.0953H15.0954H15.0955H15.0956H15.0957H15.0958H15.0959H15.096H15.0961H15.0962H15.0963H15.0964H15.0965H15.0966H15.0967H15.0968H15.0969H15.097H15.0971H15.0971H15.0972H15.0973H15.0974H15.0975H15.0976H15.0977H15.0978H15.0979H15.098H15.0981H15.0982H15.0983H15.0984H15.0985H15.0986H15.0987H15.0988H15.0989H15.099H15.0991H15.0992H15.0993H15.0994H15.0995H15.0996H15.0997H15.0998H15.0999H15.1H15.1001H15.1002H15.1003H15.1004H15.1005H15.1006H15.1007H15.1008H15.1009H15.101H15.1011H15.1013H15.1014H15.1015H15.1016H15.1017H15.1018H15.1019H15.102H15.1021H15.1022H15.1023H15.1024H15.1025H15.1026H15.1027H15.1028H15.1029H15.103H15.1031H15.1032H15.1033H15.1034H15.1035H15.1036H15.1037H15.1038H15.104H15.1041H15.1042H15.1043H15.1044H15.1045H15.1046H15.1047H15.1048H15.1049H15.105H15.1051H15.1052H15.1053H15.1054H15.1055H15.1057H15.1058H15.1059H15.106H15.1061H15.1062H15.1063H15.1064H15.1065H15.1066H15.1067H15.1068H15.1069H15.1071H15.1072H15.1073H15.1074H15.1075H15.1076H15.1077H15.1078H15.1079H15.108H15.1081H15.1082H15.1084H15.1085H15.1086H15.1087H15.1088H15.1089H15.109H15.1091H15.1092H15.1093H15.1095H15.1096H15.1097H15.1098H15.1099H15.11H15.1101H15.1102H15.1103H15.1104H15.1106H15.1107H15.1108H15.1109H15.111H15.1111H15.1112H15.1113H15.1114H15.1116H15.1117H15.1118H15.1119H15.112H15.1121H15.1122H15.1123H15.1125H15.1126H15.1127H15.1128H15.1129H15.113H15.1131H15.1132H15.1133H15.1135H15.1136H15.1137H15.1138H15.1139H15.114H15.1141H15.1143H15.1144H15.1145H15.1146H15.1147H15.1148H15.1149H15.115H15.1152H15.1153H15.1154H15.1155H15.1156H15.1157H15.1158H15.116H15.1161H15.1162H15.1163H15.1164H15.1165H15.1166H15.1168H15.1169H15.117H15.1171H15.1172H15.1173H15.1174H15.1176H15.1177H15.1178H15.1179H15.118H15.1181H15.1182H15.1184H15.1185H15.1186H15.1187H15.1188H15.1189H15.119H15.1192H15.1193H15.1194H15.1195H15.1196H15.1197H15.1199H15.12H15.1201H15.1202H15.1203H15.1204H15.1205H15.1207H15.1208H15.1209H15.121H15.1211H15.1212H15.1214H15.1215H15.1216H15.1217H15.1218H15.1219H15.1221H15.1222H15.1223H15.1224H15.1225H15.1226H15.1228H15.1229H15.123H15.1231H15.1232H15.1233H15.1235H15.1236H15.1237H15.1238H15.1239H15.124H15.1242H15.1243H15.1244H15.1245H15.1246H15.1247H15.1249H15.125H15.1251H15.1252H15.1253H15.1254H15.1256H15.1257H15.1258H15.1259H15.126H15.1261H15.1263H15.1264H15.1265H15.1266H15.1267H15.1268H15.127H15.1271H15.1272H15.1273H15.1274H15.1275H15.1277H15.1278H15.1279H15.128H15.1281H15.1282H15.1284H15.1285H15.1286H15.1287H15.1288H15.1289H15.1291H15.1292H15.1293H15.1294H15.1295H15.1297H15.1298H15.1299H15.13H15.1466L15.1632 12.4817C15.3842 12.4596 15.5654 12.3178 15.6674 12.1649L15.6675 12.165L15.6729 12.1562L17.8506 8.65992ZM8 2.33333H16C17.4243 2.33333 18.5852 2.80663 19.3893 3.6107C20.1934 4.41478 20.6667 5.57575 20.6667 7V17C20.6667 18.4243 20.1934 19.5852 19.3893 20.3893C18.5852 21.1934 17.4243 21.6667 16 21.6667H8C6.57575 21.6667 5.41478 21.1934 4.6107 20.3893C3.80663 19.5852 3.33333 18.4243 3.33333 17V7C3.33333 5.57575 3.80663 4.41478 4.6107 3.6107C5.41478 2.80663 6.57575 2.33333 8 2.33333Z" fill="#FF9330" stroke="#FF9330" stroke-width="0.666667"/>
</svg>
