<svg width="80" height="80" viewBox="0 0 80 80" fill="none" xmlns="http://www.w3.org/2000/svg">
<rect width="80" height="80" rx="40" fill="#ECF8E6"/>
<mask id="mask0_0_5034" style="mask-type:alpha" maskUnits="userSpaceOnUse" x="0" y="0" width="80" height="80">
<rect width="80" height="80" rx="40" fill="#ECF8E6"/>
</mask>
<g mask="url(#mask0_0_5034)">
<path d="M46.8141 31.8218H34.124C33.6348 31.8218 33.2392 32.2172 33.2392 32.7063V36.7854C33.2392 37.2745 33.6348 37.67 34.124 37.67H46.8141C47.3034 37.67 47.699 37.2745 47.699 36.7854V32.7063C47.699 32.2172 47.3034 31.8218 46.8141 31.8218Z" fill="#EB9800"/>
<path d="M33.5624 37.3581V32.7066C33.5624 32.3944 33.8122 32.1343 34.135 32.1343H46.825C47.1373 32.1343 47.3976 32.384 47.3976 32.7066V37.3581H33.5624Z" fill="url(#paint0_linear_0_5034)"/>
<path d="M56.9748 18.3258H23.9744L25.182 16.4319L27.4618 12.8939L28.6694 11H52.2798L53.4874 12.8939L55.7568 16.4319L56.9748 18.3258Z" fill="#3A63EC"/>
<path opacity="0.4" d="M35.5397 18.3258H32.7706L28.669 11L35.5397 18.3258Z" fill="#022952"/>
<path opacity="0.4" d="M45.4088 18.3258H48.1779L52.2795 11L45.4088 18.3258Z" fill="#022952"/>
<path d="M45.5132 33.9139H35.4361L34.8219 33.0918L34.7178 32.9357L23.9744 18.3258L25.182 16.4319L27.4618 12.8939L28.6694 11L34.0619 18.3258L39.7563 26.0782L44.7949 32.9357L45.5132 33.9139Z" fill="#7192FF"/>
<path opacity="0.6" d="M42.9104 33.9139H38.0384L26.5767 18.3258L25.1818 16.4319L27.4616 12.8939L31.4591 18.3258L42.9104 33.9139Z" fill="#BCD179"/>
<path d="M57.8491 52.3637C57.8491 61.958 50.0727 69.7312 40.4745 69.7312C30.8763 69.7208 23.0998 61.9476 23.0998 52.3637C23.0998 52.3013 23.0998 52.2388 23.0998 52.1764C23.2039 42.6757 30.9387 34.9962 40.4745 34.9962C49.927 34.9962 57.6097 42.5405 57.8387 51.9266C57.8387 52.0723 57.8491 52.218 57.8491 52.3637Z" fill="url(#paint1_linear_0_5034)"/>
<path d="M40.4743 69.2005C49.7768 69.2005 57.318 61.6624 57.318 52.3637C57.318 43.065 49.7768 35.5269 40.4743 35.5269C31.1717 35.5269 23.6305 43.065 23.6305 52.3637C23.6305 61.6624 31.1717 69.2005 40.4743 69.2005Z" fill="url(#paint2_linear_0_5034)"/>
<path opacity="0.3" d="M57.8387 51.9266C53.2894 54.9131 47.0954 56.7654 40.2767 56.7654C33.6454 56.7654 27.6075 55.0276 23.0998 52.1764C23.2039 42.6757 30.9387 34.9962 40.4745 34.9962C49.9165 34.9962 57.6097 42.5301 57.8387 51.9266Z" fill="url(#paint3_linear_0_5034)"/>
<path d="M54.4552 52.3636C54.4552 52.6758 54.4448 52.9879 54.4239 53.2897C53.9451 60.5739 47.8759 66.3388 40.4638 66.3388C33.1142 66.3388 27.0867 60.6675 26.5246 53.4666C26.4933 53.1024 26.4829 52.7278 26.4829 52.3532C26.4829 44.632 32.7395 38.378 40.4638 38.378C48.1986 38.378 54.4552 44.6424 54.4552 52.3636Z" fill="url(#paint4_linear_0_5034)"/>
<path opacity="0.2" d="M54.4552 52.3631C54.4552 52.6753 54.4448 52.9875 54.4239 53.2892C50.3848 55.1519 45.5128 56.2445 40.2765 56.2445C35.2067 56.2445 30.4909 55.2248 26.5246 53.4766C26.4933 53.1123 26.4829 52.7377 26.4829 52.3631C26.4829 44.6419 32.7395 38.3879 40.4638 38.3879C48.1986 38.3775 54.4552 44.6419 54.4552 52.3631Z" fill="url(#paint5_linear_0_5034)"/>
<path d="M42.4936 44.694V60.2092H39.5163V48.8251L37.2052 51.0832L35.3314 48.8251L39.7974 44.694H42.4936ZM42.4936 44.1737H39.7974C39.662 44.1737 39.5371 44.2257 39.4434 44.309L34.9774 48.4401C34.7692 48.6274 34.7484 48.9396 34.9254 49.1581L36.7992 51.4162C36.8929 51.5307 37.0282 51.5931 37.174 51.6035C37.1844 51.6035 37.1948 51.6035 37.2052 51.6035C37.3406 51.6035 37.4759 51.5515 37.5696 51.4578L38.9958 50.0634V60.2092C38.9958 60.5006 39.2248 60.7295 39.5163 60.7295H42.4936C42.7851 60.7295 43.0141 60.5006 43.0141 60.2092V44.694C43.0141 44.413 42.7747 44.1737 42.4936 44.1737Z" fill="#EB9800"/>
<path d="M46.0964 34.3614H34.8533C34.718 34.3614 34.6139 34.2573 34.6139 34.1221V33.6954C34.6139 33.5601 34.718 33.4561 34.8533 33.4561H46.0964C46.2317 33.4561 46.3358 33.5601 46.3358 33.6954V34.1221C46.3254 34.2573 46.2213 34.3614 46.0964 34.3614Z" fill="#B57500"/>
<path opacity="0.1" d="M44.7951 32.9357L35.4364 33.9139L34.8222 33.0918L34.7181 32.9357L39.7566 26.0782L44.7951 32.9357Z" fill="#24303D"/>
<path d="M56.9747 18.3258L45.5131 33.9139H35.436L46.8872 18.3258L52.2797 11L53.4873 12.8939L55.7567 16.4319L56.9747 18.3258Z" fill="#7192FF"/>
<path opacity="0.6" d="M55.7569 16.4319L54.3724 18.3258L42.9107 33.9139H38.0387L49.49 18.3258L53.4875 12.8939L55.7569 16.4319Z" fill="#BCD179"/>
<path d="M40.474 66.547C32.6456 66.547 26.2849 60.1786 26.2849 52.3637C26.2849 44.5489 32.656 38.1804 40.474 38.1804C48.2921 38.1804 54.6632 44.5489 54.6632 52.3637C54.6632 60.1786 48.3025 66.547 40.474 66.547ZM40.474 38.5863C32.8746 38.5863 26.7013 44.7674 26.7013 52.3533C26.7013 59.9393 32.885 66.1204 40.474 66.1204C48.0631 66.1204 54.2468 59.9393 54.2468 52.3533C54.2468 44.7674 48.0735 38.5863 40.474 38.5863Z" fill="url(#paint6_linear_0_5034)"/>
<path d="M42.4941 44.6945V60.2098H39.5063V48.8257L37.2057 51.0837L35.3318 48.8257L39.7978 44.6945H42.4941Z" fill="url(#paint7_linear_0_5034)"/>
<path opacity="0.2" d="M42.4937 44.6945V57.2129C41.765 57.2545 41.0259 57.2753 40.2764 57.2753C40.0161 57.2753 39.7663 57.2753 39.506 57.2649V48.8257L37.1949 51.0837L35.3211 48.8257L39.7871 44.6945H42.4937Z" fill="url(#paint8_linear_0_5034)"/>
<path d="M33.5542 41.8396L34.5566 41.5529C34.7713 41.4813 34.7713 41.1946 34.5566 41.1229L33.5542 40.8362C33.1963 40.7645 32.9099 40.4778 32.7667 40.0478L32.4803 39.0444C32.4087 38.8293 32.1223 38.8293 32.0507 39.0444L31.836 40.0478C31.7644 40.4062 31.478 40.6929 31.0484 40.8362L30.0461 41.1229C29.8313 41.1946 29.8313 41.4813 30.0461 41.5529L31.0484 41.8396C31.4064 41.9113 31.6928 42.198 31.836 42.628L32.1223 43.6315C32.1939 43.8465 32.4803 43.8465 32.5519 43.6315L32.8383 42.628C32.9099 42.198 33.1963 41.9113 33.5542 41.8396Z" fill="#BCD179"/>
<path d="M39.0218 45.6583L39.6546 45.4773C39.7902 45.4321 39.7902 45.2511 39.6546 45.2058L39.0218 45.0248C38.7958 44.9796 38.615 44.7986 38.5246 44.5271L38.3438 43.8936C38.2986 43.7578 38.1178 43.7578 38.0726 43.8936L37.937 44.5271C37.8918 44.7533 37.711 44.9343 37.4398 45.0248L36.807 45.2058C36.6714 45.2511 36.6714 45.4321 36.807 45.4773L37.4398 45.6583C37.6658 45.7036 37.8466 45.8846 37.937 46.1561L38.1178 46.7896C38.163 46.9253 38.3438 46.9253 38.389 46.7896L38.5698 46.1561C38.615 45.8846 38.7958 45.7036 39.0218 45.6583Z" fill="#BCD179"/>
<path d="M30.2609 45.5663L30.9053 45.4229C31.0485 45.3513 31.0485 45.2079 30.9053 45.1362L30.2609 44.9212C30.0461 44.8496 29.8314 44.7062 29.7598 44.4195L29.6166 43.7744C29.545 43.6311 29.4018 43.6311 29.3302 43.7744L29.187 44.4195C29.1154 44.6345 28.9722 44.8496 28.6858 44.9212L28.0415 45.0646C27.8983 45.1362 27.8983 45.2796 28.0415 45.3513L28.6858 45.4946C28.9006 45.5663 29.1154 45.7096 29.187 45.9963L29.3302 46.6414C29.4018 46.7847 29.545 46.7847 29.6166 46.6414L29.7598 45.9963C29.8314 45.7813 30.0461 45.638 30.2609 45.5663Z" fill="#BCD179"/>
<g filter="url(#filter0_b_0_5034)">
<rect width="80" height="80" rx="40" fill="white" fill-opacity="0.6"/>
</g>
</g>
<defs>
<filter id="filter0_b_0_5034" x="-6" y="-6" width="92" height="92" filterUnits="userSpaceOnUse" color-interpolation-filters="sRGB">
<feFlood flood-opacity="0" result="BackgroundImageFix"/>
<feGaussianBlur in="BackgroundImage" stdDeviation="3"/>
<feComposite in2="SourceAlpha" operator="in" result="effect1_backgroundBlur_0_5034"/>
<feBlend mode="normal" in="SourceGraphic" in2="effect1_backgroundBlur_0_5034" result="shape"/>
</filter>
<linearGradient id="paint0_linear_0_5034" x1="33.5395" y1="34.7543" x2="47.3802" y2="34.7543" gradientUnits="userSpaceOnUse">
<stop offset="0.00289017" stop-color="#FFD44F"/>
<stop offset="1" stop-color="#FFA607"/>
</linearGradient>
<linearGradient id="paint1_linear_0_5034" x1="50.8679" y1="66.7886" x2="29.9418" y2="37.3671" gradientUnits="userSpaceOnUse">
<stop offset="0.00289017" stop-color="#FFD44F"/>
<stop offset="1" stop-color="#FFA607"/>
</linearGradient>
<linearGradient id="paint2_linear_0_5034" x1="23.5749" y1="52.4158" x2="57.2756" y2="52.4158" gradientUnits="userSpaceOnUse">
<stop offset="0.00289017" stop-color="#FFD44F"/>
<stop offset="1" stop-color="#FFA607"/>
</linearGradient>
<linearGradient id="paint3_linear_0_5034" x1="40.4703" y1="56.8325" x2="40.4703" y2="37.756" gradientUnits="userSpaceOnUse">
<stop offset="0.00289017" stop-color="white"/>
<stop offset="1" stop-color="white" stop-opacity="0"/>
</linearGradient>
<linearGradient id="paint4_linear_0_5034" x1="26.4367" y1="52.4017" x2="54.42" y2="52.4017" gradientUnits="userSpaceOnUse">
<stop offset="0.00289017" stop-color="#FFD44F"/>
<stop offset="1" stop-color="#FFA607"/>
</linearGradient>
<linearGradient id="paint5_linear_0_5034" x1="40.4722" y1="56.2986" x2="40.4722" y2="40.646" gradientUnits="userSpaceOnUse">
<stop offset="0.00289017" stop-color="white"/>
<stop offset="1" stop-color="white" stop-opacity="0"/>
</linearGradient>
<linearGradient id="paint6_linear_0_5034" x1="41.4351" y1="65.9142" x2="40.474" y2="38.1716" gradientUnits="userSpaceOnUse">
<stop offset="0.00289017" stop-color="#FFD44F"/>
<stop offset="1" stop-color="#FFA607"/>
</linearGradient>
<linearGradient id="paint7_linear_0_5034" x1="39.9989" y1="46.6745" x2="40.5611" y2="59.7299" gradientUnits="userSpaceOnUse">
<stop offset="0.00289017" stop-color="#FFD44F"/>
<stop offset="1" stop-color="#FFA607"/>
</linearGradient>
<linearGradient id="paint8_linear_0_5034" x1="38.9106" y1="57.3223" x2="38.9106" y2="46.2946" gradientUnits="userSpaceOnUse">
<stop offset="0.00289017" stop-color="white"/>
<stop offset="1" stop-color="white" stop-opacity="0"/>
</linearGradient>
</defs>
</svg>
