<svg width="52" height="54" viewBox="0 0 52 54" fill="none" xmlns="http://www.w3.org/2000/svg">
<g filter="url(#filter0_d_1_243)">
<rect width="52" height="52" rx="26" fill="#EEF4FA"/>
<rect x="0.5" y="0.5" width="51" height="51" rx="25.5" stroke="#D3E6F8"/>
</g>
<path d="M24.1584 18.3022C22.15 18.9532 20.5821 20.5867 20.0278 22.6326L19.983 22.798C19.6237 24.1241 19.5577 25.513 19.7896 26.8674L19.8121 26.9989C19.8321 27.116 19.7719 27.2325 19.668 27.2892C18.9723 27.6687 18.5 28.4091 18.5 29.2604C18.5 30.3266 19.2475 31.2453 20.2876 31.4572L20.6552 31.5321C24.1825 32.2506 27.8175 32.2506 31.3448 31.5321L31.7124 31.4572C32.7525 31.2453 33.5 30.3266 33.5 29.2604C33.5 28.4177 33.0372 27.6836 32.353 27.3008C32.2371 27.2359 32.1698 27.1051 32.1922 26.9737L32.2161 26.8343C32.4444 25.5011 32.3849 24.1343 32.0417 22.8262L31.9793 22.5883C31.45 20.5708 29.9398 18.9599 27.9671 18.3084C26.7349 17.9014 25.3927 17.9021 24.1584 18.3022Z" fill="#6E51D0" fill-opacity="0.24"/>
<path d="M23.0091 31.9034C24.9968 32.1269 27.0032 32.1269 28.9909 31.9034C28.9768 32.0967 28.9465 32.2887 28.9001 32.4772L28.8182 32.8106C28.5614 33.855 27.7455 34.6678 26.7039 34.917C26.2411 35.0277 25.7589 35.0277 25.2961 34.917C24.2545 34.6678 23.4386 33.855 23.1818 32.8106L23.0999 32.4772C23.0535 32.2887 23.0232 32.0967 23.0091 31.9034Z" fill="#6E51D0" fill-opacity="0.24"/>
<path d="M20.0278 22.6326L20.7517 22.8287L20.7517 22.8287L20.0278 22.6326ZM24.1584 18.3022L23.9271 17.5888L24.1584 18.3022ZM19.983 22.798L19.2591 22.6019L19.2591 22.6019L19.983 22.798ZM19.7896 26.8674L20.5288 26.7409V26.7409L19.7896 26.8674ZM19.8121 26.9989L19.0728 27.1255L19.0728 27.1255L19.8121 26.9989ZM20.2876 31.4572L20.4373 30.7223L20.2876 31.4572ZM20.6552 31.5321L20.8049 30.7971H20.8049L20.6552 31.5321ZM31.3448 31.5321L31.1951 30.7971H31.1951L31.3448 31.5321ZM31.7124 31.4572L31.8621 32.1921L31.7124 31.4572ZM32.1922 26.9737L32.9315 27.1003V27.1003L32.1922 26.9737ZM32.2161 26.8343L31.4769 26.7077V26.7077L32.2161 26.8343ZM32.0417 22.8262L31.3163 23.0166V23.0166L32.0417 22.8262ZM31.9793 22.5883L32.7047 22.398V22.398L31.9793 22.5883ZM27.9671 18.3084L28.2023 17.5962V17.5962L27.9671 18.3084ZM32.353 27.3008L31.9868 27.9553L32.353 27.3008ZM19.668 27.2892L19.3088 26.6308L19.668 27.2892ZM26.75 17C26.75 16.5858 26.4142 16.25 26 16.25C25.5858 16.25 25.25 16.5858 25.25 17H26.75ZM25.25 18.0047C25.25 18.419 25.5858 18.7547 26 18.7547C26.4142 18.7547 26.75 18.419 26.75 18.0047H25.25ZM23.0091 31.9034L23.0929 31.1581L22.1956 31.0572L22.2611 31.9578L23.0091 31.9034ZM28.9909 31.9034L29.7389 31.9578L29.8044 31.0572L28.9071 31.1581L28.9909 31.9034ZM28.9001 32.4772L29.6285 32.6563L28.9001 32.4772ZM28.8182 32.8106L28.0899 32.6315L28.8182 32.8106ZM26.7039 34.917L26.8784 35.6464H26.8784L26.7039 34.917ZM25.2961 34.917L25.1216 35.6464H25.1216L25.2961 34.917ZM23.1818 32.8106L22.4535 32.9896L23.1818 32.8106ZM23.0999 32.4772L23.8282 32.2981H23.8282L23.0999 32.4772ZM20.7517 22.8287C21.2392 21.0293 22.6205 19.5891 24.3896 19.0157L23.9271 17.5888C21.6795 18.3173 19.925 20.1442 19.3039 22.4364L20.7517 22.8287ZM20.7069 22.9942L20.7517 22.8287L19.3039 22.4364L19.2591 22.6019L20.7069 22.9942ZM20.5288 26.7409C20.3153 25.4939 20.3761 24.215 20.7069 22.9942L19.2591 22.6019C18.8713 24.0331 18.8 25.5322 19.0503 26.994L20.5288 26.7409ZM20.5513 26.8723L20.5288 26.7409L19.0503 26.994L19.0728 27.1255L20.5513 26.8723ZM19.25 29.2604C19.25 28.6932 19.5638 28.2003 20.0271 27.9476L19.3088 26.6308C18.3807 27.137 17.75 28.1251 17.75 29.2604H19.25ZM20.4373 30.7223C19.7489 30.582 19.25 29.9725 19.25 29.2604H17.75C17.75 30.6807 18.7462 31.9085 20.1379 32.1921L20.4373 30.7223ZM20.8049 30.7971L20.4373 30.7223L20.1379 32.1921L20.5055 32.267L20.8049 30.7971ZM31.1951 30.7971C27.7666 31.4956 24.2334 31.4956 20.8049 30.7971L20.5055 32.267C24.1316 33.0057 27.8684 33.0057 31.4945 32.267L31.1951 30.7971ZM31.5627 30.7223L31.1951 30.7971L31.4945 32.267L31.8621 32.1921L31.5627 30.7223ZM32.75 29.2604C32.75 29.9725 32.2511 30.582 31.5627 30.7223L31.8621 32.1921C33.2538 31.9085 34.25 30.6807 34.25 29.2604H32.75ZM31.9868 27.9553C32.4425 28.2103 32.75 28.6989 32.75 29.2604H34.25C34.25 28.1365 33.6319 27.157 32.7192 26.6463L31.9868 27.9553ZM31.4769 26.7077L31.453 26.8471L32.9315 27.1003L32.9554 26.9608L31.4769 26.7077ZM31.3163 23.0166C31.6323 24.2211 31.6871 25.4799 31.4769 26.7077L32.9554 26.9608C33.2017 25.5223 33.1375 24.0474 32.7672 22.6359L31.3163 23.0166ZM31.2539 22.7787L31.3163 23.0166L32.7672 22.6359L32.7047 22.398L31.2539 22.7787ZM27.7319 19.0205C29.4622 19.592 30.7887 21.0057 31.2539 22.7787L32.7047 22.398C32.1113 20.1359 30.4174 18.3278 28.2023 17.5962L27.7319 19.0205ZM24.3896 19.0157C25.474 18.6642 26.6528 18.6642 27.7319 19.0205L28.2023 17.5962C26.8171 17.1387 25.3114 17.14 23.9271 17.5888L24.3896 19.0157ZM32.7192 26.6463C32.8626 26.7265 32.966 26.8988 32.9315 27.1003L31.453 26.8471C31.3735 27.3114 31.6116 27.7453 31.9868 27.9553L32.7192 26.6463ZM19.0728 27.1255C19.0358 26.9092 19.1471 26.719 19.3088 26.6308L20.0271 27.9476C20.3967 27.746 20.6284 27.3228 20.5513 26.8723L19.0728 27.1255ZM25.25 17V18.0047H26.75V17H25.25ZM22.9253 32.6487C24.9687 32.8784 27.0313 32.8784 29.0747 32.6487L28.9071 31.1581C26.9751 31.3753 25.0249 31.3753 23.0929 31.1581L22.9253 32.6487ZM29.6285 32.6563C29.6849 32.4268 29.7218 32.1932 29.7389 31.9578L28.2429 31.849C28.2319 32.0003 28.2081 32.1506 28.1718 32.2981L29.6285 32.6563ZM29.5465 32.9896L29.6285 32.6563L28.1718 32.2981L28.0899 32.6315L29.5465 32.9896ZM26.8784 35.6464C28.1945 35.3315 29.223 34.3052 29.5465 32.9896L28.0899 32.6315C27.8997 33.4047 27.2965 34.004 26.5294 34.1875L26.8784 35.6464ZM25.1216 35.6464C25.6991 35.7845 26.3009 35.7845 26.8784 35.6464L26.5294 34.1875C26.1813 34.2708 25.8187 34.2708 25.4706 34.1875L25.1216 35.6464ZM22.4535 32.9896C22.777 34.3052 23.8055 35.3315 25.1216 35.6464L25.4706 34.1875C24.7035 34.004 24.1003 33.4047 23.9101 32.6315L22.4535 32.9896ZM22.3715 32.6563L22.4535 32.9896L23.9101 32.6315L23.8282 32.2981L22.3715 32.6563ZM22.2611 31.9578C22.2782 32.1932 22.3151 32.4268 22.3715 32.6563L23.8282 32.2981C23.7919 32.1506 23.7681 32.0003 23.7571 31.849L22.2611 31.9578Z" fill="#6E51D0"/>
<defs>
<filter id="filter0_d_1_243" x="0" y="0" width="52" height="54" filterUnits="userSpaceOnUse" color-interpolation-filters="sRGB">
<feFlood flood-opacity="0" result="BackgroundImageFix"/>
<feColorMatrix in="SourceAlpha" type="matrix" values="0 0 0 0 0 0 0 0 0 0 0 0 0 0 0 0 0 0 127 0" result="hardAlpha"/>
<feOffset dy="2"/>
<feComposite in2="hardAlpha" operator="out"/>
<feColorMatrix type="matrix" values="0 0 0 0 0.882353 0 0 0 0 0.92549 0 0 0 0 0.972549 0 0 0 1 0"/>
<feBlend mode="normal" in2="BackgroundImageFix" result="effect1_dropShadow_1_243"/>
<feBlend mode="normal" in="SourceGraphic" in2="effect1_dropShadow_1_243" result="shape"/>
</filter>
</defs>
</svg>
