<svg width="16" height="16" viewBox="0 0 16 16" fill="none" xmlns="http://www.w3.org/2000/svg">
<path d="M10.8685 10.2243H4.45333V13.4545C4.45333 13.7558 4.20261 14 3.89333 14C3.58405 14 3.33333 13.7558 3.33333 13.4545V2.54545C3.33333 2.24421 3.58405 2 3.89333 2H10.8685C11.6025 2 12.167 2.43951 12.4493 2.98805C12.731 3.53556 12.7609 4.23787 12.4082 4.85347L12.0731 5.43837C11.838 5.84875 11.838 6.37557 12.0731 6.78594L12.4082 7.37084C12.7609 7.98644 12.731 8.68875 12.4493 9.23626C12.167 9.78481 11.6025 10.2243 10.8685 10.2243Z" fill="#72996B"/>
</svg>
