<svg width="80" height="80" viewBox="0 0 80 80" fill="none" xmlns="http://www.w3.org/2000/svg">
<rect width="80" height="80" rx="40" fill="#ECF8E6"/>
<mask id="mask0_0_5129" style="mask-type:alpha" maskUnits="userSpaceOnUse" x="0" y="0" width="80" height="80">
<rect width="80" height="80" rx="40" fill="#ECF8E6"/>
</mask>
<g mask="url(#mask0_0_5129)">
<path d="M21.016 51.3949L22.4915 51.3949" stroke="#B1B9CC" stroke-width="1.57047" stroke-miterlimit="10" stroke-linecap="round" stroke-linejoin="round"/>
<path d="M47.897 65.5468H42.1442V18.5686H47.897C51.1809 18.5686 55.3516 21.2197 55.3516 24.4917V59.6237C55.3516 62.8957 51.1809 65.5468 47.897 65.5468Z" fill="#ED3900"/>
<path d="M48.0645 29.4848V54.5621C48.0645 55.4219 47.7529 56.2101 47.2256 56.831C46.9139 57.1893 46.5065 57.4997 46.075 57.7147C45.6196 57.9296 45.1402 58.0491 44.6128 58.0491H25.341C24.8137 58.0491 24.3103 57.9296 23.8789 57.7147C22.6804 57.1654 21.8654 55.9712 21.8654 54.5621V29.4848C21.8654 28.0996 22.6804 26.9054 23.8549 26.3561C24.3103 26.1412 24.8137 26.0218 25.341 26.0218H44.5889C44.7567 26.0218 44.9244 26.0218 45.0922 26.0695H45.1162C46.1949 26.2367 47.1057 26.9054 47.6091 27.813C47.8967 28.2907 48.0645 28.8639 48.0645 29.4848Z" fill="#C3CFDE"/>
<path d="M46.0999 39.3714C47.5958 39.3714 48.8085 37.6606 48.8085 35.5501C48.8085 33.4397 47.5958 31.7288 46.0999 31.7288C44.604 31.7288 43.3913 33.4397 43.3913 35.5501C43.3913 37.6606 44.604 39.3714 46.0999 39.3714Z" fill="#657687"/>
<path d="M46.0507 50.5962C47.3084 50.5962 48.3279 49.1527 48.3279 47.372C48.3279 45.5913 47.3084 44.1478 46.0507 44.1478C44.7931 44.1478 43.7736 45.5913 43.7736 47.372C43.7736 49.1527 44.7931 50.5962 46.0507 50.5962Z" fill="#657687"/>
<path fill-rule="evenodd" clip-rule="evenodd" d="M55.3516 31.7051V23.7997C55.3516 20.0023 52.1875 17.0408 48.4482 16.9453C46.9133 16.8975 45.389 16.9135 43.8682 16.9294C43.1092 16.9373 42.351 16.9453 41.5928 16.9453H27.4985C26.6596 16.9453 26.0364 17.3752 25.509 17.9245C25.1974 18.2589 24.9098 18.641 24.6701 18.9992C24.1188 19.7635 23.4476 21.6025 22.5368 24.2058C22.4121 24.5369 22.2875 24.8761 22.1582 25.2278C22.0637 25.4848 21.9668 25.7486 21.8656 26.0209L22.1532 26.403L23.8551 26.3552L33.9225 26.0209H40.8737C41.4969 26.0209 42.1202 26.2119 42.6235 26.5702C43.2228 27.0001 44.0378 27.5494 44.5172 27.8121C45.1164 28.1465 46.5546 28.0748 47.1059 27.9554C47.3935 27.8838 47.4894 27.5494 47.3216 27.3344C46.7703 26.6657 46.0033 26.1881 45.1164 26.0448H45.0924C45.0924 26.0448 44.1816 25.7582 44.1816 24.3491C44.1816 19.859 47.2018 19.3097 48.3523 19.3097C49.5269 19.3097 52.7628 19.8113 52.7628 23.3937V24.6834V30.5112H48.065V49.1639C48.2567 49.1878 48.4245 49.1878 48.6163 49.1878C52.3316 49.1878 55.3518 46.1785 55.3518 42.4766V31.8009C55.3518 31.7686 55.3506 31.7367 55.3484 31.7051H55.3516Z" fill="url(#paint0_linear_0_5129)"/>
<path d="M52.7629 29.7698V43.025C52.7629 45.7715 50.7254 48.0404 48.0648 48.3987V29.7698H52.7629Z" fill="#ED3900"/>
<path d="M55.3512 32.9945C56.7654 32.9945 57.9878 34.1409 57.9878 35.5739V49.1873C57.9878 50.9785 57.9878 52.7697 57.9878 54.561C57.9878 56.7104 58.1556 59.0749 57.5564 61.1766C56.3579 65.38 52.4987 67.3862 48.328 67.219C47.1295 67.1713 45.907 67.219 44.7085 67.219C41.4726 67.219 38.2127 67.219 34.9767 67.219C32.5797 67.219 30.2067 67.219 27.8097 67.219C27.618 67.219 27.4262 67.219 27.2105 67.219C26.4435 67.219 25.9161 66.8847 25.3648 66.1204C25.0053 65.6427 24.6457 64.974 24.2143 64.1142C23.615 62.9678 22.9918 61.2244 22.5364 59.8391C22.1289 58.5972 21.8412 57.6419 21.8412 57.6419L23.8547 57.6897L38.2846 58.0001H41.161C41.8801 58.0001 42.5752 57.7613 43.1265 57.3075C43.7497 56.7821 44.1332 56.3761 44.1332 56.3761C44.1332 56.3761 44.5647 56.0178 45.4756 56.0178C45.907 56.0178 46.2905 56.0656 46.5782 56.1134C46.9138 56.1611 47.1774 56.4716 47.1535 56.8299C46.8418 57.1881 46.4344 57.4986 46.0029 57.7135C45.7632 57.833 45.5235 57.9046 45.2598 57.9524C44.7804 58.0479 44.325 58.0957 44.1572 58.6211C43.7258 59.9824 44.0374 61.6304 45.0681 62.6573C46.2666 63.8515 48.1122 64.7113 49.8381 64.4963C51.7077 64.2575 53.4096 63.2544 54.4163 61.6065C55.1594 60.3884 55.3032 58.9316 55.3032 57.5464C55.3272 56.0417 55.3032 54.561 55.3032 53.0563C55.3032 49.6649 55.3032 36.6964 55.2792 33.305V32.9945H55.3512Z" fill="url(#paint1_linear_0_5129)"/>
<path d="M48.496 35.5509C48.496 34.5717 48.1605 33.6881 47.6571 33.1387V32.47H46.2908C45.0923 32.47 44.1095 33.8552 44.1095 35.5509C44.1095 37.2466 45.0923 38.6319 46.2908 38.6319H47.6571V37.9631C48.1844 37.3899 48.496 36.5301 48.496 35.5509Z" fill="#D0D9E5"/>
<path d="M47.6814 38.6319C48.8861 38.6319 49.8627 37.2525 49.8627 35.5509C49.8627 33.8494 48.8861 32.47 47.6814 32.47C46.4768 32.47 45.5002 33.8494 45.5002 35.5509C45.5002 37.2525 46.4768 38.6319 47.6814 38.6319Z" fill="#E6EDF5"/>
<path d="M47.9209 37.652C48.7416 37.652 49.407 36.711 49.407 35.5502C49.407 34.3895 48.7416 33.4485 47.9209 33.4485C47.1001 33.4485 46.4347 34.3895 46.4347 35.5502C46.4347 36.711 47.1001 37.652 47.9209 37.652Z" fill="#ADB6C1"/>
<path d="M39.2197 58.0252H19.9719C18.0543 58.0252 16.4963 56.4728 16.4963 54.5621V29.4848C16.4963 27.5742 18.0543 26.0218 19.9719 26.0218H39.2197C41.1373 26.0218 42.6954 27.5742 42.6954 29.4848V54.5621C42.6954 56.4728 41.1613 58.0252 39.2197 58.0252Z" fill="#E6EDF5"/>
<path d="M38.7156 56.2083H20.4745C19.0843 56.2083 17.9577 55.0858 17.9577 53.7006V30.2951C17.9577 28.9099 19.0843 27.7874 20.4745 27.7874H38.7156C40.1059 27.7874 41.2325 28.9099 41.2325 30.2951V53.7006C41.2325 55.0858 40.1059 56.2083 38.7156 56.2083Z" fill="#202A34"/>
<path d="M29.3679 49.8554C24.8376 49.8554 21.1222 46.1774 21.1222 41.6396C21.1222 40.9231 21.2181 40.2066 21.4099 39.514C21.5537 39.0125 22.0571 38.7259 22.5365 38.8692C23.0158 39.0125 23.3275 39.514 23.1836 39.9917C23.0398 40.5171 22.9679 41.0664 22.9679 41.6396C22.9679 45.1505 25.8203 47.9925 29.3439 47.9925C29.4877 47.9925 29.6076 47.9926 29.7514 47.9687C30.2548 47.9448 30.7102 48.3269 30.7342 48.8285C30.7581 49.33 30.3746 49.7838 29.8712 49.8077C29.7274 49.8554 29.5357 49.8554 29.3679 49.8554Z" fill="#495F76"/>
<path d="M32.9156 48.9481C32.5801 48.9481 32.2684 48.7809 32.1007 48.4704C31.861 48.0166 32.0048 47.4673 32.4602 47.2046C34.4976 46.0821 35.7441 43.9565 35.7441 41.6398C35.7441 40.4457 35.4085 39.2993 34.7853 38.2962C34.5216 37.8663 34.6415 37.2931 35.0969 37.0304C35.5283 36.7677 36.1036 36.8871 36.3673 37.3409C37.1823 38.6306 37.5898 40.1352 37.5898 41.6637C37.5898 44.6491 35.9598 47.3957 33.3471 48.8525C33.2033 48.9003 33.0594 48.9481 32.9156 48.9481Z" fill="#495F76"/>
<path d="M33.9461 36.887C33.7304 36.887 33.5386 36.8153 33.3708 36.672C32.9634 36.3377 32.5079 36.0749 32.0285 35.8361C31.5731 35.6212 31.3574 35.0718 31.5731 34.6181C31.7888 34.1643 32.3401 33.9493 32.7956 34.1643C33.4188 34.4509 33.9941 34.8091 34.5214 35.239C34.9289 35.5495 34.9768 36.1466 34.6652 36.5526C34.4735 36.7675 34.2098 36.887 33.9461 36.887Z" fill="#5A9BFD"/>
<path d="M29.5353 35.287C29.5353 35.287 29.5114 35.287 29.5353 35.287C29.4634 35.287 29.4155 35.287 29.3676 35.287C28.8642 35.287 28.4327 34.881 28.4327 34.3556C28.4327 33.8302 28.8402 33.4242 29.3676 33.4242C29.4395 33.4242 29.5114 33.4242 29.5593 33.4242C30.0627 33.448 30.4702 33.8541 30.4702 34.3795C30.4462 34.9049 30.0387 35.287 29.5353 35.287Z" fill="#5A9BFD"/>
<path opacity="0.2" d="M20.7869 31.1306C21.1973 31.1306 21.53 30.7992 21.53 30.3903C21.53 29.9814 21.1973 29.6499 20.7869 29.6499C20.3765 29.6499 20.0438 29.9814 20.0438 30.3903C20.0438 30.7992 20.3765 31.1306 20.7869 31.1306Z" fill="#BCD179"/>
<path opacity="0.2" d="M23.1119 31.1306C23.5223 31.1306 23.855 30.7992 23.855 30.3903C23.855 29.9814 23.5223 29.6499 23.1119 29.6499C22.7015 29.6499 22.3688 29.9814 22.3688 30.3903C22.3688 30.7992 22.7015 31.1306 23.1119 31.1306Z" fill="#BCD179"/>
<path opacity="0.2" d="M25.413 31.1306C25.8234 31.1306 26.1561 30.7992 26.1561 30.3903C26.1561 29.9814 25.8234 29.6499 25.413 29.6499C25.0026 29.6499 24.6699 29.9814 24.6699 30.3903C24.6699 30.7992 25.0026 31.1306 25.413 31.1306Z" fill="#BCD179"/>
<path opacity="0.4" d="M42.1442 23.1545C42.1442 23.7277 41.6648 24.2054 41.0895 24.2054H22.5129C23.4477 21.6021 24.1188 19.7631 24.6702 18.9989C24.9099 18.6406 25.1975 18.2585 25.5091 17.9241H37.542C38.1173 17.9241 38.5967 18.4018 38.5967 18.975C38.5967 19.5482 38.1173 20.0258 37.542 20.0258H31.5255C31.2379 20.0258 30.9742 20.1453 30.7825 20.3363C30.5907 20.5274 30.4709 20.7901 30.4709 21.0767C30.4709 21.6499 30.9503 22.1276 31.5255 22.1276H41.1135C41.6648 22.1037 42.1442 22.5813 42.1442 23.1545Z" fill="#ED3900"/>
<path opacity="0.4" d="M42.1444 65.0697C42.1444 65.6429 41.665 66.1206 41.0897 66.1206H25.3655C25.0059 65.619 24.6464 64.9742 24.2149 64.1144C23.6397 62.968 22.9925 61.2245 22.537 59.8393H37.5422C38.1175 59.8393 38.5969 60.317 38.5969 60.8902C38.5969 61.4634 38.1175 61.941 37.5422 61.941H31.5258C31.2381 61.941 30.9745 62.0605 30.7827 62.2515C30.5909 62.4426 30.4711 62.7053 30.4711 62.9919C30.4711 63.5651 30.9505 64.0428 31.5258 64.0428H41.1137C41.665 64.0189 42.1444 64.4965 42.1444 65.0697Z" fill="#ED3900"/>
<path d="M48.4963 47.3716C48.4963 48.5658 47.969 49.5689 47.2499 49.9749C47.0102 50.0943 46.7705 50.166 46.5068 50.166C45.4042 50.166 44.5173 48.9002 44.5173 47.3478C44.5173 45.7953 45.4042 44.5295 46.5068 44.5295C46.7705 44.5295 47.0102 44.6012 47.2499 44.7206C47.9929 45.1744 48.4963 46.1775 48.4963 47.3716Z" fill="#D0D9E5"/>
<path d="M48.4962 47.3721C48.4962 48.5663 47.9689 49.5694 47.2498 49.9754C47.2258 49.9754 47.2019 49.9754 47.1779 49.9754C46.1472 49.9754 45.3322 48.8051 45.3322 47.3721C45.3322 45.9391 46.1472 44.7688 47.1779 44.7688C47.2019 44.7688 47.2258 44.7688 47.2498 44.7688C47.9929 45.1749 48.4962 46.178 48.4962 47.3721Z" fill="#E6EDF5"/>
<g filter="url(#filter0_d_0_5129)">
<path d="M63.5991 23.2193C63.4708 23.6679 63.2783 24.1806 63.0218 24.5651C62.3805 26.1032 60.6489 27.9616 58.2118 28.9229C56.7367 29.4997 55.0052 29.7561 53.1453 29.3716C48.2712 28.3462 45.1929 23.6038 46.1549 18.7974C47.63 11.812 56.2237 9.24845 61.2902 14.2472C63.7914 16.6825 64.5611 20.1431 63.5991 23.2193Z" fill="#FF6679"/>
</g>
<path d="M63.4775 23.3291C63.3535 23.7812 63.1675 24.298 62.9195 24.6855C62.2996 26.2357 60.6259 28.1088 58.2702 29.0776L52.691 23.2645L56.7204 19.7121L59.0761 18.8078L63.4775 23.3291Z" fill="url(#paint2_linear_0_5129)"/>
<path d="M58.8236 18.6338C57.9797 17.1768 55.9907 16.9868 54.9661 18.317C53.9414 16.9234 51.9524 17.1135 51.1086 18.6338C50.3853 19.9007 50.9278 21.0409 51.8319 22.1177C52.736 23.2579 54.0017 24.2715 54.6647 24.6515C54.7853 24.7149 54.9058 24.7782 55.0264 24.7782C55.1469 24.7782 55.2674 24.7782 55.388 24.6515C55.9907 24.2715 57.3167 23.2579 58.2208 22.1177C59.0044 21.0409 59.5468 19.9007 58.8236 18.6338Z" fill="url(#paint3_linear_0_5129)"/>
<g filter="url(#filter1_b_0_5129)">
<rect width="80" height="80" rx="40" fill="white" fill-opacity="0.6"/>
</g>
</g>
<defs>
<filter id="filter0_d_0_5129" x="39.6972" y="9.28635" width="30.5846" height="30.4761" filterUnits="userSpaceOnUse" color-interpolation-filters="sRGB">
<feFlood flood-opacity="0" result="BackgroundImageFix"/>
<feColorMatrix in="SourceAlpha" type="matrix" values="0 0 0 0 0 0 0 0 0 0 0 0 0 0 0 0 0 0 127 0" result="hardAlpha"/>
<feOffset dy="3.92619"/>
<feGaussianBlur stdDeviation="3.14095"/>
<feColorMatrix type="matrix" values="0 0 0 0 0.968627 0 0 0 0 0.254902 0 0 0 0 0.564706 0 0 0 0.3 0"/>
<feBlend mode="normal" in2="BackgroundImageFix" result="effect1_dropShadow_0_5129"/>
<feBlend mode="normal" in="SourceGraphic" in2="effect1_dropShadow_0_5129" result="shape"/>
</filter>
<filter id="filter1_b_0_5129" x="-6" y="-6" width="92" height="92" filterUnits="userSpaceOnUse" color-interpolation-filters="sRGB">
<feFlood flood-opacity="0" result="BackgroundImageFix"/>
<feGaussianBlur in="BackgroundImage" stdDeviation="3"/>
<feComposite in2="SourceAlpha" operator="in" result="effect1_backgroundBlur_0_5129"/>
<feBlend mode="normal" in="SourceGraphic" in2="effect1_backgroundBlur_0_5129" result="shape"/>
</filter>
<linearGradient id="paint0_linear_0_5129" x1="48.0658" y1="39.8009" x2="55.3635" y2="39.8009" gradientUnits="userSpaceOnUse">
<stop stop-color="#FF9330"/>
<stop offset="1" stop-color="#FF511B"/>
</linearGradient>
<linearGradient id="paint1_linear_0_5129" x1="21.8459" y1="50.0227" x2="58.0673" y2="50.0227" gradientUnits="userSpaceOnUse">
<stop stop-color="#FF9330"/>
<stop offset="1" stop-color="#FF511B"/>
</linearGradient>
<linearGradient id="paint2_linear_0_5129" x1="55.4782" y1="20.579" x2="61.7426" y2="26.5913" gradientUnits="userSpaceOnUse">
<stop stop-color="#E81717"/>
<stop offset="1" stop-color="#E01F1F" stop-opacity="0"/>
</linearGradient>
<linearGradient id="paint3_linear_0_5129" x1="57.8336" y1="22.6632" x2="51.936" y2="17.8256" gradientUnits="userSpaceOnUse">
<stop offset="0.0113208" stop-color="#FFC9C9"/>
<stop offset="1" stop-color="white"/>
</linearGradient>
</defs>
</svg>
