<svg width="375" height="300" viewBox="0 0 375 300" fill="none" xmlns="http://www.w3.org/2000/svg">
<path d="M212.805 243.084C212.805 243.084 184.242 248.843 158.252 243.084C142.356 239.562 108.883 231.211 100.977 212.284C93.0723 193.356 131.119 177.208 112.429 158.006C104.365 149.753 65.6701 138.805 67.8466 85.0693C70.0232 31.3334 126.723 -1.41287 205.518 0.0468484C284.313 1.50657 329.787 72.7833 299.31 107.883C268.833 142.984 255.718 143.063 269.53 171.649C283.341 200.235 264.168 234.903 212.805 243.084Z" fill="#EFF4F9"/>
<path d="M182.489 259.547C211.557 259.547 235.121 256.762 235.121 253.327C235.121 249.891 211.557 247.106 182.489 247.106C153.421 247.106 129.857 249.891 129.857 253.327C129.857 256.762 153.421 259.547 182.489 259.547Z" fill="#D3AA37"/>
<path d="M148.236 232.049C148.236 232.049 145.352 234.542 142.253 237.456C135.675 235.416 131.592 231.661 131.665 226.794C131.674 226.264 131.734 225.729 131.848 225.189C136.165 220.894 142.006 216.604 149.174 212.684C144.477 217.011 137.744 223.771 138.183 226.698C138.852 231.171 148.236 232.049 148.236 232.049Z" fill="#FFECDB"/>
<path d="M200.35 229.017C193.301 244.303 175.815 252.042 161.625 252.865C157.976 253.075 152.081 253.478 145.979 253.263L149.7 248.812C149.7 248.812 134.558 248.268 134.787 245.885C135.016 243.498 148.235 232.049 148.235 232.049C148.235 232.049 138.852 231.171 138.183 226.703C137.744 223.775 144.473 217.015 149.174 212.689C161.56 205.919 177.907 200.262 197.214 197.636C197.21 197.636 210.269 207.529 200.35 229.017Z" fill="#D2693C"/>
<path d="M131.844 225.193C131.729 225.733 131.67 226.268 131.661 226.799C131.587 231.665 135.675 235.42 142.248 237.46C138.724 240.772 134.906 244.618 134.787 245.885C134.558 248.273 149.7 248.813 149.7 248.813L145.979 253.263C134.819 252.869 123.028 250.413 123.156 240.941C123.215 236.481 125.458 231.409 131.844 225.193Z" fill="#F2D0AD"/>
<path d="M200.35 229.017C193.301 244.303 175.815 252.042 161.625 252.865C157.976 253.075 152.081 253.478 145.979 253.263L149.7 248.812C149.7 248.812 134.558 248.268 134.787 245.885C134.91 244.614 138.723 240.767 142.248 237.46C148.057 239.267 156.301 241.385 163.987 237.46C170.94 233.911 172.546 228.02 172.752 222.806C173.036 215.694 166.454 205.018 166.454 205.018C175.549 201.766 185.867 199.182 197.201 197.636C197.21 197.636 210.269 207.529 200.35 229.017Z" fill="#DF976F"/>
<path d="M198.226 230.801C198.226 230.801 198.835 244.184 203.234 253.327H212C212 253.327 211.166 245.121 206.511 248.026C206.511 248.026 202.19 244.184 201.668 230.54L198.226 230.801Z" fill="#381706"/>
<path d="M217.149 194.649C217.149 194.649 229.81 229.9 203.371 232.054C200.18 232.315 198.221 230.801 198.221 230.801C198.221 230.801 204.621 222.737 196.551 209.944L217.149 194.649Z" fill="#DF976F"/>
<path d="M220.953 189.234C218.875 206.07 207.83 212.588 207.83 212.588C208.104 193.817 192.042 197.453 185.853 181.911C182.589 173.692 184.274 161.064 186.595 150.983C187.638 146.46 188.801 142.458 189.703 139.585H206.575C207.944 141.895 209.198 144.141 210.343 146.318C213.89 153.069 216.431 159.207 218.156 164.783C221.214 174.625 221.754 182.712 220.953 189.234Z" fill="#FFECDB"/>
<path d="M177.769 229.895C177.769 229.895 176.831 246.059 178.603 253.327H187.368C187.368 253.327 187.616 244.504 184.274 247.564C184.274 247.564 180.964 242.482 182.077 230.545L177.769 229.895Z" fill="#381706"/>
<path d="M207.83 212.588C202.401 230.316 187.584 233.234 184.869 233.234C182.155 233.234 177.774 229.895 177.774 229.895C177.774 229.895 180.214 227.457 179.587 222.737C178.461 214.262 169.576 211.925 168.592 197.151C167.246 177.054 176.122 156.312 181.308 146.094C183.386 141.996 184.874 139.585 184.874 139.585H189.708C188.806 142.453 187.643 146.46 186.6 150.983C184.279 161.064 182.59 173.692 185.858 181.911C192.038 197.453 208.104 193.812 207.83 212.588Z" fill="#D2693C"/>
<path d="M210.343 146.318C204.255 150.75 202.025 159.193 198.052 159.193C195.507 159.193 190.769 154.912 186.595 150.983C184.599 149.099 182.736 147.306 181.303 146.094C183.381 141.996 184.869 139.585 184.869 139.585H206.58C207.944 141.895 209.198 144.141 210.343 146.318Z" fill="#F2DBC9"/>
<path d="M252.263 128.631C252.263 128.631 212.979 134.202 198.72 154.921C198.72 154.921 172.002 131.311 137.346 136.434C137.346 136.434 162.897 103.891 196.427 122.841C196.427 122.841 218.71 101.957 252.263 128.631Z" fill="#FFECDB"/>
<path d="M244.01 84.4254C231.331 69.0162 216.275 63.4545 207.803 61.4603C219.709 40.9193 248.043 38.0013 251.797 41.8524C254.319 44.4274 251.247 69.1717 244.01 84.4254Z" fill="#D2693C"/>
<path d="M244.385 47.748C247.851 50.2225 241.785 83.5792 236.022 84.5031C230.255 85.427 218.596 71.4038 218.907 67.1501C219.219 62.8965 228.126 63.427 228.126 63.427L220.692 59.4981L232.324 55.432L226.167 52.8478C226.163 52.8478 240.27 44.8071 244.385 47.748Z" fill="#DF976F"/>
<path d="M244.01 84.4254C241.895 88.894 239.41 92.5484 236.617 94.5929C231.111 98.6042 219.736 94.8765 210.343 86.7031C206.164 83.0578 202.085 73.6129 204.946 67.6624C205.733 65.4395 206.695 63.3767 207.807 61.4603C216.275 63.4545 231.335 69.0208 244.01 84.4254Z" fill="#DF976F"/>
<path d="M177.179 62.5991C159.725 68.9796 148.817 79.1701 142.042 89.8042C135.588 74.2761 136.614 44.0158 139.841 41.674C143.791 38.8016 166.779 44.8253 177.179 62.5991Z" fill="#D2693C"/>
<path d="M146.167 48.736C142.336 50.5975 142.72 84.494 148.25 86.3692C153.779 88.2491 167.626 76.3755 168.033 72.131C168.436 67.8865 159.57 66.9168 159.57 66.9168L167.557 64.2869L156.773 58.3318L163.277 56.8133C163.277 56.8133 150.717 46.5268 146.167 48.736Z" fill="#DF976F"/>
<path d="M173.188 92.8412C162.563 99.3314 150.717 101.101 145.97 96.2166C144.432 94.6341 143.123 92.4387 142.047 89.8087C148.822 79.1746 159.725 68.9842 177.184 62.6037C179.298 66.2353 180.896 70.3426 181.706 74.9804C183.533 81.3152 177.921 89.946 173.188 92.8412Z" fill="#DF976F"/>
<path d="M252.263 128.631C221.109 107.011 196.427 122.841 196.427 122.841C163.286 109.16 137.346 136.434 137.346 136.434C137.346 136.434 133.702 82.0744 183.432 64.5888C183.432 64.5888 187.249 58.963 195.429 54.1239L190.444 63.4362C190.728 63.1983 195.347 59.4432 200.931 57.7464L199.457 63.9576C199.457 63.9576 241.639 65.7048 252.263 128.631Z" fill="#D2693C"/>
<path d="M190.595 116.566C190.595 116.566 192.728 83.2865 180.841 80.4873C163.877 76.4898 154.136 107.052 154.136 107.052C154.136 107.052 164.504 117.338 190.595 116.566Z" fill="#DF976F"/>
<path d="M201.169 116.117C201.169 116.117 195.425 83.2682 206.937 79.1929C223.366 73.3705 236.375 102.698 236.375 102.698C236.375 102.698 227.188 114.05 201.169 116.117Z" fill="#DF976F"/>
<path d="M192.509 119.273L199.714 118.898C200.982 118.834 201.7 120.334 200.849 121.277L197.443 125.059C196.917 125.644 196.015 125.695 195.429 125.169L191.625 121.757C190.678 120.911 191.236 119.342 192.509 119.273Z" fill="#381706"/>
<path d="M187.089 115.811C188.384 104.308 184.8 86.415 175.819 86.5797C164.76 86.7809 157.125 105.666 158.095 108.662C159.171 111.96 174.295 116.469 187.089 115.811Z" fill="white"/>
<path d="M184.658 102.606C184.297 109.142 179.783 114.205 174.579 113.917C169.37 113.629 165.442 108.099 165.804 101.568C166.165 95.032 170.679 89.9688 175.883 90.257C181.092 90.5405 185.02 96.0703 184.658 102.606Z" fill="#381706"/>
<path d="M184.517 116.323C172.29 116.323 158.778 112.202 157.674 108.799C157.029 106.805 159.524 99.7659 163.364 94.3871C166.014 90.6777 170.322 86.232 175.819 86.1314C177.98 86.0948 179.957 87.0279 181.674 88.9169C186.631 94.3597 188.549 106.892 187.542 115.866L187.501 116.245L187.121 116.264C186.261 116.305 185.391 116.323 184.517 116.323ZM175.943 87.0279C175.906 87.0279 175.87 87.0279 175.833 87.0279C170.711 87.1193 166.623 91.3638 164.097 94.9085C160.064 100.562 158.077 107.121 158.53 108.525C159.473 111.425 173.938 115.93 186.691 115.385C187.584 106.645 185.73 94.7027 181.01 89.5206C179.5 87.8649 177.797 87.0279 175.943 87.0279Z" fill="#381706"/>
<path d="M178.049 71.7879C178.049 72.9223 175.499 73.8462 172.359 73.8462C169.214 73.8462 166.669 72.9268 166.669 71.7879C166.669 70.6491 169.219 69.7297 172.359 69.7297C175.499 69.7297 178.049 70.6536 178.049 71.7879Z" fill="#381706"/>
<path d="M180.598 93.637C180.736 96.1435 179.312 98.2611 177.426 98.3617C175.54 98.4624 173.901 96.5139 173.764 94.0029C173.627 91.4919 175.05 89.3788 176.936 89.2782C178.822 89.1775 180.461 91.126 180.598 93.637Z" fill="white"/>
<path d="M204.131 114.901C202.854 105.094 202.643 85.5002 211.569 84.5031C222.564 83.2773 232.534 100.973 231.957 104.074C231.321 107.482 216.907 113.904 204.131 114.901Z" fill="white"/>
<path d="M206.374 101.422C207.573 107.857 212.705 112.298 217.831 111.342C222.958 110.386 226.139 104.399 224.94 97.9638C223.741 91.5285 218.61 87.0873 213.483 88.0432C208.356 88.9992 205.17 94.9863 206.374 101.422Z" fill="#381706"/>
<path d="M203.742 115.381L203.687 114.96C202.689 107.299 202.259 92.7406 206.96 86.7489C208.205 85.1664 209.739 84.2607 211.524 84.0595C216.985 83.4466 221.828 87.2932 224.927 90.6275C229.413 95.4528 232.786 102.099 232.402 104.157C231.697 107.921 216.976 114.347 204.168 115.349L203.742 115.381ZM212.677 84.8919C212.329 84.8919 211.977 84.9102 211.62 84.9514C210.087 85.1252 208.754 85.9119 207.665 87.3023C203.229 92.9509 203.582 106.796 204.525 114.42C217.227 113.314 230.96 106.988 231.518 103.997C231.788 102.547 228.982 96.3081 224.267 91.2404C221.512 88.2765 217.346 84.8919 212.677 84.8919Z" fill="#381706"/>
<path d="M206.136 70.1597C206.283 71.2848 208.928 71.8703 212.046 71.4678C215.163 71.0607 217.571 69.8212 217.424 68.696C217.278 67.5709 214.632 66.9854 211.515 67.3879C208.397 67.795 205.99 69.0345 206.136 70.1597Z" fill="#381706"/>
<path d="M212.778 91.9767C212.966 94.4832 214.65 96.3996 216.531 96.2532C218.417 96.1114 219.791 93.9663 219.598 91.4599C219.411 88.9534 217.726 87.037 215.845 87.1834C213.959 87.3252 212.586 89.4703 212.778 91.9767Z" fill="white"/>
<path d="M195.681 133.507C188.993 133.507 183.798 131.366 183.715 131.33L184.086 130.456C184.214 130.511 197.137 135.826 208.232 129.363L208.713 130.182C204.355 132.716 199.746 133.507 195.681 133.507Z" fill="#381706"/>
<path d="M215.053 174.68C215.73 174.044 216.183 173.281 216.179 172.402C216.151 169.635 212.091 165.976 206.854 168.647C200.881 171.694 192.582 184.669 186.897 182.09C186.736 182.017 186.59 181.93 186.466 181.811C182.841 178.852 182.768 163.365 182.768 163.365V152.936C175.957 161.329 166.857 185.799 186.746 190.478C200.826 193.79 206.992 177.47 210.526 176.734C209.967 179.437 209.326 182.277 208.846 183.746C208.141 185.891 208.653 187.432 210.384 187.674C216.211 188.507 217.991 187.766 220.77 189.175C220.839 189.193 220.894 189.216 220.953 189.234C222.921 174.667 218.651 176.629 215.053 174.68Z" fill="#F2DBC9"/>
<path d="M182.974 186.211C181.399 181.985 184.155 179.286 185.853 178.101C182.228 175.142 184.448 157.318 184.448 157.318L184.562 149.808C175.087 159.55 171.86 180.215 182.974 186.211Z" fill="#D2693C"/>
<path d="M214.646 164.659C214.618 161.892 211.029 159.921 205.793 162.592C199.819 165.638 191.973 180.96 186.288 178.38C186.128 178.307 185.982 178.22 185.858 178.101C184.155 179.286 181.404 181.985 182.979 186.211C183.853 186.677 184.856 187.03 185.986 187.281C197.622 189.856 205.985 169.484 209.505 168.995C211.515 168.716 214.669 167.124 214.646 164.659Z" fill="#381706"/>
<path d="M219.049 183.64L210.901 181.106C209.239 180.59 208.553 178.829 209.363 177.178L219.049 157.455C219.859 155.8 221.869 154.88 223.53 155.397L231.678 157.931C233.34 158.448 234.026 160.209 233.216 161.864L223.53 181.587C222.715 183.238 220.71 184.157 219.049 183.64Z" fill="#72996B"/>
<path d="M225.842 165.464C225.242 166.69 223.759 167.371 222.528 166.987C221.301 166.607 220.788 165.304 221.392 164.078C221.992 162.852 223.475 162.171 224.707 162.555C225.933 162.939 226.441 164.243 225.842 165.464Z" fill="#847F60"/>
<path d="M223.553 171.566C220.075 173.148 222.441 181.994 224.945 182.689C227.449 183.384 229.536 182.273 229.257 178.381C228.978 174.488 225.082 170.87 223.553 171.566Z" fill="#381706"/>
<path d="M270.215 241.558C270.03 241.238 269.937 241.009 270.215 240.689C271.834 238.4 272.342 235.836 271.926 233.089C271.279 228.877 267.44 225.123 263.185 224.757C261.196 224.573 259.115 224.619 257.08 224.619C256.34 224.619 255.6 224.711 254.906 224.848C247.691 226.405 244.407 234.463 248.477 240.551C248.755 240.918 248.709 241.192 248.477 241.558C245.194 246.686 246.257 253.645 250.975 257.63C251.576 258.133 252.177 258.361 252.917 258.313C255.045 258.313 257.218 258.313 259.346 258.313C261.519 258.313 263.647 258.313 265.821 258.313C266.422 258.313 267.024 258.177 267.486 257.809C272.388 253.828 273.545 246.869 270.215 241.558ZM266.376 237.255C266.329 237.301 266.283 237.392 266.191 237.484C261.659 234.875 257.126 234.875 252.593 237.438C250.928 235.058 252.039 231.441 254.767 230.205C255.369 229.93 256.062 229.747 256.709 229.701C258.56 229.655 260.41 229.609 262.26 229.701C265.913 229.976 268.133 234.142 266.376 237.255Z" fill="#202832"/>
<path d="M265.729 247.556C265.729 248.288 265.59 249.021 265.312 249.662C264.434 251.905 262.26 253.462 259.716 253.462C258.282 253.462 256.987 252.958 255.97 252.134C254.628 251.036 253.75 249.387 253.75 247.51C253.75 247.327 253.75 247.19 253.75 247.007C253.981 243.939 256.571 241.558 259.716 241.558C260.456 241.558 261.196 241.696 261.844 241.97C264.156 242.886 265.729 245.038 265.729 247.556Z" fill="#1D2228"/>
<path d="M263.231 244.901C260.41 243.115 256.432 244.351 254.952 247.144C254.675 247.693 253.935 247.556 253.75 247.098C253.981 244.031 256.571 241.65 259.716 241.65C260.456 241.65 261.196 241.787 261.844 242.062C262.768 242.474 263.555 243.161 264.11 243.985C264.572 244.534 263.832 245.267 263.231 244.901Z" fill="black"/>
<path d="M272.111 249.616C272.25 247.876 269.937 247.144 268.92 248.563C266.422 252.226 262.259 254.652 257.589 254.652C256.294 254.652 255.091 254.469 253.888 254.149C252.224 253.645 250.928 255.703 252.131 256.942C252.362 257.17 252.593 257.446 252.871 257.63C253.426 258.085 253.981 258.313 254.674 258.269C256.617 258.269 258.56 258.269 260.502 258.269C262.445 258.269 264.434 258.269 266.422 258.269C266.977 258.269 267.486 258.177 267.949 257.765C270.446 255.703 271.88 252.729 272.111 249.616Z" fill="#1D2228"/>
<path opacity="0.1" d="M259.392 225.946C261.614 225.946 263.416 225.762 263.416 225.534C263.416 225.307 261.614 225.123 259.392 225.123C257.17 225.123 255.369 225.307 255.369 225.534C255.369 225.762 257.17 225.946 259.392 225.946Z" fill="white"/>
<path d="M293.717 215.367C294.455 215.367 295.095 215.958 295.095 216.747V257.62C295.095 258.356 294.504 259 293.717 259H263.506C262.768 259 262.129 258.409 262.129 257.62V216.747C262.129 216.007 262.719 215.367 263.506 215.367H293.717Z" fill="#202832"/>
<path d="M295.095 219.656V257.567C295.095 258.308 294.504 258.952 293.717 258.952H266.114L263.704 256.535L291.109 218.966L293.471 218.078L295.095 219.656Z" fill="#BCC4CF"/>
<path d="M293.816 218.768H263.95V256.729C263.95 257.025 264.195 257.223 264.442 257.223H293.816V218.768Z" fill="#A6AFBA"/>
<path d="M293.569 218.522C293.569 218.275 293.373 218.078 293.126 218.078H264.146C263.9 218.078 263.704 218.275 263.704 218.522V256.042C263.704 256.289 263.9 256.482 264.146 256.482H293.077C293.324 256.482 293.52 256.289 293.52 256.042V218.522H293.569Z" fill="#DFE7F0"/>
<g filter="url(#filter0_d_0_391)">
<path d="M293.569 218.522C293.569 218.275 293.372 218.078 293.126 218.078H264.146C263.9 218.078 263.654 218.275 263.703 218.522C264.047 233.46 264.195 250.371 262.522 254.759L290.273 254.364C291.995 246.772 293.274 233.115 293.569 218.522Z" fill="#EDF4FA"/>
</g>
<g filter="url(#filter1_d_0_391)">
<path d="M293.52 218.128C293.52 218.128 293.471 220.396 292.782 234.742C292.782 234.841 292.782 234.939 292.782 235.038C291.946 249.138 279.399 252.096 277.874 252.245C277.185 252.293 275.857 252.392 273.446 252.442C270.494 252.54 265.967 252.589 258.931 252.688C258.685 252.688 258.537 252.442 258.636 252.245C263.556 242.433 263.605 218.177 263.605 218.177H293.52V218.128Z" fill="white"/>
</g>
<path d="M286.632 243.469H272.314C272.215 243.469 272.117 243.321 272.117 243.074C272.117 242.877 272.215 242.68 272.314 242.68H286.681C286.779 242.68 286.878 242.828 286.878 243.074C286.878 243.271 286.779 243.469 286.632 243.469Z" fill="#CED7E2"/>
<path d="M279.301 245.687H272.215C272.117 245.687 272.018 245.539 272.018 245.293C272.018 245.095 272.117 244.898 272.215 244.898H279.301C279.399 244.898 279.497 245.047 279.497 245.293C279.497 245.49 279.399 245.687 279.301 245.687Z" fill="#E3EAF2"/>
<path d="M288.944 225.424H274.577C274.479 225.424 274.381 225.276 274.381 225.03C274.381 224.832 274.479 224.635 274.577 224.635H288.944C289.043 224.635 289.142 224.783 289.142 225.03C289.142 225.276 289.043 225.424 288.944 225.424Z" fill="#CED7E2"/>
<path d="M288.846 227.643H283.138C283.04 227.643 282.942 227.495 282.942 227.248C282.942 227.051 283.04 226.854 283.138 226.854H288.846C288.944 226.854 289.043 227.002 289.043 227.248C289.043 227.495 288.944 227.643 288.846 227.643Z" fill="#CED7E2"/>
<path d="M281.564 227.643H274.479C274.38 227.643 274.282 227.495 274.282 227.248C274.282 227.051 274.38 226.854 274.479 226.854H281.564C281.662 226.854 281.761 227.002 281.761 227.248C281.761 227.495 281.662 227.643 281.564 227.643Z" fill="#E3EAF2"/>
<path d="M292.733 234.989C291.897 249.089 279.35 252.047 277.825 252.195C277.136 252.245 275.807 252.343 273.396 252.392C279.645 249.484 282.991 244.307 282.942 240.264C285.992 240.511 291.208 240.264 292.733 234.989Z" fill="#EAEEF9"/>
<path d="M268.673 227.791C268.574 227.791 268.476 227.741 268.377 227.643L266.95 226.262C266.803 226.114 266.803 225.819 266.95 225.67C267.098 225.523 267.393 225.523 267.541 225.67L268.673 226.804L270.985 224.488C271.133 224.339 271.428 224.339 271.576 224.488C271.723 224.635 271.723 224.931 271.576 225.079L268.968 227.692C268.869 227.741 268.771 227.791 268.673 227.791Z" fill="#3AD3AB"/>
<path d="M288.304 234.249H273.937C273.839 234.249 273.74 234.101 273.74 233.855C273.74 233.658 273.839 233.46 273.937 233.46H288.304C288.403 233.46 288.501 233.608 288.501 233.855C288.501 234.052 288.403 234.249 288.304 234.249Z" fill="#CED7E2"/>
<path d="M280.924 236.468H273.839C273.741 236.468 273.642 236.32 273.642 236.073C273.642 235.876 273.741 235.679 273.839 235.679H280.924C281.023 235.679 281.122 235.827 281.122 236.073C281.171 236.271 281.072 236.468 280.924 236.468Z" fill="#E3EAF2"/>
<path d="M268.033 236.616C267.935 236.616 267.837 236.566 267.738 236.468L266.36 235.088C266.213 234.939 266.213 234.644 266.36 234.496C266.508 234.348 266.803 234.348 266.951 234.496L268.082 235.63L270.395 233.313C270.543 233.165 270.838 233.165 270.985 233.313C271.133 233.46 271.133 233.756 270.985 233.904L268.328 236.468C268.279 236.566 268.181 236.616 268.033 236.616Z" fill="#3AD3AB"/>
<path d="M285.648 215.465C285.648 215.416 285.648 215.416 285.648 215.465L285.353 215.169C285.353 215.169 285.205 215.219 285.106 215.317H280.629C280.629 215.219 280.629 215.12 280.629 215.022C280.629 214.085 279.842 213.296 278.907 213.296C277.972 213.296 277.185 214.085 277.185 215.022C277.185 215.12 277.185 215.219 277.234 215.268H272.511C272.264 215.268 272.018 215.465 272.018 215.761V217.29C272.018 218.424 272.806 219.114 273.937 219.114H283.581C284.713 219.114 285.746 218.424 285.746 217.29V215.761C285.795 215.663 285.746 215.564 285.648 215.465Z" fill="#1C3754"/>
<path d="M285.5 215.465V216.994C285.5 217.092 285.5 217.191 285.5 217.289C285.352 218.275 284.516 219.064 283.483 219.064H273.79C272.756 219.064 271.92 218.275 271.772 217.289C271.772 217.191 271.772 217.092 271.772 216.994V215.465C271.772 215.219 271.969 214.972 272.264 214.972H276.988C276.988 214.873 276.988 214.824 276.988 214.726C276.988 213.789 277.775 213 278.71 213C279.645 213 280.432 213.789 280.432 214.726C280.432 214.824 280.432 214.873 280.432 214.972H285.156C285.303 215.022 285.5 215.219 285.5 215.465Z" fill="#2D5887"/>
<path d="M278.612 215.514C279.046 215.514 279.399 215.161 279.399 214.726C279.399 214.29 279.046 213.937 278.612 213.937C278.177 213.937 277.824 214.29 277.824 214.726C277.824 215.161 278.177 215.514 278.612 215.514Z" fill="#EAEEF9"/>
<path d="M285.451 217.29C285.303 218.275 284.467 219.064 283.433 219.064H273.79C272.756 219.064 271.92 218.275 271.772 217.29H285.451Z" fill="#316094"/>
<path opacity="0.5" d="M281.711 216.599H275.414C275.266 216.599 275.168 216.501 275.168 216.353C275.168 216.205 275.266 216.106 275.414 216.106H281.711C281.859 216.106 281.958 216.205 281.958 216.353C281.958 216.501 281.859 216.599 281.711 216.599Z" fill="#1C3754"/>
<path d="M267.836 245.194C268.488 245.194 269.017 244.664 269.017 244.011C269.017 243.358 268.488 242.828 267.836 242.828C267.184 242.828 266.655 243.358 266.655 244.011C266.655 244.664 267.184 245.194 267.836 245.194Z" fill="url(#paint0_linear_0_391)"/>
<path d="M295.094 220.543H293.077V221.874H295.094V220.543Z" fill="#526DFF"/>
<path d="M287.428 223.191L286.315 224.307L287.115 225.108L288.229 223.993L287.428 223.191Z" fill="#526DFF"/>
<path d="M300.284 223.901L301.397 225.016L302.128 224.284L301.015 223.169L300.284 223.901Z" fill="#526DFF"/>
<path d="M294.258 241.299C299.639 241.299 304 236.929 304 231.537C304 226.146 299.639 221.776 294.258 221.776C288.878 221.776 284.516 226.146 284.516 231.537C284.516 236.929 288.878 241.299 294.258 241.299Z" fill="url(#paint1_linear_0_391)"/>
<path d="M285.697 232.08C285.451 232.08 285.254 231.883 285.254 231.636C285.254 231.587 285.254 231.538 285.254 231.489C285.254 226.903 288.649 223.058 293.176 222.466C293.422 222.417 293.619 222.614 293.668 222.861C293.717 223.107 293.52 223.304 293.274 223.354C289.19 223.847 286.091 227.396 286.091 231.489C286.091 231.538 286.091 231.587 286.091 231.587C286.091 231.883 285.894 232.08 285.697 232.08Z" fill="#88A6FF"/>
<path d="M294.307 240.56C293.323 240.56 292.388 240.412 291.454 240.116C291.207 240.018 291.109 239.82 291.158 239.574C291.257 239.327 291.454 239.229 291.699 239.278C292.536 239.574 293.373 239.672 294.258 239.672C298.342 239.672 301.835 236.616 302.377 232.524C302.426 232.277 302.622 232.129 302.869 232.179C303.115 232.228 303.262 232.425 303.213 232.671C302.918 234.841 301.884 236.813 300.212 238.292C298.637 239.771 296.472 240.56 294.307 240.56Z" fill="#526DFF"/>
<path d="M301.934 231.537C301.786 235.679 298.391 238.982 294.258 238.982C290.076 238.982 286.681 235.679 286.582 231.537C286.73 227.396 290.125 224.093 294.258 224.093C298.44 224.044 301.835 227.396 301.934 231.537Z" fill="white"/>
<path d="M300.802 231.833H299.572C299.375 231.833 299.228 231.686 299.228 231.489C299.228 231.291 299.375 231.143 299.572 231.143H300.802C300.999 231.143 301.147 231.291 301.147 231.489C301.147 231.686 300.999 231.833 300.802 231.833Z" fill="#DAE1ED"/>
<path d="M288.6 231.833H287.37C287.173 231.833 287.025 231.686 287.025 231.489C287.025 231.291 287.173 231.143 287.37 231.143H288.6C288.797 231.143 288.944 231.291 288.944 231.489C288.944 231.686 288.797 231.833 288.6 231.833Z" fill="#DAE1ED"/>
<path d="M294.062 238.588C293.865 238.588 293.717 238.44 293.717 238.243V237.01C293.717 236.813 293.865 236.665 294.062 236.665C294.259 236.665 294.406 236.813 294.406 237.01V238.243C294.406 238.44 294.259 238.588 294.062 238.588Z" fill="#DAE1ED"/>
<path d="M294.062 226.361C293.865 226.361 293.717 226.213 293.717 226.016V224.783C293.717 224.586 293.865 224.438 294.062 224.438C294.259 224.438 294.406 224.586 294.406 224.783V226.016C294.406 226.213 294.259 226.361 294.062 226.361Z" fill="#DAE1ED"/>
<path d="M294.16 232.474C294.785 232.474 295.291 231.967 295.291 231.34C295.291 230.714 294.785 230.206 294.16 230.206C293.535 230.206 293.028 230.714 293.028 231.34C293.028 231.967 293.535 232.474 294.16 232.474Z" fill="#DAE1ED"/>
<path d="M298.687 226.509C298.539 226.361 298.342 226.41 298.194 226.509L294.16 230.749H294.111C293.815 230.749 293.569 230.995 293.569 231.291C293.569 231.34 293.569 231.34 293.569 231.34L292.93 232.031C292.782 232.179 292.831 232.376 292.93 232.524C292.979 232.573 293.077 232.623 293.176 232.623C293.274 232.623 293.373 232.573 293.422 232.524L294.061 231.833H294.111C294.406 231.833 294.651 231.587 294.651 231.291C294.651 231.242 294.651 231.242 294.651 231.193L298.687 226.953C298.834 226.854 298.834 226.657 298.687 226.509Z" fill="#EB358A"/>
<path d="M298.588 226.657L293.127 232.376C293.077 232.376 293.077 232.376 293.028 232.376C292.979 232.327 292.979 232.228 293.077 232.129L298.342 226.607C298.391 226.509 298.539 226.509 298.588 226.607C298.588 226.607 298.588 226.607 298.588 226.657Z" fill="#FF4FA2"/>
<path d="M296.079 218.67V219.952C296.079 220.445 295.685 220.839 295.193 220.839H293.028C292.536 220.839 292.143 220.445 292.143 219.952V218.67C292.143 218.177 292.536 217.782 293.028 217.782H295.193C295.685 217.782 296.079 218.177 296.079 218.67Z" fill="#172D45"/>
<path d="M287.616 223.304L286.435 224.488C286.189 224.734 285.746 224.734 285.451 224.488L284.762 223.797C284.516 223.551 284.516 223.107 284.762 222.811L285.943 221.628C286.189 221.381 286.632 221.381 286.927 221.628L287.616 222.318C287.862 222.614 287.862 223.058 287.616 223.304Z" fill="#172D45"/>
<path d="M300.802 223.304L301.983 224.488C302.229 224.734 302.672 224.734 302.967 224.488L303.656 223.797C303.902 223.551 303.902 223.107 303.656 222.811L302.475 221.628C302.229 221.381 301.786 221.381 301.491 221.628L300.802 222.318C300.556 222.614 300.556 223.058 300.802 223.304Z" fill="#172D45"/>
<path d="M294.16 231.439C294.214 231.439 294.258 231.395 294.258 231.34C294.258 231.286 294.214 231.242 294.16 231.242C294.105 231.242 294.062 231.286 294.062 231.34C294.062 231.395 294.105 231.439 294.16 231.439Z" fill="#1C3754"/>
<path d="M249.013 258.952H302.481" stroke="#B1B9CC" stroke-width="2" stroke-miterlimit="10" stroke-linecap="round" stroke-linejoin="round"/>
<path d="M245 258.952H246.436" stroke="#B1B9CC" stroke-width="2" stroke-miterlimit="10" stroke-linecap="round" stroke-linejoin="round"/>
<defs>
<filter id="filter0_d_0_391" x="259.522" y="218.078" width="37.0469" height="42.6807" filterUnits="userSpaceOnUse" color-interpolation-filters="sRGB">
<feFlood flood-opacity="0" result="BackgroundImageFix"/>
<feColorMatrix in="SourceAlpha" type="matrix" values="0 0 0 0 0 0 0 0 0 0 0 0 0 0 0 0 0 0 127 0" result="hardAlpha"/>
<feOffset dy="3"/>
<feGaussianBlur stdDeviation="1.5"/>
<feColorMatrix type="matrix" values="0 0 0 0 0.397708 0 0 0 0 0.47749 0 0 0 0 0.575 0 0 0 0.18 0"/>
<feBlend mode="normal" in2="BackgroundImageFix" result="effect1_dropShadow_0_391"/>
<feBlend mode="normal" in="SourceGraphic" in2="effect1_dropShadow_0_391" result="shape"/>
</filter>
<filter id="filter1_d_0_391" x="254.605" y="218.128" width="42.9156" height="43.5604" filterUnits="userSpaceOnUse" color-interpolation-filters="sRGB">
<feFlood flood-opacity="0" result="BackgroundImageFix"/>
<feColorMatrix in="SourceAlpha" type="matrix" values="0 0 0 0 0 0 0 0 0 0 0 0 0 0 0 0 0 0 127 0" result="hardAlpha"/>
<feOffset dy="5"/>
<feGaussianBlur stdDeviation="2"/>
<feColorMatrix type="matrix" values="0 0 0 0 0.397708 0 0 0 0 0.47749 0 0 0 0 0.575 0 0 0 0.18 0"/>
<feBlend mode="normal" in2="BackgroundImageFix" result="effect1_dropShadow_0_391"/>
<feBlend mode="normal" in="SourceGraphic" in2="effect1_dropShadow_0_391" result="shape"/>
</filter>
<linearGradient id="paint0_linear_0_391" x1="266.66" y1="243.994" x2="269.038" y2="243.994" gradientUnits="userSpaceOnUse">
<stop stop-color="#FF66A9"/>
<stop offset="1" stop-color="#F53689"/>
</linearGradient>
<linearGradient id="paint1_linear_0_391" x1="284.495" y1="231.522" x2="304.027" y2="231.522" gradientUnits="userSpaceOnUse">
<stop stop-color="#83A6FF"/>
<stop offset="1" stop-color="#5A78FF"/>
</linearGradient>
</defs>
</svg>
