<svg width="373" height="300" viewBox="0 0 373 300" fill="none" xmlns="http://www.w3.org/2000/svg">
<path d="M212.047 270.084C212.047 270.084 183.483 275.843 157.493 270.084C141.598 266.562 108.124 258.211 100.219 239.284C92.314 220.356 130.36 204.208 111.67 185.006C103.606 176.753 64.9118 165.805 67.0883 112.069C69.2649 58.3334 125.964 25.5871 204.759 27.0468C283.554 28.5066 329.029 99.7833 298.552 134.883C268.074 169.984 254.96 170.063 268.771 198.649C282.582 227.235 263.409 261.903 212.047 270.084Z" fill="#EFF4F9"/>
<path d="M227.519 253.892C227.519 257.179 205.973 259.846 179.392 259.846C152.812 259.846 131.266 257.179 131.266 253.892C131.266 250.604 152.812 247.938 179.392 247.938C205.973 247.938 227.519 250.604 227.519 253.892Z" fill="#D3AA37"/>
<path d="M227.916 201.45C227.485 202.304 227.209 202.817 227.209 202.817C227.209 202.817 233.464 202.083 239.569 199.512C241.388 197.071 242.667 194.937 243.504 193.429C244.992 190.721 247.1 184.258 247.718 178.375C248.199 173.775 247.773 169.546 245.427 167.75C239.573 163.262 225.206 173.425 223.534 174.55C222.677 176.992 218.6 183.388 217.726 186.213C217.726 186.213 230.935 182.771 232.929 185.542C234.547 187.8 229.764 197.779 227.916 201.45Z" fill="#FFECDB"/>
<path d="M171.607 202.817C172.593 207.054 176.382 211.4 181.604 214.825C184.151 216.492 187.036 217.946 190.096 219.062C196.481 221.387 203.652 222.263 210.187 220.65C211.5 220.329 212.784 219.908 214.034 219.371C226.971 213.854 234.991 205.679 239.573 199.508C233.469 202.079 227.214 202.812 227.214 202.812C227.214 202.812 227.485 202.3 227.92 201.446C229.773 197.775 234.552 187.796 232.934 185.538C230.939 182.767 217.73 186.208 217.73 186.208C218.604 183.383 222.681 176.988 223.538 174.546C218.859 175.888 214.829 176.533 211.442 176.758C202.494 177.367 198.032 175.083 198.032 175.083L191.142 175.187C191.142 175.187 174.136 189.212 171.74 199.15C171.414 200.458 171.352 201.688 171.607 202.817Z" fill="#D2693C"/>
<path d="M171.737 199.15C174.132 189.212 191.138 175.187 191.138 175.187L198.029 175.083C198.029 175.083 200.571 176.7 208.917 176.858C211.417 184.196 208.013 191.871 205.68 195.796C206.471 199.229 208.963 203.183 216.188 203.637C220.553 203.917 224.454 203.054 227.916 201.45C238.106 196.742 244.474 185.65 247.719 178.371C247.1 184.254 244.997 190.721 243.504 193.425C242.672 194.933 241.388 197.067 239.57 199.508C235.689 204.737 229.325 211.396 219.612 216.662C216.731 218.537 213.746 219.746 210.798 220.471C210.593 220.525 210.393 220.596 210.188 220.646C203.958 222.183 197.155 221.454 191.004 219.371C190.69 219.267 190.385 219.162 190.097 219.058C187.036 217.942 184.151 216.487 181.604 214.821L181.755 214.667C176.344 211.262 170.825 206.15 171.737 199.15Z" fill="#F2DBC9"/>
<path d="M178.309 228.342C178.309 228.342 174.697 243.483 189.695 253.892H198.242C198.242 253.892 197.493 246.954 195.541 245.525C193.592 244.096 190.74 245.933 190.74 245.933C190.74 245.933 181.144 238.587 180.392 228.996L178.309 228.342Z" fill="#381706"/>
<path d="M178.314 228.346L180.693 231.037C184.841 232.554 195.386 232.221 201.658 226.121C204.246 223.604 206.103 220.108 206.496 215.358C208.515 190.604 183.553 190.621 183.553 190.621C173.204 200.167 172.932 203.379 172.932 203.379C184.285 210.3 185.263 215.825 185.485 218.808C185.669 221.229 184.477 223.271 183.009 224.842C180.931 227.075 178.314 228.346 178.314 228.346Z" fill="#D2693C"/>
<path d="M178.313 228.346L180.693 231.037C184.84 232.554 195.386 232.221 201.658 226.121C190.987 230.104 185.125 226.642 183.009 224.842C180.931 227.075 178.313 228.346 178.313 228.346Z" fill="#F2DBC9"/>
<path d="M133.674 191.654L136.543 192.012C136.543 192.012 136.543 180.758 143.287 178.092C145.842 177.088 151.729 174.833 161.287 189.292C162.178 190.633 163.098 192.117 164.043 193.754C164.043 193.754 162.784 180.35 164.875 166.454C164.875 166.454 156.83 150.75 141.619 156.692C136.509 158.679 133.703 163.175 132.332 168.354C130.07 176.992 131.826 187.55 133.674 191.654Z" fill="#D2693C"/>
<path d="M133.674 191.654L136.543 192.012C136.543 192.012 136.543 180.758 143.287 178.092C145.842 177.088 151.729 174.833 161.287 189.292C149.927 161.742 141.205 178.258 135.317 176.533C133.331 175.95 132.6 171.75 132.336 168.35C130.07 176.992 131.826 187.55 133.674 191.654Z" fill="#F2DBC9"/>
<path d="M147.292 127.537C147.531 128.079 147.798 128.629 148.079 129.183L155.433 123.354C154.919 122.554 154.438 121.733 153.974 120.888C145.428 105.183 143.287 96.6667 140.356 97.2042C137.416 97.7375 141.422 114.367 147.292 127.537Z" fill="#381706"/>
<path d="M148.079 129.183C151.604 136.154 158.043 142.196 165.055 146.425C168.412 148.463 171.895 150.075 175.253 151.183L177.929 145.633C177.929 145.633 176.231 144.596 173.643 142.642C168.91 139.067 161.212 132.408 155.434 123.354L148.079 129.183Z" fill="#D2693C"/>
<path d="M165.055 146.425C168.412 148.463 171.895 150.075 175.253 151.183L177.929 145.633C177.929 145.633 176.231 144.596 173.643 142.642C172.527 144.412 170.014 147.025 165.055 146.425Z" fill="#F2DBC9"/>
<path d="M232.683 159.842C232.131 160.067 231.558 160.279 230.972 160.483L229.743 151.2C230.667 150.979 231.587 150.721 232.511 150.433C249.604 145.05 257.08 140.404 258.816 142.817C260.559 145.242 246.088 154.429 232.683 159.842Z" fill="#381706"/>
<path d="M196.088 157.504C200.132 159.446 204.894 160.929 209.849 161.742C216.978 162.929 224.525 162.733 230.973 160.479L229.739 151.196C221.159 153.262 212.763 153.271 206.772 152.817C201.461 152.417 198.033 151.658 198.033 151.658L196.088 157.504Z" fill="#D2693C"/>
<path d="M196.088 157.504C200.132 159.446 204.894 160.929 209.849 161.742C206.462 159.133 206.454 155.067 206.772 152.817C201.461 152.417 198.033 151.658 198.033 151.658L196.088 157.504Z" fill="#F2DBC9"/>
<path d="M170.06 201.579C181.842 211.829 199.099 206.967 205.345 185.017C209.071 171.917 205.128 157.962 201.34 148.837C198.785 142.675 196.293 138.717 196.293 138.717L183.979 136.321C183.979 136.321 181.161 138.125 177.523 141.375C172.869 145.533 166.886 152.088 163.85 160.271C157.762 176.663 159.958 192.796 170.06 201.579Z" fill="#D2693C"/>
<path d="M194.88 138.317C194.88 138.317 206.571 158.496 202.164 176.996C198.242 193.458 182.963 196.637 173.76 190.833C165.795 185.812 163.315 170.646 168.764 156.325C172.727 145.904 184.97 136.321 184.97 136.321L194.88 138.317Z" fill="#FFECDB"/>
<path d="M177.527 141.371C181.445 148.604 181.316 156.538 184.815 157.471C188.148 158.367 195.967 151.45 201.34 148.833C198.785 142.671 196.293 138.713 196.293 138.713L183.979 136.317C183.983 136.317 181.165 138.121 177.527 141.371Z" fill="#F2DBC9"/>
<path d="M170.06 201.579C181.843 211.829 197.656 207.367 203.907 185.412C205.952 178.237 206.387 171.842 205.856 163.658C205.68 165.367 205.375 167.083 204.919 168.783C200.483 185.246 183.21 188.421 172.803 182.617C166.242 178.963 162.972 169.925 164.064 159.746C163.984 159.913 163.922 160.088 163.855 160.267C157.763 176.662 159.958 192.796 170.06 201.579Z" fill="#F2DBC9"/>
<path d="M165.849 86.7541C166.084 87.8541 166.899 89.0125 168.166 90.1083C172.075 93.4708 180.304 96.2166 188.955 94.875C194.056 94.075 202.532 88.7666 204.054 82.8041C204.823 80.7125 205.233 78.6291 205.726 76.6583C205.856 76.1375 205.965 75.6208 206.057 75.1C206.496 72.6167 206.496 70.1125 206.17 67.6458C204.246 52.8708 190.54 39.425 186.438 40.3916C183.658 41.0375 168.036 59.3042 165.619 76.9208C165.16 80.2625 165.176 83.5833 165.849 86.7541Z" fill="#D2693C"/>
<path d="M185.899 47.3084C181.993 47.5459 168.701 77.3375 172.205 80.825C175.709 84.3125 194.324 80.875 196.632 77.45C198.936 74.025 190.268 68.3917 190.268 68.3917L199.429 69.0583L192.066 60.2167L197.932 61.1875C197.932 61.1917 190.54 47.025 185.899 47.3084Z" fill="#DF976F"/>
<path d="M165.849 86.7542C166.084 87.8542 166.899 89.0125 168.166 90.1083L206.057 75.1C206.496 72.6167 206.496 70.1125 206.17 67.6458C204.606 67.5083 201.779 67.3417 198.121 67.4875C191.405 67.7208 181.964 68.9583 172.573 73.1875C170.236 74.2333 167.902 75.4708 165.619 76.925C165.16 80.2625 165.176 83.5833 165.849 86.7542Z" fill="#DF976F"/>
<path d="M244.261 108.721C243.417 109.467 242.066 109.908 240.398 110.033C235.246 110.404 227.001 107.717 220.863 101.496C217.246 97.8208 213.625 88.5208 215.975 82.8292C216.61 80.6958 217.53 78.7792 218.312 76.9C218.521 76.4084 218.743 75.925 218.981 75.4541C220.114 73.2 221.615 71.1875 223.355 69.4041C233.745 58.6916 252.795 56.0542 255.509 59.2667C257.353 61.4375 258.95 85.3833 250.341 100.958C248.698 103.925 246.699 106.579 244.261 108.721Z" fill="#D2693C"/>
<path d="M251.788 65.1458C254.781 67.6625 247.602 99.4708 242.702 100.183C237.801 100.896 224.919 87.0708 225.123 82.95C225.324 78.8292 235.652 79.4625 235.652 79.4625L227.9 74.55L239.106 71.8334L233.816 69.125C233.821 69.1292 248.238 62.1625 251.788 65.1458Z" fill="#DF976F"/>
<path d="M244.261 108.721C243.416 109.467 242.066 109.908 240.398 110.033L218.977 75.4583C220.11 73.2042 221.611 71.1916 223.35 69.4083C224.684 70.2291 227.055 71.775 229.907 74.0667C235.154 78.2458 241.995 84.8541 246.991 93.8333C248.242 96.0625 249.371 98.4416 250.332 100.967C248.697 103.925 246.699 106.579 244.261 108.721Z" fill="#DF976F"/>
<path d="M149.032 104.2C149.032 104.2 178.786 129.279 185.28 151.179C185.28 151.179 216.522 136.317 245.762 143.9C245.762 143.9 233.879 95.45 199.5 102.387C199.5 102.392 181.278 82.6333 149.032 104.2Z" fill="#FFECDB"/>
<path d="M149.032 104.2C191.69 88.8166 198.618 107.05 198.618 107.05C225.136 98 245.762 143.9 245.762 143.9C245.762 143.9 255.776 105.225 224.571 76.9041C224.571 76.9041 222.853 70.9708 217.137 64.4958L218.826 73.9375C218.646 73.6541 215.707 69.1125 211.35 66.075L210.873 71.85C210.878 71.8583 172.063 64.5 149.032 104.2Z" fill="#D2693C"/>
<path d="M204.376 104.854C204.376 104.854 211.63 84.075 221.799 84.0333C235.418 83.975 234.883 116.1 234.883 116.1C234.883 116.1 222.531 98.9333 204.376 104.854Z" fill="#DF976F"/>
<path d="M202.966 104.546L196.833 102.2C195.754 101.787 194.708 102.879 195.177 103.933L197.058 108.158C197.351 108.812 198.116 109.108 198.773 108.817L203.029 106.942C204.087 106.471 204.049 104.958 202.966 104.546Z" fill="#381706"/>
<path d="M206.383 104.283C206.383 104.283 213.52 84.5625 222.464 86.9583C233.264 89.85 230.471 111.275 230.471 111.275C230.471 111.275 221.331 102.458 206.383 104.283Z" fill="white"/>
<path d="M211.212 99.7625C209.862 106.2 212.538 112.204 217.187 113.171C221.837 114.137 226.7 109.704 228.046 103.262C229.396 96.825 226.72 90.8208 222.071 89.8542C217.425 88.8875 212.563 93.325 211.212 99.7625Z" fill="#381706"/>
<path d="M230.471 111.704C230.362 111.704 230.254 111.663 230.17 111.583C230.078 111.496 220.988 102.929 206.437 104.713C206.287 104.729 206.14 104.671 206.048 104.554C205.956 104.438 205.927 104.279 205.981 104.138C206.278 103.317 213.357 84.0708 222.581 86.5417C233.62 89.4958 231.023 110.442 230.906 111.329C230.885 111.492 230.776 111.625 230.622 111.679C230.567 111.7 230.521 111.704 230.471 111.704ZM210.393 103.608C220.921 103.608 228.033 108.696 230.128 110.408C230.492 106.513 231.496 89.8208 222.351 87.375C214.787 85.35 208.369 100.417 207.039 103.779C208.193 103.662 209.31 103.608 210.393 103.608Z" fill="#381706"/>
<path d="M222.807 73.8083C222.364 74.7417 224.103 76.4833 226.691 77.7042C229.28 78.9208 231.734 79.1542 232.177 78.2208C232.62 77.2875 230.881 75.5458 228.293 74.325C225.705 73.1083 223.25 72.8792 222.807 73.8083Z" fill="#381706"/>
<path d="M215.54 94.5833C215.071 96.8166 216.058 98.9125 217.743 99.2625C219.428 99.6125 221.172 98.0875 221.64 95.8542C222.108 93.6208 221.122 91.525 219.437 91.175C217.751 90.825 216.008 92.35 215.54 94.5833Z" fill="white"/>
<path d="M196.82 102.108C196.82 102.108 204.459 80.9875 196.548 75.7C185.949 68.6167 165.795 95.7542 165.795 95.7542C165.795 95.7542 186.434 87.7792 196.82 102.108Z" fill="#DF976F"/>
<path d="M195.616 100.596C195.616 100.596 202.674 80.4208 194.152 77.8041C183.866 74.6458 172.326 94 172.326 94C172.326 94 185.112 91.3458 195.616 100.596Z" fill="white"/>
<path d="M195.386 93.825C192.86 100.15 187.266 104.292 182.892 103.071C178.519 101.854 177.022 95.7416 179.547 89.4166C182.073 83.0916 187.667 78.95 192.041 80.1708C196.415 81.3875 197.911 87.5 195.386 93.825Z" fill="#381706"/>
<path d="M195.616 101.025C195.511 101.025 195.411 100.987 195.327 100.917C185.116 91.9292 172.539 94.3958 172.414 94.4208C172.246 94.4542 172.075 94.3875 171.975 94.25C171.874 94.1125 171.866 93.925 171.954 93.7792C172.43 92.9792 183.791 74.1667 194.282 77.3917C195.775 77.85 196.916 78.8375 197.669 80.3292C200.884 86.6667 196.222 100.167 196.021 100.738C195.975 100.875 195.862 100.975 195.72 101.013C195.687 101.021 195.649 101.025 195.616 101.025ZM176.612 93.2333C181.232 93.2333 188.754 94.2583 195.407 99.8458C196.28 97.1292 199.575 85.9958 196.895 80.7125C196.239 79.4208 195.302 78.6042 194.023 78.2125C185.346 75.55 175.483 89.8667 173.187 93.4292C173.952 93.3375 175.132 93.2333 176.612 93.2333Z" fill="#381706"/>
<path d="M202.306 66.6333C202.055 67.6417 199.58 68.2 196.778 67.8833C193.977 67.5667 191.911 66.4917 192.162 65.4833C192.413 64.475 194.888 63.9167 197.69 64.2333C200.491 64.55 202.557 65.625 202.306 66.6333Z" fill="#381706"/>
<path d="M189.842 86.8083C188.775 88.9166 186.664 90.1583 185.125 89.5833C183.586 89.0083 183.202 86.8291 184.264 84.7208C185.33 82.6124 187.442 81.3708 188.98 81.9458C190.523 82.5208 190.908 84.6958 189.842 86.8083Z" fill="white"/>
<path d="M210.183 116.758C210.183 116.758 190.557 127.667 185.618 106.379C185.618 106.379 182.482 131.725 189.775 134.229C197.267 136.804 210.183 116.758 210.183 116.758Z" fill="#381706"/>
<path d="M195.457 135.079C195.457 135.079 195.361 132.046 194.696 131.729C194.027 131.417 192.923 132.437 192.923 132.437C192.923 132.437 190.251 131.212 188.65 130.817C188.65 130.817 188.169 128.908 187.554 128.937C186.659 128.979 184.506 131.354 184.506 131.354C184.506 131.354 186.777 140.804 195.457 135.079Z" fill="white"/>
<path d="M205.375 117.792C205.375 117.792 202.272 123.979 201.971 119.288C201.67 114.6 205.375 117.792 205.375 117.792Z" fill="white"/>
<path d="M187.195 110.817C187.195 110.817 185.982 117.629 189.03 114.042C192.078 110.458 187.195 110.817 187.195 110.817Z" fill="white"/>
<path d="M191.163 134.887C190.636 134.887 190.122 134.808 189.628 134.637C182.094 132.05 185.054 107.375 185.184 106.329C185.209 106.121 185.38 105.963 185.589 105.95C185.803 105.946 185.986 106.079 186.032 106.283C187.437 112.329 190.172 116.292 194.169 118.058C201.198 121.167 209.883 116.429 209.966 116.379C210.142 116.283 210.355 116.317 210.493 116.462C210.627 116.608 210.648 116.825 210.543 116.992C210.046 117.771 198.923 134.887 191.163 134.887ZM185.811 108.746C185.255 114.996 184.289 131.896 189.913 133.825C195.913 135.888 205.906 122.233 208.929 117.85C206.069 119.117 199.551 121.379 193.826 118.85C190.097 117.204 187.408 113.808 185.811 108.746Z" fill="#381706"/>
<path d="M184.26 106.738L183.766 106.029C184.665 105.408 185.547 105.771 185.89 106.05L185.343 106.717L185.619 106.383L185.347 106.721C185.297 106.679 184.828 106.346 184.26 106.738Z" fill="#381706"/>
<path d="M211.291 117.954C211.158 117.075 210.342 117.171 210.246 117.187L210.117 116.333C210.827 116.229 211.948 116.538 212.144 117.825L211.291 117.954Z" fill="#381706"/>
<path d="M136.543 192.012C136.543 192.946 135.598 193.817 134.753 193.412C117.589 185.212 115.385 167.804 116.188 165.612C118.371 164.396 123.208 163.221 123.518 165.612C124.421 172.571 126.294 186.408 136.543 192.012Z" fill="#381706"/>
<path d="M63.1808 33.1061C63.8213 32.8973 64.1718 32.207 63.9633 31.564C63.7553 30.9215 63.0673 30.5696 62.4268 30.7784C61.7863 30.9877 61.4358 31.678 61.6438 32.3205C61.8523 32.9635 62.5403 33.3149 63.1808 33.1061Z" fill="#EAEEF9"/>
<path d="M66.2279 29.8878C66.6634 29.7457 66.9019 29.2764 66.7604 28.8392C66.6189 28.4019 66.1509 28.163 65.7154 28.305C65.2799 28.4471 65.0414 28.9164 65.1829 29.3537C65.3249 29.7909 65.7924 30.0299 66.2279 29.8878Z" fill="#EAEEF9"/>
<path d="M61.829 42.7055C62.287 42.7055 62.6585 42.333 62.6585 41.8737C62.6585 41.4139 62.287 41.0414 61.829 41.0414C61.371 41.0414 61 41.4139 61 41.8737C61 42.333 61.371 42.7055 61.829 42.7055Z" fill="url(#paint0_linear_0_418)"/>
<path d="M118.298 41.7873C118.649 41.7873 118.933 41.5027 118.933 41.1513C118.933 40.7999 118.649 40.5148 118.298 40.5148C117.948 40.5148 117.664 40.7999 117.664 41.1513C117.664 41.5027 117.948 41.7873 118.298 41.7873Z" fill="url(#paint1_linear_0_418)"/>
<path d="M119.63 34.4739C120.386 33.7812 120.438 32.6046 119.748 31.8461C119.057 31.0881 117.885 31.0349 117.129 31.7281C116.373 32.4209 116.32 33.5975 117.011 34.356C117.702 35.1145 118.874 35.1672 119.63 34.4739Z" fill="#EAEEF9"/>
<path d="M62.3655 64H121" stroke="#B1B9CC" stroke-width="2" stroke-miterlimit="10" stroke-linecap="round" stroke-linejoin="round"/>
<path d="M93.3901 20.6784H89.1951V23.4193H93.3901V20.6784Z" fill="#1C2532"/>
<path d="M93.3901 20.6784H89.1951V21.8531H93.3901V20.6784Z" fill="#4E637D"/>
<path d="M77.4886 26.1386L75.2121 28.4231L76.8676 30.0846L79.1441 27.8001L77.4886 26.1386Z" fill="#1C2532"/>
<path d="M104.11 27.6319L106.387 29.9159L107.87 28.428L105.593 26.1435L104.11 27.6319Z" fill="#1C2532"/>
<path d="M91.6339 63.4579C102.787 63.4579 111.829 54.3871 111.829 43.1949C111.829 32.0032 102.787 22.9299 91.6339 22.9299C80.4804 22.9299 71.4388 32.0032 71.4388 43.1949C71.4388 54.3871 80.4804 63.4579 91.6339 63.4579Z" fill="#2F3A48"/>
<path d="M73.8289 43.8189C73.3414 43.8189 72.9509 43.4273 72.9509 42.9379C72.9509 42.84 72.9509 42.7421 72.9509 42.6929C72.9509 33.2456 79.9754 25.2671 89.2924 24.0925C89.7804 24.0433 90.2194 24.3861 90.2679 24.8756C90.3169 25.365 89.9754 25.8057 89.4874 25.8544C81.0484 26.9311 74.7069 34.1758 74.7069 42.6929C74.7069 42.7908 74.7069 42.84 74.7069 42.9379C74.7069 43.4273 74.3169 43.8189 73.8289 43.8189Z" fill="#41505F"/>
<path d="M91.6343 62.4941C89.6343 62.4941 87.6343 62.1979 85.7808 61.5654C85.2928 61.4148 85.0488 60.9279 85.1953 60.4359C85.3413 59.949 85.8293 59.7031 86.3173 59.8486C88.0243 60.436 89.8293 60.6819 91.6343 60.6819C100.073 60.6819 107.293 54.368 108.415 45.9487C108.463 45.4593 108.902 45.1165 109.39 45.1657C109.878 45.2143 110.22 45.6551 110.171 46.1445C109.585 50.5991 107.39 54.7108 104.024 57.7453C100.61 60.8275 96.2198 62.4941 91.6343 62.4941Z" fill="#1E252C"/>
<path d="M107.39 43.1949C107.39 43.3906 107.39 43.5377 107.39 43.7335C107.097 52.2019 100.17 59.0058 91.6339 59.0058C83.0974 59.0058 76.1704 52.2019 75.8779 43.7335C75.8779 43.5377 75.8779 43.3906 75.8779 43.1949C75.8779 34.6777 82.6094 27.6781 91.0484 27.3845C91.2439 27.3845 91.4389 27.3845 91.6339 27.3845C100.268 27.3845 107.244 34.3354 107.39 42.9012C107.39 42.9991 107.39 43.097 107.39 43.1949Z" fill="#B4BCCF"/>
<path d="M107.39 43.7335C107.097 52.202 100.17 59.0058 91.6339 59.0058C83.0974 59.0058 76.1704 52.202 75.8779 43.7335C76.1704 35.2651 83.0974 28.4613 91.6339 28.4613C100.17 28.4126 107.097 35.2164 107.39 43.7335Z" fill="white"/>
<path d="M95.8292 53.2787H86.8047C86.3657 53.2787 86.0242 52.9358 86.0242 52.4956V47.9923C86.0242 47.5516 86.3657 47.2087 86.8047 47.2087H95.8292C96.2682 47.2087 96.6097 47.5516 96.6097 47.9923V52.4956C96.6097 52.9358 96.2682 53.2787 95.8292 53.2787Z" fill="#F2F5FC"/>
<path d="M105.293 43.9785H102.707C102.268 43.9785 101.927 43.6357 101.927 43.1949C101.927 42.7547 102.268 42.4118 102.707 42.4118H105.293C105.732 42.4118 106.073 42.7547 106.073 43.1949C106.073 43.6357 105.683 43.9785 105.293 43.9785Z" fill="#B4BCCF"/>
<path d="M79.7805 43.9785H77.1951C76.7561 43.9785 76.4146 43.6357 76.4146 43.1949C76.4146 42.7547 76.7561 42.4118 77.1951 42.4118H79.7805C80.2195 42.4118 80.5611 42.7547 80.5611 43.1949C80.5611 43.6357 80.1705 43.9785 79.7805 43.9785Z" fill="#B4BCCF"/>
<path d="M91.2439 58.1248C90.8044 58.1248 90.4634 57.782 90.4634 57.3413V54.747C90.4634 54.3068 90.8044 53.9639 91.2439 53.9639C91.6829 53.9639 92.0239 54.3068 92.0239 54.747V57.3413C91.9754 57.782 91.6339 58.1248 91.2439 58.1248Z" fill="#B4BCCF"/>
<path d="M91.2439 32.5242C90.8044 32.5242 90.4634 32.1813 90.4634 31.7406V29.1955C90.4634 28.7548 90.8044 28.4124 91.2439 28.4124C91.6829 28.4124 92.0239 28.7548 92.0239 29.1955V31.7898C91.9754 32.1813 91.6339 32.5242 91.2439 32.5242Z" fill="#B4BCCF"/>
<path d="M91.4389 45.3489C92.7589 45.3489 93.8289 44.2751 93.8289 42.9504C93.8289 41.6257 92.7589 40.5519 91.4389 40.5519C90.1189 40.5519 89.0484 41.6257 89.0484 42.9504C89.0484 44.2751 90.1189 45.3489 91.4389 45.3489Z" fill="#F2F5FC"/>
<path d="M101.585 33.4539C101.292 33.2094 100.853 33.2094 100.609 33.4539L92.1703 42.363C92.1213 42.363 92.1213 42.363 92.0728 42.363C91.4388 42.363 90.9508 42.8525 90.9508 43.4885C90.9508 43.5377 90.9508 43.5864 90.9508 43.6356L89.5848 45.0551C89.3413 45.3488 89.3413 45.7896 89.5848 46.034C89.7313 46.1811 89.8778 46.2298 90.0728 46.2298C90.2678 46.2298 90.4628 46.1811 90.5608 46.034L91.9263 44.6144C91.9753 44.6144 92.0238 44.6144 92.0238 44.6144C92.6583 44.6144 93.1458 44.125 93.1458 43.4885C93.1458 43.4398 93.1458 43.3906 93.1458 43.3419L101.585 34.4819C101.878 34.1396 101.878 33.6988 101.585 33.4539Z" fill="#B4BCCF"/>
<path d="M100.951 32.9157C100.659 32.6708 100.22 32.6708 99.9756 32.9157L91.5366 41.8244C91.4876 41.8244 91.4876 41.8244 91.4391 41.8244C90.8046 41.8244 90.3171 42.3138 90.3171 42.9503C90.3171 42.999 90.3171 43.0482 90.3171 43.0969L88.9511 44.5165C88.7071 44.8102 88.7071 45.2509 88.9511 45.4954C89.0976 45.6425 89.2436 45.6917 89.4391 45.6917C89.6341 45.6917 89.8291 45.6425 89.9266 45.4954L91.2926 44.0763C91.3416 44.0763 91.3901 44.0763 91.3901 44.0763C92.0241 44.0763 92.5121 43.5863 92.5121 42.9503C92.5121 42.9011 92.5121 42.8525 92.5121 42.8033L100.951 33.9438C101.244 33.6009 101.195 33.1602 100.951 32.9157Z" fill="#EB358A"/>
<path d="M100.659 33.1603L89.195 45.1532C89.0975 45.1532 89.0975 45.1532 89 45.1532C88.9025 45.0061 88.951 44.8103 89.0485 44.6637L100.073 33.0624C100.22 32.9158 100.464 32.9159 100.61 33.0137C100.707 33.0137 100.707 33.1116 100.659 33.1603Z" fill="#FF4FA2"/>
<path d="M95.39 16.8112V19.4546C95.39 20.4827 94.561 21.2657 93.585 21.2657H89.0975C88.073 21.2657 87.2925 20.4335 87.2925 19.4546V16.8112C87.2925 15.7831 88.122 15 89.0975 15H93.585C94.6095 15 95.39 15.8323 95.39 16.8112Z" fill="#657687"/>
<path d="M95.39 16.8112V19.4546C95.39 20.4827 94.561 21.2657 93.585 21.2657H89.0975C88.073 21.2657 87.2925 20.4335 87.2925 19.4546V18.9651C87.585 20.2377 88.707 20.2377 88.707 20.2377H93.3415C93.9755 20.2377 94.512 19.6991 94.512 19.063V17.154C94.512 15.8323 94.268 15.3429 93.585 15C94.6095 15 95.39 15.8323 95.39 16.8112Z" fill="#556779"/>
<path d="M87.9754 19.7483C87.8288 19.7483 87.7313 19.6504 87.7313 19.5033V16.4688C87.7313 16.3217 87.8288 16.2238 87.9754 16.2238C88.1215 16.2238 88.2195 16.3217 88.2195 16.4688V19.5033C88.1705 19.6504 88.073 19.7483 87.9754 19.7483Z" fill="#828C98"/>
<path d="M89.0977 19.7483C88.9511 19.7483 88.8535 19.6504 88.8535 19.5033V16.4688C88.8535 16.3217 88.9511 16.2238 89.0977 16.2238C89.2443 16.2238 89.3418 16.3217 89.3418 16.4688V19.5033C89.3418 19.6504 89.2443 19.7483 89.0977 19.7483Z" fill="#828C98"/>
<path d="M90.2682 19.7483C90.1222 19.7483 90.0246 19.6504 90.0246 19.5033V16.4688C90.0246 16.3217 90.1222 16.2238 90.2682 16.2238C90.4148 16.2238 90.5124 16.3217 90.5124 16.4688V19.5033C90.4639 19.6504 90.3663 19.7483 90.2682 19.7483Z" fill="#828C98"/>
<path d="M91.39 19.7483C91.2434 19.7483 91.1459 19.6504 91.1459 19.5033V16.4688C91.1459 16.3217 91.2434 16.2238 91.39 16.2238C91.5366 16.2238 91.6342 16.3217 91.6342 16.4688V19.5033C91.6342 19.6504 91.5366 19.7483 91.39 19.7483Z" fill="#828C98"/>
<path d="M92.561 19.7483C92.4145 19.7483 92.3169 19.6504 92.3169 19.5033V16.4688C92.3169 16.3217 92.4145 16.2238 92.561 16.2238C92.7071 16.2238 92.8047 16.3217 92.8047 16.4688V19.5033C92.7562 19.6504 92.6586 19.7483 92.561 19.7483Z" fill="#828C98"/>
<path d="M93.6829 19.7483C93.5363 19.7483 93.4388 19.6504 93.4388 19.5033V16.4688C93.4388 16.3217 93.5363 16.2238 93.6829 16.2238C93.829 16.2238 93.9265 16.3217 93.9265 16.4688V19.5033C93.9265 19.6504 93.7805 19.7483 93.6829 19.7483Z" fill="#828C98"/>
<path opacity="0.7" d="M94.8047 19.7483C94.6586 19.7483 94.561 19.6504 94.561 19.5033V16.4688C94.561 16.3217 94.6586 16.2238 94.8047 16.2238C94.9513 16.2238 95.0488 16.3217 95.0488 16.4688V19.5033C95.0488 19.6504 94.9513 19.7483 94.8047 19.7483Z" fill="#828C98"/>
<path d="M77.9268 26.3563L75.4873 28.804C74.9508 29.3421 74.0728 29.3421 73.4873 28.804L72.0728 27.3844C71.5363 26.8458 71.5363 25.9648 72.0728 25.3775L74.5118 22.9298C75.0483 22.3917 75.9268 22.3917 76.5118 22.9298L77.9268 24.3494C78.4633 24.9367 78.4633 25.8177 77.9268 26.3563Z" fill="#657687"/>
<path d="M105.146 26.3563L107.585 28.804C108.122 29.3421 109 29.3421 109.585 28.804L111 27.3844C111.537 26.8458 111.537 25.9648 111 25.3775L108.561 22.9298C108.024 22.3917 107.146 22.3917 106.561 22.9298L105.146 24.3494C104.61 24.9367 104.61 25.8177 105.146 26.3563Z" fill="url(#paint2_linear_0_418)"/>
<path d="M91.4392 43.1461C91.5468 43.1461 91.6343 43.0588 91.6343 42.9504C91.6343 42.8424 91.5468 42.7546 91.4392 42.7546C91.3311 42.7546 91.2441 42.8424 91.2441 42.9504C91.2441 43.0588 91.3311 43.1461 91.4392 43.1461Z" fill="#657687"/>
<path opacity="0.6" d="M107.39 42.9504H91.0974V27.3845C91.2924 27.3845 91.4874 27.3845 91.6829 27.3845C100.268 27.3845 107.244 34.3354 107.39 42.9504Z" fill="url(#paint3_linear_0_418)"/>
<path d="M87.1262 223.516C87.6228 224.608 87.5731 224.758 87.8217 224.809C87.8713 225.058 88.2686 225.058 88.3182 224.809C88.7651 223.418 88.8147 220.842 87.4244 221.137C87.027 221.189 86.8281 221.437 86.7785 221.582C86.4804 222.079 86.8777 222.922 87.1262 223.516ZM87.6228 221.634C88.1193 221.634 88.219 222.922 88.0201 224.065C87.5235 223.025 86.7289 221.634 87.6228 221.634Z" fill="#FB559D"/>
<path d="M86.7287 246.683C87.4241 250.107 89.2118 250.304 90.1056 248.819C92.4895 244.8 89.5099 231.652 88.4172 227.142C88.4172 226.791 88.3676 226.444 88.3676 226.097C88.318 225.751 87.8214 225.803 87.8214 226.149C87.8214 231.653 87.5233 230.763 86.8279 237.756C86.5794 240.285 86.2317 244.206 86.7287 246.683ZM88.4172 230.116C89.2118 234.383 90.7515 242.866 89.7579 247.081C89.6587 247.526 89.4107 248.224 89.1126 248.571C88.4668 249.166 87.871 247.381 87.6721 246.435C86.8775 242.369 88.3676 233.194 88.4172 230.116Z" fill="#FB559D"/>
<path d="M87.2254 223.718C87.6723 224.66 87.6227 224.758 87.8217 224.81C87.8713 224.463 87.9209 224.163 87.8713 223.868C87.5731 223.17 87.027 222.182 87.2254 221.83C87.275 221.732 87.4739 221.634 87.5731 221.686C87.5731 221.484 87.5731 221.287 87.5235 221.137C87.2254 221.137 86.8777 221.287 86.6793 221.582C86.4308 222.182 86.9769 223.123 87.2254 223.718Z" fill="#E52176"/>
<path d="M87.5728 248.917C88.5664 249.264 88.864 248.917 89.0629 248.617C88.9637 248.721 88.864 248.767 88.7152 248.721C88.4171 248.571 88.1691 248.074 88.0693 247.826C87.0763 245.493 87.5232 240.481 87.7216 237.906C88.417 230.116 88.7648 230.959 87.8213 227.189C87.7216 233.887 84.99 245.245 87.5728 248.917Z" fill="#E52176"/>
<path d="M87.5732 224.561L87.6724 227.287C87.6724 227.339 87.722 227.339 87.722 227.339C87.8218 227.339 88.1194 227.339 88.3679 227.287C88.4671 227.287 88.5663 227.241 88.6164 227.241C88.666 227.241 88.666 227.189 88.666 227.189C88.4671 226.196 88.4671 224.81 88.4671 224.561C88.4671 224.51 88.4175 224.51 88.4175 224.51H87.9705H87.722C87.5732 224.51 87.5732 224.561 87.5732 224.561Z" fill="#DAE1ED"/>
<path d="M87.5732 224.561L87.6725 227.287C87.6725 227.339 87.7221 227.339 87.7221 227.339C87.8219 227.339 88.1197 227.339 88.3683 227.287C87.8715 226.247 87.8715 224.856 87.9212 224.463H87.6725C87.5732 224.51 87.5732 224.561 87.5732 224.561Z" fill="#919BAD"/>
<path d="M86.7786 219.104L87.2751 219.549L87.7716 221.685C87.8218 221.83 87.722 221.934 87.5732 221.98C87.474 221.98 87.3247 221.934 87.3247 221.83L86.5301 219.549L86.7786 219.104Z" fill="#919BAD"/>
<path d="M84.9407 219.006L86.9273 218.804C87.1758 218.804 87.3742 218.954 87.4244 219.151L87.5235 219.451C87.5731 219.601 87.4739 219.699 87.3246 219.751L85.1397 220.346L84.9407 219.006Z" fill="#1B334E"/>
<path d="M87.6227 242.519C87.3742 248.121 86.9273 253.779 86.3811 260.229C86.3811 260.229 86.3811 260.477 86.3315 260.824C86.2819 261.465 86.1326 262.412 85.9838 263.152C85.8846 263.602 85.7849 263.948 85.6857 264.046C85.338 264.243 83.898 264.595 81.216 264.693C79.8748 264.739 78.534 264.791 77.2925 264.739C75.9016 264.693 74.7097 264.491 73.915 264.046C73.4185 263.648 73.0708 259.484 73.0708 259.484C73.0708 259.484 72.4745 254.178 71.8292 240.135C71.73 237.906 72.5743 235.128 73.17 233.292C73.3193 232.894 73.4185 232.547 73.5177 232.247C74.1139 230.561 73.5673 229.77 72.8223 229.325C72.7727 229.325 72.7727 229.273 72.7231 229.273C72.6735 229.221 72.6239 229.175 72.5743 229.123C72.177 228.777 71.9284 228.234 71.9284 227.685L71.8788 225.353C71.8788 225.353 71.8292 224.261 71.978 223.817C71.978 223.765 72.0276 223.718 72.0772 223.666C72.1274 223.62 72.2265 223.568 72.3257 223.47C72.7231 223.222 73.4681 222.973 74.2131 222.777C75.3555 222.477 76.4978 222.28 76.4978 222.28C76.4978 222.28 78.3351 222.13 80.2721 221.98C81.6133 221.882 82.9541 221.784 83.898 221.732C84.4442 221.686 84.8415 221.686 84.9407 221.686H84.9903C85.2388 221.686 85.4873 221.686 85.7353 221.784C85.7849 221.83 85.8846 221.83 85.9342 221.882C85.9838 221.882 85.9838 221.934 86.0334 221.934C86.1822 222.032 86.282 222.182 86.4308 222.379C86.7785 222.922 87.3246 224.561 87.6227 225.849C87.7219 226.247 87.7715 226.646 87.7715 226.941C87.9208 232.397 87.8712 237.409 87.6227 242.519Z" fill="url(#paint4_linear_0_418)"/>
<path d="M79.1296 223.816C75.3553 224.261 72.276 224.215 72.0771 223.666C72.8221 222.922 76.4977 222.327 76.4977 222.327C76.4977 222.327 84.444 221.732 84.9405 221.732C85.2882 221.732 85.636 221.732 85.9341 221.934C86.0333 222.529 82.9539 223.372 79.1296 223.816Z" fill="#E52176"/>
<path d="M85.7355 221.784L85.6859 221.83C85.239 222.13 84.6929 222.379 84.1463 222.529C83.0535 222.922 81.9112 223.123 80.9181 223.273C80.372 223.372 79.875 223.418 79.4777 223.47C78.0873 223.62 76.7957 223.718 75.6037 223.718C75.5045 223.718 75.4549 223.718 75.4053 223.718C74.3126 223.718 73.3195 223.62 72.2764 223.418C72.0775 223.372 71.9286 223.17 71.9286 222.973C72.0278 222.477 72.1772 221.582 72.2764 220.791C72.326 220.491 72.4252 220.294 72.5745 220.046C72.9222 219.549 73.6667 219.104 75.008 218.411C75.1568 218.411 75.3061 218.36 75.4053 218.308C75.7034 218.163 76.001 218.065 76.2991 217.961C76.945 217.713 77.5903 217.568 78.2361 217.367C78.2361 217.367 78.2361 217.367 78.2857 217.367C78.435 217.32 78.5342 217.32 78.683 217.268C80.7192 216.824 82.557 216.772 83.1036 216.87C83.1532 216.87 83.1532 216.87 83.2028 216.87C83.6001 216.974 83.8983 217.118 84.1463 217.268C84.2455 217.367 84.3452 217.418 84.3948 217.465C84.4444 217.465 84.4444 217.517 84.4444 217.517C84.4444 217.517 84.5436 217.713 85.9344 220.987C86.0832 221.287 85.984 221.634 85.7355 221.784Z" fill="#1B334E"/>
<path d="M86.3811 260.229C86.3811 260.229 86.3811 260.477 86.3315 260.824C85.7849 261.072 85.3876 261.119 84.8415 261.217C84.0468 261.367 83.401 260.871 83.401 259.929C83.401 259.034 83.4506 257.203 83.5007 253.728C83.6991 244.997 83.5503 244.107 82.8549 240.533C82.1099 236.566 79.1798 234.533 78.1863 233.835C77.1927 233.09 77.3421 232.744 77.6402 231.952C77.8882 231.156 77.7394 230.613 77.2428 229.868C77.0439 229.573 76.6466 229.371 76.2493 229.175C76.0008 229.077 76.0509 228.678 76.3485 228.627C77.2925 228.528 78.6828 228.332 80.719 228.032C84.4938 227.489 86.5299 226.692 87.7219 225.849C87.8216 226.247 87.8712 226.646 87.8712 226.94C88.0696 238.299 87.4243 247.873 86.3811 260.229Z" fill="#1C3754"/>
<path opacity="0.4" d="M83.891 221.634C83.2457 219.948 82.4015 217.961 81.5071 218.261C81.4079 217.118 81.2591 218.36 81.0106 218.411C81.0106 218.458 80.3648 219.006 80.3152 219.151C80.1168 219.503 80.0171 219.896 79.9675 220.294C79.9179 220.889 80.0672 221.437 80.3152 221.929C80.4144 222.13 80.5141 222.28 80.6133 222.477C80.7621 222.725 80.9114 222.973 81.0106 223.222C82.0042 223.072 83.146 222.823 84.2387 222.477C84.0899 222.177 83.9907 221.882 83.891 221.634Z" fill="#161213"/>
<path opacity="0.1" d="M87.623 242.519C87.3745 248.121 86.9275 253.779 86.3814 260.229C86.3814 260.229 86.3814 260.477 86.3318 260.824C86.2822 261.465 86.1329 262.412 85.9841 263.151C84.941 263.4 83.749 263.105 82.9048 262.412C81.812 261.517 81.2163 260.126 80.9678 258.786C80.7193 257.4 80.7694 255.962 80.7694 254.571C80.7193 250.95 80.1732 247.33 79.13 243.859C78.5343 241.971 77.8389 240.088 77.8885 238.102C77.9381 236.266 78.7327 234.533 79.5273 232.894C80.3721 231.259 81.2659 229.573 81.6136 227.784C81.9117 226.247 81.7128 224.908 81.1171 223.568C82.3587 223.372 83.501 223.123 84.3452 222.875C84.494 223.222 84.5932 223.516 84.693 223.718C85.3383 224.959 85.3383 226.397 85.3383 227.784C85.438 232.744 86.2326 237.704 87.623 242.519Z" fill="#161213"/>
<path d="M74.0142 232.051C73.8158 232.351 73.6665 232.744 73.2195 233.292C73.3689 232.894 73.4681 232.547 73.5673 232.247C74.1635 230.561 73.6169 229.77 72.8718 229.325C72.8222 229.325 72.8222 229.273 72.7726 229.273C72.723 229.221 72.6734 229.175 72.6238 229.123C72.7726 229.175 72.922 229.221 73.0708 229.325C73.5673 229.62 74.9085 230.313 74.0142 232.051Z" fill="#1C1B19"/>
<path opacity="0.1" d="M84.9906 221.732C84.8418 221.484 84.693 221.039 84.4941 220.294C84.1463 219.105 83.5506 218.36 84.0471 217.961C84.1959 217.863 84.0967 217.568 84.0967 217.268C84.246 217.367 84.3452 217.418 84.3948 217.465C84.4444 217.465 84.4444 217.517 84.4444 217.517C84.4444 217.517 84.5437 217.713 85.9345 220.987C86.0833 221.287 85.9841 221.582 85.7356 221.784C85.7356 221.784 85.7356 221.784 85.686 221.784C85.5868 221.784 85.5372 221.784 85.438 221.83C85.2391 221.934 85.0903 221.882 84.9906 221.732Z" fill="white"/>
<path opacity="0.1" d="M79.5185 234.989C80.2082 233.525 80.2041 232.077 79.5097 231.751C78.8148 231.42 77.6926 232.34 77.0023 233.804C76.3126 235.268 76.3167 236.716 77.0111 237.042C77.706 237.373 78.8282 236.452 79.5185 234.989Z" fill="white"/>
<path opacity="0.1" d="M79.1139 234.797C79.5701 233.83 79.5577 232.868 79.086 232.645C78.6148 232.423 77.863 233.028 77.4068 233.995C76.9506 234.963 76.963 235.925 77.4347 236.147C77.9059 236.37 78.6582 235.764 79.1139 234.797Z" fill="white"/>
<path opacity="0.1" d="M87.6229 242.519C87.3744 248.121 86.9275 253.779 86.3813 260.229C86.3813 260.229 86.3813 260.477 86.3317 260.824C86.2821 261.465 86.1328 262.412 85.984 263.151C85.8848 263.601 85.7851 263.948 85.6859 264.046C84.8417 263.503 84.8417 263.503 85.2886 260.721C86.7291 251.395 86.8283 227.535 86.7291 226.496C86.5797 226.196 85.9344 223.418 85.7851 223.17C85.6363 222.922 85.5867 222.28 85.9344 222.079C85.984 222.032 86.0336 221.98 86.0832 221.98C86.2325 222.079 86.3318 222.229 86.4806 222.425C86.8283 222.973 87.3744 224.608 87.6725 225.901C87.7717 226.299 87.8218 226.692 87.8218 226.992C87.921 232.397 87.8714 237.409 87.6229 242.519Z" fill="white"/>
<path d="M84.3945 217.465C84.146 218.261 81.8613 219.399 78.8817 220.144C77.342 220.542 75.9512 220.739 74.8088 220.791C73.5673 220.842 72.723 220.641 72.6238 220.242C72.6238 220.196 72.6238 220.144 72.6238 220.046C72.9716 219.549 73.7166 219.105 75.0573 218.411C75.1565 218.411 75.3059 218.36 75.4051 218.308C75.7032 218.163 76.0008 218.065 76.2989 217.961C76.8455 217.765 77.3916 217.615 77.9879 217.465C78.0375 217.465 78.0871 217.418 78.1367 217.418C78.2855 217.367 78.4348 217.32 78.6332 217.32C80.6694 216.87 82.5071 216.824 83.0533 216.922C83.1034 216.922 83.1034 216.922 83.153 216.922C83.7487 217.02 84.2452 217.367 84.3945 217.465Z" fill="#37506B"/>
<path d="M78.9304 219.229C81.508 218.572 83.4879 217.605 83.352 217.077C83.2161 216.544 81.0161 216.648 78.4385 217.305C75.8603 217.961 73.881 218.929 74.0169 219.456C74.1522 219.989 76.3522 219.886 78.9304 219.229Z" fill="url(#paint5_linear_0_418)"/>
<path d="M81.5641 217.517C81.5641 217.517 81.5642 217.465 81.5146 217.465L79.6768 214.093L78.1867 214.341L76.647 214.889V218.706V218.758C76.6966 219.053 77.8886 219.006 79.2298 218.66C80.6202 218.308 81.6633 217.817 81.5641 217.517Z" fill="#E52176"/>
<path d="M78.2542 214.832C79.0964 214.62 79.7417 214.299 79.6962 214.118C79.6502 213.937 78.93 213.968 78.0878 214.181C77.2457 214.398 76.6003 214.718 76.6463 214.899C76.6923 215.075 77.412 215.049 78.2542 214.832Z" fill="url(#paint6_linear_0_418)"/>
<path d="M78.2325 214.687C78.7905 214.543 79.2209 214.341 79.194 214.232C79.1666 214.129 78.6923 214.16 78.1343 214.299C77.5758 214.444 77.1454 214.646 77.1728 214.749C77.1997 214.858 77.6745 214.827 78.2325 214.687Z" fill="#E52176"/>
<path opacity="0.1" d="M77.2925 264.739C75.9016 264.693 74.7097 264.491 73.915 264.046C73.4185 263.648 73.0708 259.484 73.0708 259.484C73.0708 259.484 72.4745 254.178 71.8292 240.135C71.73 237.906 72.5743 235.128 73.17 233.292C73.3193 232.894 73.4185 232.547 73.5177 232.247C74.1139 230.561 73.5673 229.77 72.8223 229.325C72.7727 229.325 72.7727 229.273 72.7231 229.273C72.6735 229.221 72.6239 229.175 72.5743 229.123C72.177 228.777 71.9284 228.233 71.9284 227.685L71.8788 225.353C71.8788 225.353 71.8292 224.261 71.978 223.816C71.978 223.765 72.0276 223.718 72.0772 223.666C72.1274 223.62 72.2265 223.568 72.3257 223.47C72.1273 223.418 71.978 223.222 71.978 223.025C72.0772 222.528 72.2265 221.634 72.3257 220.842C72.3753 220.542 72.4746 220.346 72.6239 220.097C72.6239 220.144 72.6239 220.196 72.6239 220.294C72.7231 220.692 73.5673 220.889 74.8088 220.842C74.1635 221.582 74.0142 222.28 74.1635 222.823C74.3123 223.372 74.8089 223.718 75.4051 223.765C75.4547 223.765 75.5539 223.765 75.6035 223.765C75.2563 224.116 75.2563 224.116 75.2563 224.116C75.2563 224.116 74.5609 224.261 74.5609 225.751C74.5609 227.24 73.8654 228.973 75.7528 229.966C77.6402 230.959 77.4909 233.442 76.1997 235.769C74.9086 238.102 74.0638 240.383 74.6601 253.433C75.1566 262.805 76.3485 264.445 77.2925 264.739Z" fill="#7C001F"/>
<path opacity="0.2" d="M75.4548 223.765C74.362 223.765 73.369 223.666 72.3259 223.47C72.1269 223.418 71.9781 223.222 71.9781 223.025C72.0773 222.528 72.2267 221.634 72.3259 220.842C72.3755 220.542 72.4747 220.346 72.624 220.097C72.624 220.144 72.624 220.196 72.624 220.294C72.7232 220.692 73.5674 220.889 74.809 220.842C74.1636 221.582 74.0143 222.28 74.1636 222.823C74.362 223.372 74.809 223.718 75.4548 223.765Z" fill="#161213"/>
<path d="M113.269 224.68C114.731 224.98 116.166 225.451 117.439 226.222C118.441 226.832 119.375 227.577 119.699 228.751C119.916 229.496 119.875 230.292 119.361 230.913C118.738 231.642 117.669 231.808 116.83 231.399C116.004 230.995 115.381 230.235 114.867 229.496C114.068 228.358 113.35 227.008 113.026 225.653C112.985 225.508 112.944 225.332 112.958 225.182" stroke="#1C3754" stroke-width="3" stroke-miterlimit="10"/>
<path d="M114.569 230.644C114.555 230.67 114.555 230.711 114.555 230.737C114.555 230.752 114.555 230.763 114.555 230.778C114.555 230.794 114.555 230.804 114.569 230.82C114.569 230.835 114.582 230.845 114.582 230.861C114.596 230.871 114.609 230.887 114.623 230.902C114.636 230.913 114.636 230.913 114.65 230.928L114.718 231.006C114.745 231.037 114.758 231.063 114.772 231.089C114.786 231.114 114.786 231.145 114.786 231.182V231.43C114.786 231.466 114.786 231.508 114.786 231.549C114.786 231.59 114.786 231.642 114.786 231.683C114.786 231.776 114.786 231.901 114.772 232.025C114.758 232.413 114.758 232.713 114.745 232.93C114.745 232.971 114.745 233.007 114.745 233.049C114.731 233.778 114.731 233.576 114.731 234.471C114.555 234.833 114.406 235.133 114.271 235.387C114.258 235.428 114.23 235.469 114.217 235.511C114.176 235.604 114.122 235.702 114.081 235.769C114.068 235.795 114.054 235.821 114.054 235.837C114.041 235.878 114.014 235.914 114 235.945C113.973 235.982 113.959 236.023 113.946 236.064C113.933 236.09 113.919 236.106 113.919 236.132C113.906 236.157 113.892 236.173 113.892 236.199C113.878 236.23 113.878 236.24 113.865 236.256C113.851 236.297 113.838 236.323 113.824 236.364C113.824 236.364 113.824 236.364 113.824 236.375C113.824 236.39 113.811 236.4 113.811 236.416C113.797 236.457 113.784 236.499 113.77 236.525C113.756 236.566 113.743 236.607 113.743 236.649C113.729 236.726 113.716 236.809 113.716 236.902C113.716 236.928 113.716 236.944 113.716 236.969C113.716 237.037 113.716 237.104 113.716 237.161C113.716 237.254 113.716 237.378 113.716 237.497C113.716 237.523 113.716 237.554 113.716 237.58C113.716 237.595 113.716 237.595 113.716 237.606C113.716 237.756 113.743 237.864 113.811 238.081C113.824 238.107 113.824 238.149 113.838 238.175C113.959 238.511 114.176 239.054 114.582 240.15C114.596 240.187 114.609 240.218 114.623 240.259C114.65 240.326 114.677 240.404 114.704 240.471C114.704 241.19 114.704 241.552 114.704 241.743C114.704 241.836 114.704 241.878 114.704 241.919V241.935C114.704 241.945 114.704 241.961 114.69 241.971C114.69 241.971 114.69 241.971 114.69 241.987C114.69 241.987 114.69 241.986 114.69 242.002C114.664 242.054 114.636 242.111 114.609 242.178C114.379 242.638 114.217 242.959 114.081 243.218C114.068 243.233 114.068 243.259 114.054 243.269C114.041 243.3 114.027 243.326 114.014 243.352C114 243.393 113.973 243.419 113.959 243.461C113.946 243.476 113.946 243.502 113.933 243.512C113.933 243.512 113.933 243.528 113.919 243.528C113.851 243.688 113.797 243.812 113.77 243.921C113.77 243.936 113.756 243.947 113.756 243.962C113.756 243.973 113.743 244.004 113.743 244.014C113.716 244.123 113.716 244.231 113.703 244.355C113.703 244.366 113.703 244.381 113.703 244.407V244.423C113.703 244.5 113.703 244.583 113.703 244.676C113.703 244.759 113.703 244.842 113.703 244.935C113.703 244.95 113.703 244.961 113.703 244.976C113.703 245.069 113.703 245.152 113.729 245.245C113.729 245.261 113.729 245.286 113.743 245.302C113.77 245.395 113.797 245.504 113.851 245.654C113.878 245.705 113.892 245.773 113.919 245.855C114.014 246.109 114.149 246.45 114.339 246.947C114.352 246.988 114.365 247.019 114.379 247.055C114.406 247.138 114.433 247.221 114.474 247.298C114.487 247.34 114.515 247.397 114.528 247.438C114.528 247.448 114.542 247.464 114.542 247.464C114.555 247.505 114.569 247.531 114.582 247.573C114.596 247.598 114.596 247.614 114.609 247.64C114.623 247.65 114.623 247.681 114.636 247.691C114.65 247.707 114.65 247.733 114.65 247.748C114.65 247.748 114.65 247.748 114.65 247.759V247.774V247.79C114.65 247.816 114.664 247.816 114.664 247.826C114.664 247.841 114.664 247.893 114.664 247.992C114.664 248.369 114.664 249.223 114.664 249.274C113.851 250.94 113.703 251.1 113.703 251.653C113.703 252.197 113.675 252.45 113.824 252.833C114.636 254.979 114.65 254.979 114.636 255.103C114.636 255.114 114.636 255.129 114.636 255.145C114.623 258.036 114.65 259.267 114.582 259.981C114.582 260.048 114.569 260.12 114.555 260.172C114.555 260.188 114.555 260.198 114.555 260.214C114.555 260.224 114.542 260.255 114.542 260.265C114.528 260.307 114.528 260.348 114.515 260.374C114.515 260.389 114.515 260.4 114.515 260.4C114.515 260.431 114.501 260.441 114.501 260.472C114.487 260.539 114.461 260.591 114.447 260.648C114.433 260.674 114.42 260.7 114.42 260.726C114.379 260.834 114.339 260.927 114.284 261.036C114.258 261.093 114.23 261.145 114.217 261.186C114.176 261.269 114.136 261.346 114.095 261.429C113.635 262.35 113.337 262.945 113.093 263.338C112.714 263.943 112.484 264.077 112.064 264.243C111.915 264.294 111.753 264.362 111.55 264.444C110.67 264.822 109.208 264.889 105.905 264.957C105.526 264.957 105.147 264.957 104.781 264.946H104.768C103.956 264.92 103.184 264.838 102.494 264.744C100.951 264.512 99.7996 264.119 99.4075 263.731C99.3667 263.689 99.3398 263.648 99.3124 263.622C99.2721 263.555 99.2179 263.472 99.1636 263.363C99.1636 263.363 99.1636 263.348 99.1502 263.348C98.9606 262.986 98.7306 262.443 98.5136 261.931C98.4733 261.838 98.4325 261.755 98.4057 261.646C97.8776 260.333 97.8368 260.891 97.8368 254.374C98.6221 252.305 98.7033 252.197 98.7033 251.71C98.7033 250.614 98.7575 250.909 97.7965 248.948C97.7965 248.912 97.7831 247.474 97.7831 247.262C98.649 244.976 98.7033 244.935 98.7033 244.5C98.7033 243.962 98.7441 243.621 98.5136 243.166C97.6069 241.34 97.7288 241.743 97.7288 241.081C97.7288 240.999 97.7014 240.026 97.7423 239.943C98.6356 237.595 98.7033 237.523 98.7033 237.037C98.7033 236.54 98.7441 236.199 98.5136 235.754C97.5392 233.778 97.688 234.264 97.688 233.442C97.688 232.051 97.6611 231.156 97.6611 231.156C97.8776 230.97 97.9184 230.97 97.9319 230.794C97.9319 230.695 97.8911 230.602 97.7831 230.551C97.6203 230.452 97.6611 230.359 97.6611 229.589C97.6338 229.537 98.5679 226.573 98.5813 226.521C98.8929 225.518 98.8794 225.435 99.0014 225.358L99.9489 224.706C99.9758 224.68 100.017 224.665 100.057 224.665C100.111 224.654 101.14 224.504 101.194 224.504C113.797 225.223 113.053 225.125 113.161 225.275C113.337 225.508 113.5 225.818 113.648 226.087C113.662 226.113 113.675 226.139 113.689 226.17C113.703 226.196 113.716 226.206 113.729 226.237C113.797 226.371 113.865 226.547 113.946 226.734C113.946 226.734 113.946 226.733 113.946 226.749C113.973 226.832 114.014 226.909 114.041 226.992C114.041 227.008 114.041 227.008 114.054 227.018C114.081 227.101 114.109 227.168 114.136 227.251C114.203 227.427 114.271 227.613 114.325 227.789C114.339 227.804 114.339 227.83 114.352 227.846C114.474 228.182 114.582 228.518 114.664 228.802C114.664 228.818 114.677 228.844 114.677 228.859C114.704 228.927 114.718 228.994 114.731 229.061C114.745 229.128 114.758 229.185 114.772 229.237C114.772 229.263 114.786 229.289 114.786 229.304C114.786 229.32 114.799 229.346 114.799 229.361C114.799 229.361 114.799 229.361 114.799 229.371C114.799 229.387 114.812 229.413 114.812 229.428C114.812 229.439 114.812 229.454 114.812 229.464C114.812 229.48 114.812 229.48 114.812 229.48C114.812 229.506 114.812 230.427 114.812 230.401C114.786 230.427 114.636 230.535 114.65 230.52C114.623 230.535 114.609 230.561 114.582 230.587C114.582 230.618 114.569 230.628 114.569 230.644Z" fill="url(#paint7_linear_0_418)"/>
<path d="M113.905 226.64C111.915 226.992 110.71 227.049 106.23 227.152C102.426 227.235 99.5427 226.723 98.5812 226.521L98.9335 225.409L100.003 224.68L101.181 224.504L113.093 225.182C113.093 225.182 113.337 225.492 113.702 226.17C113.756 226.278 113.824 226.454 113.905 226.64Z" fill="#4260FF"/>
<path d="M103.888 220.217C103.292 220.894 102.981 221.354 101.356 221.706C99.732 222.058 99.0014 221.923 98.9064 223.18C98.8118 224.422 98.7441 225.611 98.7441 225.611C98.7441 225.611 101.831 226.382 106.244 226.289C110.643 226.196 111.686 226.139 113.702 225.761C113.499 223.232 113.499 223.232 113.499 223.232C113.499 223.232 113.716 222.26 112.227 221.949C110.738 221.639 109.655 221.665 108.87 220.232C108.084 218.799 104.05 219.704 104.05 219.704L103.888 220.217Z" fill="#D4DAE8"/>
<path d="M104.348 218.432L103.888 220.041C104.808 220.434 107.407 220.356 108.883 220.041C108.707 219.327 108.571 218.815 108.49 218.463C108.409 218.137 108.111 217.904 107.773 217.904H105.066C104.727 217.894 104.429 218.111 104.348 218.432Z" fill="#1C3754"/>
<path d="M114.555 230.846L114.771 231.089V231.254C112.091 231.673 109.154 231.833 106.419 231.833C102.818 231.833 99.5694 231.564 97.6335 231.223C97.6335 231.197 97.6335 231.182 97.6335 231.182L97.8908 230.97L97.9181 230.659L97.6335 230.483V230.385C100.923 230.98 108.544 231.414 114.799 230.411L114.541 230.602L114.555 230.846Z" fill="url(#paint8_linear_0_418)"/>
<path opacity="0.6" d="M101.086 236.85C101.086 238.712 100.409 239.121 97.9721 240.326C97.891 240.362 97.8099 240.393 97.7288 240.419C97.7288 240.295 97.7288 240.176 97.7288 240.068C97.7288 240.042 97.7288 240 97.7422 239.975L98.5679 237.797C98.6629 237.564 98.7032 237.311 98.7032 237.052V236.566C98.7032 236.282 98.6356 236.013 98.5136 235.754L97.7154 234.119C97.7014 234.078 97.688 234.052 97.688 234.011C97.688 233.861 97.688 233.752 97.688 233.685V233.457C99.2044 234.306 101.086 235.185 101.086 236.85Z" fill="#4260FF"/>
<path opacity="0.6" d="M101.085 244.474C101.085 246.342 100.409 246.745 97.972 247.966C97.9043 247.992 97.8506 248.017 97.7829 248.043C97.7829 247.8 97.7829 247.557 97.7829 247.314L98.5812 245.204C98.6628 245.002 98.7031 244.774 98.7031 244.557V244.004C98.7031 243.719 98.6354 243.445 98.5135 243.192L97.769 241.661C97.7555 241.625 97.7421 241.593 97.7421 241.552C97.7421 241.407 97.7421 241.257 97.7421 241.107C99.2446 241.945 101.085 242.824 101.085 244.474Z" fill="#4260FF"/>
<path opacity="0.6" d="M101.086 251.628C101.086 253.495 100.409 253.898 97.9722 255.114C97.9319 255.145 97.8777 255.155 97.8368 255.171C97.8368 254.928 97.8368 254.669 97.8368 254.4L98.5679 252.481C98.663 252.248 98.7033 251.995 98.7033 251.736V251.25C98.7033 250.966 98.6356 250.697 98.5137 250.438L97.7965 248.979C97.7965 248.747 97.7965 248.519 97.7965 248.286C99.299 249.124 101.086 250.004 101.086 251.628Z" fill="#4260FF"/>
<path opacity="0.6" d="M114.717 233.525V234.471C113.608 236.726 113.689 236.364 113.689 237.523C113.689 237.957 113.73 237.957 114.65 240.378C114.623 240.363 114.596 240.352 114.555 240.337C112.119 239.137 111.442 238.728 111.442 236.861C111.442 235.226 113.215 234.347 114.717 233.525Z" fill="#4260FF"/>
<path opacity="0.6" d="M114.691 241.164C114.691 242.178 114.853 241.609 113.878 243.595C113.757 243.854 113.689 244.123 113.689 244.407C113.689 245.514 113.581 245.002 114.664 247.826V248.002C114.636 247.992 114.596 247.976 114.555 247.966C112.119 246.761 111.442 246.352 111.442 244.474C111.442 242.866 113.188 241.986 114.691 241.164Z" fill="#4260FF"/>
<path opacity="0.6" d="M114.65 248.343V249.274C113.838 250.94 113.689 251.116 113.689 251.654C113.689 252.197 113.662 252.466 113.811 252.833C114.704 255.181 114.623 254.969 114.623 255.145C114.596 255.129 114.582 255.114 114.555 255.114C112.119 253.914 111.442 253.505 111.442 251.628C111.442 250.029 113.161 249.155 114.65 248.343Z" fill="#4260FF"/>
<path opacity="0.4" d="M110.535 236.4C110.549 236.509 110.549 236.649 110.549 236.794L110.535 236.4Z" fill="#4260FF"/>
<path opacity="0.4" d="M114.568 230.644C114.555 230.67 114.555 230.711 114.555 230.737C114.555 230.753 114.555 230.763 114.555 230.778C114.555 230.794 114.555 230.804 114.568 230.82C114.568 230.83 114.582 230.846 114.582 230.861C114.596 230.871 114.609 230.887 114.623 230.902C114.636 230.913 114.636 230.913 114.65 230.928C114.718 230.996 114.744 231.021 114.771 231.089C114.785 231.115 114.785 231.156 114.785 231.223C114.785 231.28 114.785 231.347 114.785 231.43C114.785 231.466 114.785 231.508 114.785 231.549C114.785 231.59 114.785 231.632 114.785 231.683C114.785 231.777 114.785 231.901 114.771 232.025C114.758 232.268 114.758 232.547 114.744 232.93C114.744 232.971 114.744 233.008 114.744 233.049C114.744 233.442 114.731 233.902 114.731 234.471C114.555 234.833 114.406 235.133 114.271 235.387C114.257 235.428 114.23 235.47 114.216 235.511C114.176 235.604 114.122 235.702 114.081 235.77C114.068 235.795 114.054 235.806 114.054 235.837C114.04 235.878 114.013 235.914 114 235.945C113.973 235.982 113.959 236.023 113.946 236.064C113.932 236.09 113.919 236.106 113.919 236.132C113.905 236.157 113.905 236.173 113.891 236.199C113.878 236.23 113.878 236.24 113.865 236.256C113.851 236.297 113.837 236.323 113.824 236.364C113.824 236.364 113.824 236.364 113.824 236.375C113.824 236.39 113.81 236.401 113.81 236.416C113.797 236.458 113.783 236.499 113.77 236.525C113.756 236.566 113.743 236.607 113.743 236.649C113.729 236.726 113.716 236.809 113.716 236.902C113.716 236.928 113.716 236.944 113.716 236.97C113.716 237.037 113.716 237.104 113.716 237.161C113.716 237.337 113.716 237.471 113.716 237.58C113.716 237.595 113.716 237.595 113.716 237.606C113.729 237.756 113.756 237.89 113.81 238.082C113.824 238.107 113.824 238.149 113.837 238.175C113.959 238.526 114.176 239.08 114.582 240.15C114.596 240.187 114.609 240.218 114.623 240.254C114.65 240.326 114.677 240.404 114.704 240.471C114.704 241.19 114.704 241.552 114.704 241.744C114.704 241.837 114.704 241.878 114.704 241.919V241.935C114.704 241.945 114.704 241.961 114.69 241.971C114.69 241.971 114.69 241.971 114.69 241.987C114.69 241.987 114.69 241.987 114.69 242.002C114.663 242.054 114.636 242.111 114.609 242.178C114.379 242.623 114.216 242.959 114.081 243.218C114.068 243.233 114.068 243.259 114.054 243.269C114.04 243.3 114.027 243.326 114.013 243.352C114 243.394 113.973 243.419 113.959 243.461C113.946 243.476 113.946 243.502 113.932 243.512C113.932 243.512 113.932 243.528 113.919 243.528C113.851 243.688 113.797 243.812 113.77 243.921C113.77 243.937 113.756 243.947 113.756 243.962C113.756 243.973 113.743 244.004 113.743 244.014C113.716 244.123 113.702 244.231 113.702 244.356C113.702 244.366 113.702 244.381 113.702 244.407V244.423C113.702 244.516 113.702 244.599 113.702 244.676C113.702 244.774 113.702 244.868 113.702 244.935C113.702 244.95 113.702 244.961 113.702 244.976C113.702 245.069 113.716 245.152 113.729 245.245C113.729 245.261 113.743 245.287 113.743 245.302C113.77 245.395 113.797 245.504 113.851 245.654C113.878 245.706 113.891 245.773 113.919 245.856C113.987 246.031 114.068 246.249 114.19 246.543C114.19 246.543 114.257 246.719 114.338 246.947C114.352 246.988 114.365 247.019 114.379 247.055C114.406 247.138 114.433 247.221 114.474 247.299C114.487 247.34 114.514 247.397 114.528 247.438C114.528 247.449 114.541 247.464 114.541 247.464C114.555 247.505 114.568 247.531 114.582 247.573C114.596 247.599 114.596 247.614 114.609 247.64C114.623 247.65 114.623 247.681 114.636 247.692C114.65 247.707 114.65 247.733 114.65 247.749V247.759V247.774V247.79C114.65 247.816 114.663 247.816 114.663 247.826C114.663 247.857 114.663 247.909 114.663 247.992C114.663 248.369 114.663 249.223 114.663 249.274C113.851 250.94 113.702 251.1 113.702 251.654C113.702 252.197 113.675 252.45 113.824 252.833C114.663 254.995 114.65 254.995 114.636 255.104C114.636 255.114 114.636 255.129 114.636 255.145C114.636 258.021 114.663 259.267 114.582 259.981C114.582 260.048 114.568 260.121 114.555 260.172C114.555 260.188 114.555 260.198 114.555 260.214C114.555 260.224 114.541 260.255 114.541 260.265C114.528 260.307 114.528 260.348 114.514 260.374C114.514 260.39 114.514 260.4 114.514 260.4C114.514 260.431 114.501 260.441 114.501 260.472C114.487 260.54 114.46 260.591 114.446 260.648C114.433 260.674 114.419 260.7 114.419 260.726C114.379 260.834 114.338 260.927 114.284 261.036C114.257 261.093 114.23 261.145 114.216 261.186C114.176 261.269 114.135 261.346 114.094 261.429C113.716 262.215 113.445 262.852 113.093 263.338C112.822 263.715 112.511 264.01 112.064 264.243C111.198 264.703 109.844 264.92 107.394 264.988C106.514 265.014 105.648 264.998 104.781 264.946H104.768C104.01 264.905 103.252 264.838 102.493 264.745C100.95 264.512 99.7994 264.119 99.4072 263.731C99.3256 263.622 99.2445 263.498 99.1633 263.364C99.1633 263.364 99.1633 263.348 99.1499 263.348C98.9603 262.996 98.7572 262.536 98.5134 261.931C98.4731 261.838 98.4323 261.755 98.4054 261.646C99.2579 261.755 100.382 261.905 101.857 262.107C108.003 262.919 109.208 259.469 109.519 257.793C109.885 255.859 109.857 253.779 109.966 251.819C110.913 234.606 110.21 236.458 110.71 231.575C110.941 229.278 110.101 228.642 108.125 228.249C105.824 227.789 103.536 227.344 101.235 226.884C106.852 226.816 109.519 226.723 113.662 226.061C113.675 226.087 113.688 226.113 113.702 226.139C113.716 226.17 113.729 226.18 113.743 226.206C113.81 226.346 113.878 226.522 113.959 226.708C113.959 226.708 113.959 226.708 113.959 226.723C113.987 226.806 114.027 226.884 114.054 226.966C114.054 226.977 114.054 226.977 114.068 226.992C114.094 227.075 114.122 227.142 114.149 227.225C114.216 227.401 114.284 227.587 114.338 227.763C114.352 227.778 114.352 227.804 114.365 227.82C114.487 228.156 114.596 228.492 114.677 228.777C114.677 228.792 114.69 228.818 114.69 228.834C114.718 228.901 114.731 228.968 114.744 229.035C114.758 229.103 114.771 229.154 114.785 229.211C114.785 229.237 114.799 229.263 114.799 229.278C114.799 229.289 114.812 229.32 114.812 229.33C114.812 229.33 114.812 229.33 114.812 229.346C114.812 229.361 114.826 229.387 114.826 229.397C114.826 229.413 114.826 229.428 114.826 229.439C114.826 229.454 114.826 229.454 114.826 229.454C114.826 229.48 114.826 230.401 114.826 230.375C114.799 230.401 114.65 230.509 114.663 230.494C114.636 230.509 114.623 230.535 114.596 230.561C114.582 230.618 114.568 230.628 114.568 230.644Z" fill="#4260FF"/>
<path d="M106.42 218.179C107.653 218.179 108.653 217.998 108.653 217.77C108.653 217.548 107.653 217.367 106.42 217.367C105.186 217.367 104.186 217.548 104.186 217.77C104.186 217.998 105.186 218.179 106.42 218.179Z" fill="#1C3754"/>
<path d="M106.42 217.636C107.653 217.636 108.653 217.455 108.653 217.232C108.653 217.005 107.653 216.824 106.42 216.824C105.186 216.824 104.186 217.005 104.186 217.232C104.186 217.455 105.186 217.636 106.42 217.636Z" fill="#1C3754"/>
<path d="M105.783 216.999L104.186 217.232V217.77L108.165 217.636L108.653 217.744V217.232L107.313 217.325" fill="#1C3754"/>
<path d="M107.026 237.859C107.026 237.926 107.026 237.926 107.026 237.994V240.378V242.012L108.918 241.671L109.323 241.604C109.525 241.537 109.728 241.811 109.593 242.012L106.08 248.824C105.945 249.098 105.54 248.959 105.54 248.69V247.123V244.671L103.311 245.012C103.108 245.08 102.905 244.805 103.04 244.604L103.716 243.306L106.553 237.792C106.62 237.657 106.891 237.657 107.026 237.859Z" fill="white"/>
<path d="M65.0353 264.719H123" stroke="#B1B9CC" stroke-width="2" stroke-miterlimit="10" stroke-linecap="round" stroke-linejoin="round"/>
<path d="M61 264.719H62.9685" stroke="#B1B9CC" stroke-width="2" stroke-miterlimit="10" stroke-linecap="round" stroke-linejoin="round"/>
<path d="M304.109 171.665H293.883C293.489 171.665 293.17 171.979 293.17 172.37V175.637C293.17 176.029 293.489 176.346 293.883 176.346H304.109C304.503 176.346 304.822 176.029 304.822 175.637V172.37C304.822 171.979 304.503 171.665 304.109 171.665Z" fill="#EB9800"/>
<path d="M293.43 176.095V172.37C293.43 172.124 293.631 171.912 293.891 171.912H304.117C304.369 171.912 304.578 172.112 304.578 172.37V176.095H293.43Z" fill="url(#paint9_linear_0_418)"/>
<path d="M312.295 160.863H285.705L286.678 159.347L288.515 156.516L289.488 155H308.512L309.485 156.516L311.314 159.347L312.295 160.863Z" fill="#3A63EC"/>
<path opacity="0.4" d="M295.024 160.863H292.793L289.488 155L295.024 160.863Z" fill="#022952"/>
<path opacity="0.4" d="M302.976 160.863H305.207L308.512 155L302.976 160.863Z" fill="#022952"/>
<path d="M303.06 173.338H294.94L294.445 172.68L294.362 172.554L285.705 160.863L286.678 159.347L288.515 156.516L289.488 155L293.833 160.863L298.421 167.067L302.481 172.554L303.06 173.338Z" fill="#7192FF"/>
<path opacity="0.6" d="M300.963 173.338H297.037L287.801 160.863L286.677 159.348L288.514 156.516L291.736 160.863L300.963 173.338Z" fill="white"/>
<path d="M313 188.104C313 195.78 306.734 202 299 202C291.266 201.992 285 195.773 285 188.104C285 188.053 285 188.002 285 187.951C285.084 180.349 291.317 174.203 299 174.203C306.616 174.203 312.807 180.243 312.992 187.751C312.992 187.869 313 187.986 313 188.104Z" fill="url(#paint10_linear_0_418)"/>
<path d="M299 201.577C306.496 201.577 312.572 195.545 312.572 188.104C312.572 180.662 306.496 174.63 299 174.63C291.504 174.63 285.428 180.662 285.428 188.104C285.428 195.545 291.504 201.577 299 201.577Z" fill="url(#paint11_linear_0_418)"/>
<path opacity="0.3" d="M312.992 187.751C309.326 190.144 304.335 191.625 298.841 191.625C293.497 191.625 288.632 190.234 285 187.951C285.084 180.349 291.317 174.203 299 174.203C306.608 174.203 312.807 180.231 312.992 187.751Z" fill="url(#paint12_linear_0_418)"/>
<path d="M310.265 188.104C310.265 188.35 310.257 188.601 310.24 188.844C309.855 194.672 304.964 199.286 298.992 199.286C293.07 199.286 288.213 194.746 287.76 188.985C287.735 188.695 287.726 188.393 287.726 188.096C287.726 181.915 292.767 176.91 298.992 176.91C305.224 176.91 310.265 181.923 310.265 188.104Z" fill="url(#paint13_linear_0_418)"/>
<path opacity="0.2" d="M310.265 188.104C310.265 188.35 310.257 188.601 310.24 188.844C306.986 190.336 303.06 191.209 298.841 191.209C294.755 191.209 290.956 190.391 287.76 188.993C287.735 188.703 287.726 188.401 287.726 188.104C287.726 181.923 292.767 176.918 298.992 176.918C305.224 176.91 310.265 181.923 310.265 188.104Z" fill="url(#paint14_linear_0_418)"/>
<path d="M300.627 181.966V194.382H298.228V185.272L296.366 187.078L294.856 185.272L298.455 181.966H300.627ZM300.627 181.547H298.455C298.346 181.547 298.245 181.59 298.17 181.657L294.571 184.963C294.403 185.111 294.386 185.362 294.529 185.538L296.039 187.344C296.115 187.438 296.224 187.485 296.341 187.493C296.35 187.493 296.358 187.493 296.366 187.493C296.475 187.493 296.584 187.453 296.66 187.379L297.809 186.263V194.382C297.809 194.613 297.994 194.797 298.228 194.797H300.627C300.862 194.797 301.047 194.613 301.047 194.382V181.966C301.047 181.739 300.854 181.547 300.627 181.547Z" fill="#EB9800"/>
<path d="M303.53 173.694H294.47C294.361 173.694 294.277 173.612 294.277 173.506V173.162C294.277 173.056 294.361 172.97 294.47 172.97H303.53C303.638 172.97 303.722 173.056 303.722 173.162V173.506C303.714 173.612 303.63 173.694 303.53 173.694Z" fill="#B57500"/>
<path opacity="0.1" d="M302.481 172.554L294.94 173.338L294.445 172.68L294.362 172.554L298.421 167.067L302.481 172.554Z" fill="#24303D"/>
<path d="M312.295 160.863L303.06 173.338H294.94L304.167 160.863L308.512 155L309.486 156.516L311.314 159.347L312.295 160.863Z" fill="#7192FF"/>
<path opacity="0.6" d="M311.314 159.348L310.198 160.863L300.963 173.338H297.037L306.264 160.863L309.485 156.516L311.314 159.348Z" fill="white"/>
<path d="M299 199.454C292.692 199.454 287.567 194.355 287.567 188.104C287.567 181.849 292.701 176.753 299 176.753C305.3 176.753 310.433 181.849 310.433 188.104C310.433 194.355 305.308 199.454 299 199.454ZM299 177.078C292.877 177.078 287.903 182.025 287.903 188.096C287.903 194.167 292.885 199.109 299 199.109C305.115 199.109 310.098 194.167 310.098 188.096C310.098 182.025 305.124 177.078 299 177.078Z" fill="url(#paint15_linear_0_418)"/>
<path d="M300.627 181.966V194.382H298.22V185.272L296.366 187.077L294.856 185.272L298.455 181.966H300.627Z" fill="url(#paint16_linear_0_418)"/>
<path opacity="0.2" d="M300.627 181.966V191.981C300.04 192.016 299.444 192.032 298.841 192.032C298.631 192.032 298.43 192.032 298.22 192.024V185.272L296.358 187.077L294.848 185.272L298.446 181.966H300.627Z" fill="url(#paint17_linear_0_418)"/>
<path d="M293.424 179.679L294.231 179.452C294.404 179.393 294.404 179.166 294.231 179.107L293.424 178.876C293.135 178.821 292.905 178.59 292.789 178.245L292.558 177.443C292.501 177.27 292.27 177.27 292.213 177.443L292.039 178.245C291.981 178.531 291.751 178.762 291.405 178.876L290.597 179.107C290.424 179.166 290.424 179.393 290.597 179.452L291.405 179.679C291.693 179.738 291.924 179.969 292.039 180.31L292.27 181.116C292.328 181.285 292.558 181.285 292.616 181.116L292.847 180.31C292.905 179.969 293.135 179.738 293.424 179.679Z" fill="white"/>
<path d="M297.83 182.738L298.34 182.593C298.449 182.558 298.449 182.413 298.34 182.374L297.83 182.229C297.648 182.193 297.502 182.048 297.429 181.833L297.283 181.324C297.247 181.218 297.101 181.218 297.065 181.324L296.955 181.833C296.919 182.013 296.773 182.158 296.555 182.229L296.045 182.374C295.936 182.413 295.936 182.558 296.045 182.593L296.555 182.738C296.737 182.773 296.882 182.918 296.955 183.137L297.101 183.643C297.138 183.752 297.283 183.752 297.32 183.643L297.465 183.137C297.502 182.918 297.648 182.773 297.83 182.738Z" fill="white"/>
<path d="M290.77 182.663L291.289 182.55C291.405 182.491 291.405 182.378 291.289 182.319L290.77 182.146C290.597 182.088 290.424 181.974 290.366 181.747L290.251 181.23C290.193 181.112 290.078 181.112 290.02 181.23L289.905 181.747C289.847 181.919 289.732 182.088 289.501 182.146L288.982 182.26C288.866 182.319 288.866 182.432 288.982 182.491L289.501 182.605C289.674 182.663 289.847 182.777 289.905 183.008L290.02 183.525C290.078 183.639 290.193 183.639 290.251 183.525L290.366 183.008C290.424 182.836 290.597 182.722 290.77 182.663Z" fill="white"/>
<defs>
<linearGradient id="paint0_linear_0_418" x1="61" y1="41.8782" x2="62.6125" y2="41.8782" gradientUnits="userSpaceOnUse">
<stop stop-color="#83A6FF"/>
<stop offset="1" stop-color="#5A78FF"/>
</linearGradient>
<linearGradient id="paint1_linear_0_418" x1="117.663" y1="41.1604" x2="118.922" y2="41.1604" gradientUnits="userSpaceOnUse">
<stop stop-color="#FF66A9"/>
<stop offset="1" stop-color="#F53689"/>
</linearGradient>
<linearGradient id="paint2_linear_0_418" x1="104.739" y1="25.8659" x2="111.407" y2="25.8659" gradientUnits="userSpaceOnUse">
<stop stop-color="#FF66A9"/>
<stop offset="1" stop-color="#F53689"/>
</linearGradient>
<linearGradient id="paint3_linear_0_418" x1="89.9689" y1="30.4942" x2="104.584" y2="45.0582" gradientUnits="userSpaceOnUse">
<stop stop-color="#EF4896"/>
<stop offset="1" stop-color="#F14D9A" stop-opacity="0"/>
</linearGradient>
<linearGradient id="paint4_linear_0_418" x1="71.8096" y1="243.212" x2="87.8676" y2="243.212" gradientUnits="userSpaceOnUse">
<stop stop-color="#FF66A9"/>
<stop offset="1" stop-color="#F53689"/>
</linearGradient>
<linearGradient id="paint5_linear_0_418" x1="74.0096" y1="219.461" x2="83.3574" y2="217.066" gradientUnits="userSpaceOnUse">
<stop stop-color="#FF66A9"/>
<stop offset="1" stop-color="#F53689"/>
</linearGradient>
<linearGradient id="paint6_linear_0_418" x1="76.6443" y1="214.899" x2="79.6977" y2="214.115" gradientUnits="userSpaceOnUse">
<stop stop-color="#FF66A9"/>
<stop offset="1" stop-color="#F53689"/>
</linearGradient>
<linearGradient id="paint7_linear_0_418" x1="97.6338" y1="244.743" x2="114.819" y2="244.743" gradientUnits="userSpaceOnUse">
<stop stop-color="#83A6FF"/>
<stop offset="1" stop-color="#5A78FF"/>
</linearGradient>
<linearGradient id="paint8_linear_0_418" x1="97.6371" y1="231.109" x2="114.801" y2="231.109" gradientUnits="userSpaceOnUse">
<stop stop-color="#BDCFFF"/>
<stop offset="1" stop-color="#91A5FF" stop-opacity="0.5"/>
</linearGradient>
<linearGradient id="paint9_linear_0_418" x1="293.412" y1="174.012" x2="304.564" y2="174.012" gradientUnits="userSpaceOnUse">
<stop offset="0.00289017" stop-color="#FFD44F"/>
<stop offset="1" stop-color="#FFA607"/>
</linearGradient>
<linearGradient id="paint10_linear_0_418" x1="307.375" y1="199.646" x2="290.667" y2="175.995" gradientUnits="userSpaceOnUse">
<stop offset="0.00289017" stop-color="#FFD44F"/>
<stop offset="1" stop-color="#FFA607"/>
</linearGradient>
<linearGradient id="paint11_linear_0_418" x1="285.383" y1="188.143" x2="312.538" y2="188.143" gradientUnits="userSpaceOnUse">
<stop offset="0.00289017" stop-color="#FFD44F"/>
<stop offset="1" stop-color="#FFA607"/>
</linearGradient>
<linearGradient id="paint12_linear_0_418" x1="298.997" y1="191.68" x2="298.997" y2="176.412" gradientUnits="userSpaceOnUse">
<stop offset="0.00289017" stop-color="white"/>
<stop offset="1" stop-color="white" stop-opacity="0"/>
</linearGradient>
<linearGradient id="paint13_linear_0_418" x1="287.689" y1="188.131" x2="310.237" y2="188.131" gradientUnits="userSpaceOnUse">
<stop offset="0.00289017" stop-color="#FFD44F"/>
<stop offset="1" stop-color="#FFA607"/>
</linearGradient>
<linearGradient id="paint14_linear_0_418" x1="298.998" y1="191.253" x2="298.998" y2="178.727" gradientUnits="userSpaceOnUse">
<stop offset="0.00289017" stop-color="white"/>
<stop offset="1" stop-color="white" stop-opacity="0"/>
</linearGradient>
<linearGradient id="paint15_linear_0_418" x1="299.775" y1="198.945" x2="299.011" y2="176.745" gradientUnits="userSpaceOnUse">
<stop offset="0.00289017" stop-color="#FFD44F"/>
<stop offset="1" stop-color="#FFA607"/>
</linearGradient>
<linearGradient id="paint16_linear_0_418" x1="298.617" y1="183.549" x2="299.064" y2="193.998" gradientUnits="userSpaceOnUse">
<stop offset="0.00289017" stop-color="#FFD44F"/>
<stop offset="1" stop-color="#FFA607"/>
</linearGradient>
<linearGradient id="paint17_linear_0_418" x1="297.74" y1="192.071" x2="297.74" y2="183.247" gradientUnits="userSpaceOnUse">
<stop offset="0.00289017" stop-color="white"/>
<stop offset="1" stop-color="white" stop-opacity="0"/>
</linearGradient>
</defs>
</svg>
